{
.appVersion = "3108";
DisplayStrings = (

glyphs = (
{
color = 6;
glyphname = A;
lastChange = "2022-03-10 16:51:15 +0000";
layers = (
{
anchors = (
{
name = bottom;
position = "{258, 0}";
},
{
name = ogonek;
position = "{504, 30}";
},
{
name = top;
position = "{403, 658}";
}
);
background = {
paths = (
{
closed = 1;
nodes = (
"428 91 QCURVE SMOOTH",
"428 59 OFFCURVE",
"421 44 QCURVE SMOOTH",
"416 36 OFFCURVE",
"380 24 OFFCURVE",
"370 24 QCURVE SMOOTH",
"363 24 OFFCURVE",
"363 3 QCURVE SMOOTH",
"363 -2 OFFCURVE",
"364 -3 QCURVE",
"379 -2 OFFCURVE",
"419 0 OFFCURVE",
"452 2 OFFCURVE",
"471 2 QCURVE SMOOTH",
"482 2 OFFCURVE",
"575 -3 QCURVE",
"580 7 OFFCURVE",
"580 19 QCURVE SMOOTH",
"580 24 OFFCURVE",
"578 24 QCURVE SMOOTH",
"568 24 OFFCURVE",
"523 45 OFFCURVE",
"520 60 QCURVE SMOOTH",
"518 69 OFFCURVE",
"508 132 QCURVE SMOOTH",
"425 660 LINE",
"421 662 OFFCURVE",
"417 662 QCURVE SMOOTH",
"393 662 OFFCURVE",
"378 635 QCURVE SMOOTH",
"102 139 LINE SMOOTH",
"63 69 OFFCURVE",
"41 45 QCURVE SMOOTH",
"33 36 OFFCURVE",
"-6 24 OFFCURVE",
"-17 24 QCURVE SMOOTH",
"-24 24 OFFCURVE",
"-24 5 QCURVE SMOOTH",
"-24 -1 OFFCURVE",
"-22 -3 QCURVE",
"-6 -2 OFFCURVE",
"28 0 OFFCURVE",
"57 2 OFFCURVE",
"76 2 QCURVE SMOOTH",
"78 2 OFFCURVE",
"171 -3 QCURVE",
"176 7 OFFCURVE",
"176 18 QCURVE SMOOTH",
"176 24 OFFCURVE",
"174 24 QCURVE SMOOTH",
"170 24 OFFCURVE",
"147 28 OFFCURVE",
"119 44 OFFCURVE",
"119 55 QCURVE SMOOTH",
"119 70 OFFCURVE",
"165 164 OFFCURVE",
"213 244 OFFCURVE",
"216 244 QCURVE SMOOTH",
"288 249 OFFCURVE",
"309 249 QCURVE SMOOTH",
"328 249 OFFCURVE",
"357 249 OFFCURVE",
"378 248 OFFCURVE",
"393 247 OFFCURVE",
"402 246 OFFCURVE",
"407 245 OFFCURVE",
"410 242 OFFCURVE",
"410 241 OFFCURVE",
"410 239 QCURVE SMOOTH",
"428 108 OFFCURVE"
);
},
{
closed = 1;
nodes = (
"246 299 QCURVE SMOOTH",
"245 299 OFFCURVE",
"245 303 OFFCURVE",
"368 526 QCURVE",
"371 505 OFFCURVE",
"388 393 OFFCURVE",
"401 309 OFFCURVE",
"401 304 QCURVE SMOOTH",
"401 300 OFFCURVE",
"397 300 QCURVE SMOOTH",
"368 298 OFFCURVE",
"322 298 QCURVE SMOOTH",
"269 298 OFFCURVE"
);
}
);
};
layerId = "02396921-8257-42A3-8ED5-3052446F9CE3";
paths = (
{
closed = 1;
nodes = (
"8 -1 OFFCURVE",
"41 4 OFFCURVE",
"76 2 CURVE SMOOTH",
"171 -3 LINE",
"174 4 OFFCURVE",
"176 11 OFFCURVE",
"176 18 CURVE SMOOTH",
"176 22 OFFCURVE",
"175 24 OFFCURVE",
"174 24 CURVE SMOOTH",
"156 24 OFFCURVE",
"119 35 OFFCURVE",
"119 55 CURVE SMOOTH",
"119 87 OFFCURVE",
"208 243 OFFCURVE",
"216 244 CURVE SMOOTH",
"264 248 OFFCURVE",
"295 249 OFFCURVE",
"309 249 CURVE SMOOTH",
"360 249 OFFCURVE",
"381 248 OFFCURVE",
"398 247 CURVE SMOOTH",
"406 246 OFFCURVE",
"410 245 OFFCURVE",
"410 239 CURVE",
"422 152 OFFCURVE",
"428 102 OFFCURVE",
"428 91 CURVE SMOOTH",
"428 70 OFFCURVE",
"426 54 OFFCURVE",
"421 44 CURVE SMOOTH",
"414 33 OFFCURVE",
"383 24 OFFCURVE",
"370 24 CURVE SMOOTH",
"365 24 OFFCURVE",
"363 17 OFFCURVE",
"363 3 CURVE SMOOTH",
"363 0 OFFCURVE",
"363 -2 OFFCURVE",
"364 -3 CURVE",
"389 -1 OFFCURVE",
"425 2 OFFCURVE",
"471 2 CURVE SMOOTH",
"478 2 OFFCURVE",
"513 0 OFFCURVE",
"575 -3 CURVE",
"578 4 OFFCURVE",
"580 11 OFFCURVE",
"580 19 CURVE SMOOTH",
"580 22 OFFCURVE",
"579 24 OFFCURVE",
"578 24 CURVE SMOOTH",
"565 24 OFFCURVE",
"523 40 OFFCURVE",
"520 60 CURVE SMOOTH",
"508 132 LINE",
"425 660 LINE",
"422 661 OFFCURVE",
"420 662 OFFCURVE",
"417 662 CURVE SMOOTH",
"401 662 OFFCURVE",
"388 653 OFFCURVE",
"378 635 CURVE SMOOTH",
"102 139 LINE SMOOTH",
"76 92 OFFCURVE",
"56 61 OFFCURVE",
"41 45 CURVE SMOOTH",
"30 33 OFFCURVE",
"-2 24 OFFCURVE",
"-17 24 CURVE SMOOTH",
"-22 24 OFFCURVE",
"-24 18 OFFCURVE",
"-24 5 CURVE SMOOTH",
"-24 1 OFFCURVE",
"-23 -2 OFFCURVE",
"-22 -3 CURVE"
);
},
{
closed = 1;
nodes = (
"245 299 OFFCURVE",
"245 300 OFFCURVE",
"245 301 CURVE SMOOTH",
"245 302 OFFCURVE",
"286 377 OFFCURVE",
"368 526 CURVE",
"380 442 OFFCURVE",
"392 368 OFFCURVE",
"401 304 CURVE SMOOTH",
"401 301 OFFCURVE",
"400 300 OFFCURVE",
"397 300 CURVE SMOOTH",
"362 298 OFFCURVE",
"279 298 OFFCURVE",
"246 299 CURVE SMOOTH"
);
}
);
width = 619;
},
{
anchors = (
{
name = bottom;
position = "{282, 0}";
},
{
name = ogonek;
position = "{543, 10}";
},
{
name = top;
position = "{449, 658}";
}
);
background = {
paths = (
{
closed = 1;
nodes = (
"399 231 OFFCURVE",
"417 228 QCURVE",
"422 228 OFFCURVE",
"422 223 QCURVE",
"442 89 OFFCURVE",
"442 80 QCURVE SMOOTH",
"442 62 OFFCURVE",
"436 50 QCURVE",
"431 42 OFFCURVE",
"391 27 OFFCURVE",
"381 27 QCURVE SMOOTH",
"375 27 OFFCURVE",
"375 3 QCURVE SMOOTH",
"375 -2 OFFCURVE",
"376 -3 QCURVE",
"490 3 OFFCURVE",
"501 3 QCURVE SMOOTH",
"504 3 OFFCURVE",
"615 -3 QCURVE",
"619 5 OFFCURVE",
"619 21 QCURVE SMOOTH",
"619 27 OFFCURVE",
"617 27 QCURVE SMOOTH",
"607 27 OFFCURVE",
"566 48 OFFCURVE",
"563 63 QCURVE SMOOTH",
"552 120 OFFCURVE",
"549 136 QCURVE SMOOTH",
"455 660 LINE",
"451 664 OFFCURVE",
"445 664 QCURVE SMOOTH",
"424 664 OFFCURVE",
"393 610 QCURVE SMOOTH",
"116 136 LINE SMOOTH",
"80 75 OFFCURVE",
"66 58 QCURVE",
"58 47 OFFCURVE",
"5 27 OFFCURVE",
"-6 27 QCURVE SMOOTH",
"-12 27 OFFCURVE",
"-12 4 QCURVE SMOOTH",
"-12 1 OFFCURVE",
"-10 -3 QCURVE",
"3 -2 OFFCURVE",
"74 3 OFFCURVE",
"99 3 QCURVE SMOOTH",
"123 3 OFFCURVE",
"180 -2 OFFCURVE",
"191 -3 QCURVE",
"197 9 OFFCURVE",
"197 22 QCURVE SMOOTH",
"197 27 OFFCURVE",
"195 27 QCURVE SMOOTH",
"183 27 OFFCURVE",
"135 44 OFFCURVE",
"135 60 QCURVE SMOOTH",
"135 79 OFFCURVE",
"166 131 QCURVE SMOOTH",
"173 143 OFFCURVE",
"218 215 OFFCURVE",
"223 224 QCURVE",
"225 228 OFFCURVE",
"229 228 QCURVE",
"286 231 OFFCURVE",
"323 231 QCURVE SMOOTH"
);
},
{
closed = 1;
nodes = (
"293 285 OFFCURVE",
"263 288 QCURVE",
"263 290 LINE",
"378 492 LINE",
"380 478 OFFCURVE",
"408 312 OFFCURVE",
"411 292 QCURVE",
"411 288 OFFCURVE",
"407 288 QCURVE",
"364 285 OFFCURVE",
"335 285 QCURVE SMOOTH"
);
}
);
};
layerId = "B85C165C-5F8F-4735-B7B6-8DF6357F77F6";
paths = (
{
closed = 1;
nodes = (
"7 -2 OFFCURVE",
"66 3 OFFCURVE",
"99 3 CURVE SMOOTH",
"131 3 OFFCURVE",
"176 -2 OFFCURVE",
"191 -3 CURVE",
"195 5 OFFCURVE",
"197 13 OFFCURVE",
"197 22 CURVE SMOOTH",
"197 25 OFFCURVE",
"196 27 OFFCURVE",
"195 27 CURVE SMOOTH",
"179 27 OFFCURVE",
"135 39 OFFCURVE",
"135 60 CURVE SMOOTH",
"135 92 OFFCURVE",
"220 218 OFFCURVE",
"223 224 CURVE SMOOTH",
"224 227 OFFCURVE",
"226 228 OFFCURVE",
"229 228 CURVE SMOOTH",
"267 230 OFFCURVE",
"298 231 OFFCURVE",
"323 231 CURVE SMOOTH",
"374 231 OFFCURVE",
"405 230 OFFCURVE",
"417 228 CURVE SMOOTH",
"420 228 OFFCURVE",
"422 226 OFFCURVE",
"422 223 CURVE SMOOTH",
"435 134 OFFCURVE",
"442 86 OFFCURVE",
"442 80 CURVE SMOOTH",
"442 68 OFFCURVE",
"440 58 OFFCURVE",
"436 50 CURVE SMOOTH",
"429 39 OFFCURVE",
"394 27 OFFCURVE",
"381 27 CURVE SMOOTH",
"377 27 OFFCURVE",
"375 19 OFFCURVE",
"375 3 CURVE SMOOTH",
"375 0 OFFCURVE",
"375 -2 OFFCURVE",
"376 -3 CURVE",
"452 1 OFFCURVE",
"494 3 OFFCURVE",
"501 3 CURVE SMOOTH",
"615 -3 LINE",
"618 2 OFFCURVE",
"619 10 OFFCURVE",
"619 21 CURVE SMOOTH",
"619 25 OFFCURVE",
"618 27 OFFCURVE",
"617 27 CURVE SMOOTH",
"604 27 OFFCURVE",
"567 43 OFFCURVE",
"563 63 CURVE SMOOTH",
"549 136 LINE",
"455 660 LINE",
"452 663 OFFCURVE",
"449 664 OFFCURVE",
"445 664 CURVE SMOOTH",
"431 664 OFFCURVE",
"414 646 OFFCURVE",
"393 610 CURVE SMOOTH",
"116 136 LINE SMOOTH",
"92 95 OFFCURVE",
"75 69 OFFCURVE",
"66 58 CURVE SMOOTH",
"55 43 OFFCURVE",
"9 27 OFFCURVE",
"-6 27 CURVE SMOOTH",
"-10 27 OFFCURVE",
"-12 19 OFFCURVE",
"-12 4 CURVE SMOOTH",
"-12 2 OFFCURVE",
"-11 0 OFFCURVE",
"-10 -3 CURVE"
);
},
{
closed = 1;
nodes = (
"307 285 OFFCURVE",
"282 286 OFFCURVE",
"262 288 CURVE",
"378 492 LINE",
"379 483 OFFCURVE",
"385 450 OFFCURVE",
"394 395 CURVE SMOOTH",
"411 292 LINE",
"411 289 OFFCURVE",
"410 288 OFFCURVE",
"407 288 CURVE SMOOTH",
"378 286 OFFCURVE",
"354 285 OFFCURVE",
"335 285 CURVE SMOOTH"
);
}
);
width = 648;
},
{
anchors = (
{
name = bottom;
position = "{317, 0}";
},
{
name = ogonek;
position = "{571, 13}";
},
{
name = top;
position = "{429, 658}";
}
);
background = {
paths = (
{
closed = 1;
nodes = (
"340.667 213 OFFCURVE",
"371 212.333 OFFCURVE",
"395 211 CURVE",
"399 211 OFFCURVE",
"401 209.667 OFFCURVE",
"401 207 CURVE",
"415.667 121 OFFCURVE",
"423 75 OFFCURVE",
"423 69 CURVE SMOOTH",
"423 64.333 OFFCURVE",
"421.333 59.667 OFFCURVE",
"418 55 CURVE",
"389.753 22.717 OFFCURVE",
"359 50.253 OFFCURVE",
"359 3 CURVE SMOOTH",
"359 -1 OFFCURVE",
"359.333 -3.333 OFFCURVE",
"360 -4 CURVE",
"439.333 0.667 OFFCURVE",
"485.333 3 OFFCURVE",
"498 3 CURVE SMOOTH",
"514 3 OFFCURVE",
"537.833 1.833 OFFCURVE",
"569.5 -0.5 CURVE SMOOTH",
"601.167 -2.833 OFFCURVE",
"618 -4 OFFCURVE",
"620 -4 CURVE",
"624.667 2 OFFCURVE",
"627 11.667 OFFCURVE",
"627 25 CURVE SMOOTH",
"627 28.333 OFFCURVE",
"626.333 30 OFFCURVE",
"625 30 CURVE SMOOTH",
"610.333 30 OFFCURVE",
"569 44.667 OFFCURVE",
"565 66 CURVE SMOOTH",
"558.333 98.667 OFFCURVE",
"553.667 123.667 OFFCURVE",
"551 141 CURVE",
"446 659 LINE",
"444 664.333 OFFCURVE",
"440 667 OFFCURVE",
"434 667 CURVE SMOOTH",
"426 667 OFFCURVE",
"416.833 659.833 OFFCURVE",
"405.5 644.5 CURVE SMOOTH",
"399.833 636.833 OFFCURVE",
"395.333 630.5 OFFCURVE",
"392 625.5 CURVE SMOOTH",
"388.667 620.5 OFFCURVE",
"380.667 607.333 OFFCURVE",
"368 586 CURVE SMOOTH",
"96 134 LINE SMOOTH",
"76 100.667 OFFCURVE",
"63 79.667 OFFCURVE",
"57 71 CURVE",
"45 55 OFFCURVE",
"-14.667 30 OFFCURVE",
"-28 30 CURVE SMOOTH",
"-31.333 30 OFFCURVE",
"-33 21.333 OFFCURVE",
"-33 4 CURVE SMOOTH",
"-33 0 OFFCURVE",
"-32.667 -2.667 OFFCURVE",
"-32 -4 CURVE",
"-22.667 -3.333 OFFCURVE",
"-4.833 -2 OFFCURVE",
"21.5 0 CURVE SMOOTH",
"47.833 2 OFFCURVE",
"69.333 3 OFFCURVE",
"86 3 CURVE SMOOTH",
"102 3 OFFCURVE",
"120.667 2 OFFCURVE",
"142 0 CURVE SMOOTH",
"163.333 -2 OFFCURVE",
"178 -3.333 OFFCURVE",
"186 -4 CURVE",
"189.333 2.667 OFFCURVE",
"191 12.667 OFFCURVE",
"191 26 CURVE SMOOTH",
"191 28.667 OFFCURVE",
"190.333 30 OFFCURVE",
"189 30 CURVE SMOOTH",
"124.335 30 OFFCURVE",
"103.25 51.189 OFFCURVE",
"157 131 CURVE",
"202 207 LINE",
"203.333 208.333 OFFCURVE",
"215 212 OFFCURVE",
"219 212 CURVE SMOOTH",
"241 212.667 OFFCURVE",
"269.333 213 OFFCURVE",
"304 213 CURVE SMOOTH"
);
},
{
closed = 1;
nodes = (
"288.667 273 OFFCURVE",
"266 274 OFFCURVE",
"248 276 CURVE",
"246.667 276 OFFCURVE",
"245.667 278.667 OFFCURVE",
"247 280 CURVE",
"355 458 LINE",
"387 280 LINE",
"387 276.667 OFFCURVE",
"385.667 275 OFFCURVE",
"383 275 CURVE",
"363.667 273.667 OFFCURVE",
"341.333 273 OFFCURVE",
"316 273 CURVE SMOOTH"
);
}
);
};
layerId = "C43979EA-9F64-4F78-971C-933464F87A97";
paths = (
{
closed = 1;
nodes = (
"-15 -3 OFFCURVE",
"69 3 OFFCURVE",
"86 3 CURVE SMOOTH",
"102 3 OFFCURVE",
"178 -3 OFFCURVE",
"186 -4 CURVE",
"189 3 OFFCURVE",
"191 13 OFFCURVE",
"191 26 CURVE SMOOTH",
"191 29 OFFCURVE",
"190 30 OFFCURVE",
"189 30 CURVE SMOOTH",
"124 30 OFFCURVE",
"103 51 OFFCURVE",
"157 131 CURVE",
"202 207 LINE",
"203 208 OFFCURVE",
"215 212 OFFCURVE",
"219 212 CURVE SMOOTH",
"241 213 OFFCURVE",
"269 213 OFFCURVE",
"304 213 CURVE SMOOTH",
"341 213 OFFCURVE",
"371 212 OFFCURVE",
"395 211 CURVE SMOOTH",
"399 211 OFFCURVE",
"401 210 OFFCURVE",
"401 207 CURVE",
"416 121 OFFCURVE",
"423 75 OFFCURVE",
"423 69 CURVE SMOOTH",
"423 64 OFFCURVE",
"422 59 OFFCURVE",
"415 52 CURVE SMOOTH",
"390 23 OFFCURVE",
"359 50 OFFCURVE",
"359 3 CURVE SMOOTH",
"359 -1 OFFCURVE",
"359 -3 OFFCURVE",
"360 -4 CURVE",
"439 1 OFFCURVE",
"485 3 OFFCURVE",
"498 3 CURVE SMOOTH",
"514 3 OFFCURVE",
"538 1 OFFCURVE",
"570 -1 CURVE SMOOTH",
"620 -4 LINE",
"625 2 OFFCURVE",
"627 12 OFFCURVE",
"627 25 CURVE SMOOTH",
"627 28 OFFCURVE",
"626 30 OFFCURVE",
"625 30 CURVE SMOOTH",
"610 30 OFFCURVE",
"569 45 OFFCURVE",
"565 66 CURVE SMOOTH",
"558 99 OFFCURVE",
"554 124 OFFCURVE",
"551 141 CURVE SMOOTH",
"446 659 LINE",
"444 664 OFFCURVE",
"440 667 OFFCURVE",
"434 667 CURVE SMOOTH",
"426 667 OFFCURVE",
"417 660 OFFCURVE",
"406 645 CURVE SMOOTH",
"400 637 OFFCURVE",
"395 631 OFFCURVE",
"392 626 CURVE SMOOTH",
"96 134 LINE SMOOTH",
"76 101 OFFCURVE",
"63 80 OFFCURVE",
"57 71 CURVE SMOOTH",
"45 55 OFFCURVE",
"-15 30 OFFCURVE",
"-28 30 CURVE SMOOTH",
"-31 30 OFFCURVE",
"-33 21 OFFCURVE",
"-33 4 CURVE SMOOTH",
"-33 0 OFFCURVE",
"-33 -3 OFFCURVE",
"-32 -4 CURVE"
);
},
{
closed = 1;
nodes = (
"289 273 OFFCURVE",
"266 274 OFFCURVE",
"248 276 CURVE SMOOTH",
"247 276 OFFCURVE",
"246 279 OFFCURVE",
"247 280 CURVE",
"355 458 LINE",
"387 280 LINE",
"387 277 OFFCURVE",
"386 275 OFFCURVE",
"383 275 CURVE SMOOTH",
"364 274 OFFCURVE",
"341 273 OFFCURVE",
"316 273 CURVE SMOOTH"
);
}
);
width = 656;
}
);
leftKerningGroup = A;
note = A;
rightKerningGroup = A;
unicode = 0041;
},
{
color = 10;
glyphname = Aacute;
lastChange = "2022-03-10 16:51:15 +0000";
layers = (
{
background = {
paths = (
{
closed = 1;
nodes = (
"582 768 OFFCURVE",
"582 785 QCURVE SMOOTH",
"582 794 OFFCURVE",
"551 809 OFFCURVE",
"524 809 QCURVE SMOOTH",
"513 809 OFFCURVE",
"507 807 QCURVE",
"484 792 OFFCURVE",
"408 727 OFFCURVE",
"408 721 QCURVE SMOOTH",
"408 711 OFFCURVE",
"421 711 QCURVE SMOOTH",
"440 711 OFFCURVE"
);
},
{
closed = 1;
nodes = (
"454 91 QCURVE SMOOTH",
"454 59 OFFCURVE",
"447 44 QCURVE SMOOTH",
"442 36 OFFCURVE",
"406 24 OFFCURVE",
"396 24 QCURVE SMOOTH",
"389 24 OFFCURVE",
"389 3 QCURVE SMOOTH",
"389 -2 OFFCURVE",
"390 -3 QCURVE",
"405 -2 OFFCURVE",
"445 0 OFFCURVE",
"478 2 OFFCURVE",
"497 2 QCURVE SMOOTH",
"508 2 OFFCURVE",
"601 -3 QCURVE",
"606 7 OFFCURVE",
"606 19 QCURVE SMOOTH",
"606 24 OFFCURVE",
"604 24 QCURVE SMOOTH",
"594 24 OFFCURVE",
"549 45 OFFCURVE",
"546 60 QCURVE SMOOTH",
"544 69 OFFCURVE",
"534 132 QCURVE SMOOTH",
"451 660 LINE",
"447 662 OFFCURVE",
"443 662 QCURVE SMOOTH",
"419 662 OFFCURVE",
"404 635 QCURVE SMOOTH",
"128 139 LINE SMOOTH",
"89 69 OFFCURVE",
"67 45 QCURVE SMOOTH",
"59 36 OFFCURVE",
"20 24 OFFCURVE",
"9 24 QCURVE SMOOTH",
"2 24 OFFCURVE",
"2 5 QCURVE SMOOTH",
"2 -1 OFFCURVE",
"4 -3 QCURVE",
"20 -2 OFFCURVE",
"54 0 OFFCURVE",
"83 2 OFFCURVE",
"102 2 QCURVE SMOOTH",
"104 2 OFFCURVE",
"197 -3 QCURVE",
"202 7 OFFCURVE",
"202 18 QCURVE SMOOTH",
"202 24 OFFCURVE",
"200 24 QCURVE SMOOTH",
"196 24 OFFCURVE",
"173 28 OFFCURVE",
"145 44 OFFCURVE",
"145 55 QCURVE SMOOTH",
"145 70 OFFCURVE",
"191 164 OFFCURVE",
"239 244 OFFCURVE",
"242 244 QCURVE SMOOTH",
"314 249 OFFCURVE",
"335 249 QCURVE SMOOTH",
"354 249 OFFCURVE",
"383 249 OFFCURVE",
"404 248 OFFCURVE",
"419 247 OFFCURVE",
"428 246 OFFCURVE",
"433 245 OFFCURVE",
"436 242 OFFCURVE",
"436 241 OFFCURVE",
"436 239 QCURVE SMOOTH",
"454 108 OFFCURVE"
);
},
{
closed = 1;
nodes = (
"272 299 QCURVE SMOOTH",
"271 299 OFFCURVE",
"271 303 OFFCURVE",
"394 526 QCURVE",
"397 505 OFFCURVE",
"414 393 OFFCURVE",
"427 309 OFFCURVE",
"427 304 QCURVE SMOOTH",
"427 300 OFFCURVE",
"423 300 QCURVE SMOOTH",
"394 298 OFFCURVE",
"348 298 QCURVE SMOOTH",
"295 298 OFFCURVE"
);
}
);
};
components = (
{
name = A;
},
{
name = acutecomb.case;
transform = "{1, 0, 0, 1, 316, 228}";
}
);
layerId = "02396921-8257-42A3-8ED5-3052446F9CE3";
width = 619;
},
{
background = {
paths = (
{
closed = 1;
nodes = (
"434 715 OFFCURVE",
"595 774 OFFCURVE",
"595 792 QCURVE SMOOTH",
"595 807 OFFCURVE",
"556 823 OFFCURVE",
"530 823 QCURVE SMOOTH",
"516 823 OFFCURVE",
"506 818 QCURVE",
"479 802 OFFCURVE",
"401 736 OFFCURVE",
"401 730 QCURVE SMOOTH",
"401 725 OFFCURVE",
"410 715 OFFCURVE",
"414 715 QCURVE SMOOTH"
);
},
{
closed = 1;
nodes = (
"399 231 OFFCURVE",
"417 228 QCURVE",
"422 228 OFFCURVE",
"422 223 QCURVE",
"442 89 OFFCURVE",
"442 80 QCURVE SMOOTH",
"442 62 OFFCURVE",
"436 50 QCURVE",
"431 42 OFFCURVE",
"391 27 OFFCURVE",
"381 27 QCURVE SMOOTH",
"375 27 OFFCURVE",
"375 3 QCURVE SMOOTH",
"375 -2 OFFCURVE",
"376 -3 QCURVE",
"490 3 OFFCURVE",
"501 3 QCURVE SMOOTH",
"504 3 OFFCURVE",
"615 -3 QCURVE",
"619 5 OFFCURVE",
"619 21 QCURVE SMOOTH",
"619 27 OFFCURVE",
"617 27 QCURVE SMOOTH",
"607 27 OFFCURVE",
"566 48 OFFCURVE",
"563 63 QCURVE SMOOTH",
"552 120 OFFCURVE",
"549 136 QCURVE SMOOTH",
"455 660 LINE",
"451 664 OFFCURVE",
"445 664 QCURVE SMOOTH",
"424 664 OFFCURVE",
"393 610 QCURVE SMOOTH",
"116 136 LINE SMOOTH",
"80 75 OFFCURVE",
"66 58 QCURVE",
"58 47 OFFCURVE",
"5 27 OFFCURVE",
"-6 27 QCURVE SMOOTH",
"-12 27 OFFCURVE",
"-12 4 QCURVE SMOOTH",
"-12 1 OFFCURVE",
"-10 -3 QCURVE",
"3 -2 OFFCURVE",
"74 3 OFFCURVE",
"99 3 QCURVE SMOOTH",
"123 3 OFFCURVE",
"180 -2 OFFCURVE",
"191 -3 QCURVE",
"197 9 OFFCURVE",
"197 22 QCURVE SMOOTH",
"197 27 OFFCURVE",
"195 27 QCURVE SMOOTH",
"183 27 OFFCURVE",
"135 44 OFFCURVE",
"135 60 QCURVE SMOOTH",
"135 79 OFFCURVE",
"166 131 QCURVE SMOOTH",
"173 143 OFFCURVE",
"218 215 OFFCURVE",
"223 224 QCURVE",
"225 228 OFFCURVE",
"229 228 QCURVE",
"286 231 OFFCURVE",
"323 231 QCURVE SMOOTH"
);
},
{
closed = 1;
nodes = (
"293 285 OFFCURVE",
"263 288 QCURVE",
"263 290 LINE",
"378 492 LINE",
"380 478 OFFCURVE",
"408 312 OFFCURVE",
"411 292 QCURVE",
"411 288 OFFCURVE",
"407 288 QCURVE",
"364 285 OFFCURVE",
"335 285 QCURVE SMOOTH"
);
}
);
};
components = (
{
name = A;
},
{
name = acutecomb.case;
transform = "{1, 0, 0, 1, 301, 228}";
}
);
layerId = "B85C165C-5F8F-4735-B7B6-8DF6357F77F6";
width = 648;
},
{
background = {
paths = (
{
closed = 1;
nodes = (
"454 715 OFFCURVE",
"626 771 OFFCURVE",
"626 795 CURVE SMOOTH",
"626 822 OFFCURVE",
"588 833 OFFCURVE",
"556 833 CURVE SMOOTH",
"544 833 OFFCURVE",
"533 830 OFFCURVE",
"524 825 CURVE SMOOTH",
"502 813 OFFCURVE",
"413 745 OFFCURVE",
"413 734 CURVE SMOOTH",
"413 727 OFFCURVE",
"420 715 OFFCURVE",
"427 715 CURVE SMOOTH"
);
},
{
closed = 1;
nodes = (
"340.667 213 OFFCURVE",
"371 212.333 OFFCURVE",
"395 211 CURVE",
"399 211 OFFCURVE",
"401 209.667 OFFCURVE",
"401 207 CURVE",
"415.667 121 OFFCURVE",
"423 75 OFFCURVE",
"423 69 CURVE SMOOTH",
"423 64.333 OFFCURVE",
"421.333 59.667 OFFCURVE",
"418 55 CURVE",
"389.753 22.717 OFFCURVE",
"359 50.253 OFFCURVE",
"359 3 CURVE SMOOTH",
"359 -1 OFFCURVE",
"359.333 -3.333 OFFCURVE",
"360 -4 CURVE",
"439.333 0.667 OFFCURVE",
"485.333 3 OFFCURVE",
"498 3 CURVE SMOOTH",
"514 3 OFFCURVE",
"537.833 1.833 OFFCURVE",
"569.5 -0.5 CURVE SMOOTH",
"601.167 -2.833 OFFCURVE",
"618 -4 OFFCURVE",
"620 -4 CURVE",
"624.667 2 OFFCURVE",
"627 11.667 OFFCURVE",
"627 25 CURVE SMOOTH",
"627 28.333 OFFCURVE",
"626.333 30 OFFCURVE",
"625 30 CURVE SMOOTH",
"610.333 30 OFFCURVE",
"569 44.667 OFFCURVE",
"565 66 CURVE SMOOTH",
"558.333 98.667 OFFCURVE",
"553.667 123.667 OFFCURVE",
"551 141 CURVE",
"446 659 LINE",
"444 664.333 OFFCURVE",
"440 667 OFFCURVE",
"434 667 CURVE SMOOTH",
"426 667 OFFCURVE",
"416.833 659.833 OFFCURVE",
"405.5 644.5 CURVE SMOOTH",
"399.833 636.833 OFFCURVE",
"395.333 630.5 OFFCURVE",
"392 625.5 CURVE SMOOTH",
"388.667 620.5 OFFCURVE",
"380.667 607.333 OFFCURVE",
"368 586 CURVE SMOOTH",
"96 134 LINE SMOOTH",
"76 100.667 OFFCURVE",
"63 79.667 OFFCURVE",
"57 71 CURVE",
"45 55 OFFCURVE",
"-14.667 30 OFFCURVE",
"-28 30 CURVE SMOOTH",
"-31.333 30 OFFCURVE",
"-33 21.333 OFFCURVE",
"-33 4 CURVE SMOOTH",
"-33 0 OFFCURVE",
"-32.667 -2.667 OFFCURVE",
"-32 -4 CURVE",
"-22.667 -3.333 OFFCURVE",
"-4.833 -2 OFFCURVE",
"21.5 0 CURVE SMOOTH",
"47.833 2 OFFCURVE",
"69.333 3 OFFCURVE",
"86 3 CURVE SMOOTH",
"102 3 OFFCURVE",
"120.667 2 OFFCURVE",
"142 0 CURVE SMOOTH",
"163.333 -2 OFFCURVE",
"178 -3.333 OFFCURVE",
"186 -4 CURVE",
"189.333 2.667 OFFCURVE",
"191 12.667 OFFCURVE",
"191 26 CURVE SMOOTH",
"191 28.667 OFFCURVE",
"190.333 30 OFFCURVE",
"189 30 CURVE SMOOTH",
"124.335 30 OFFCURVE",
"103.25 51.189 OFFCURVE",
"157 131 CURVE",
"202 207 LINE",
"203.333 208.333 OFFCURVE",
"215 212 OFFCURVE",
"219 212 CURVE SMOOTH",
"241 212.667 OFFCURVE",
"269.333 213 OFFCURVE",
"304 213 CURVE SMOOTH"
);
},
{
closed = 1;
nodes = (
"288.667 273 OFFCURVE",
"266 274 OFFCURVE",
"248 276 CURVE",
"246.667 276 OFFCURVE",
"245.667 278.667 OFFCURVE",
"247 280 CURVE",
"355 458 LINE",
"387 280 LINE",
"387 276.667 OFFCURVE",
"385.667 275 OFFCURVE",
"383 275 CURVE",
"363.667 273.667 OFFCURVE",
"341.333 273 OFFCURVE",
"316 273 CURVE SMOOTH"
);
}
);
};
components = (
{
name = A;
},
{
name = acutecomb.case;
transform = "{1, 0, 0, 1, 318, 228}";
}
);
layerId = "C43979EA-9F64-4F78-971C-933464F87A97";
width = 656;
}
);
leftKerningGroup = A;
note = Aacute;
rightKerningGroup = A;
unicode = 00C1;
},
{
color = 10;
glyphname = Abreve;
lastChange = "2022-03-10 16:51:15 +0000";
layers = (
{
background = {
paths = (
{
closed = 1;
nodes = (
"398 846 QCURVE SMOOTH",
"398 849 OFFCURVE",
"395 849 QCURVE SMOOTH",
"390 849 OFFCURVE",
"377 840 OFFCURVE",
"376 836 QCURVE SMOOTH",
"375 833 LINE",
"375 830 OFFCURVE",
"375 829 QCURVE SMOOTH",
"373 786 OFFCURVE",
"419 728 OFFCURVE",
"493 728 OFFCURVE",
"561 787 OFFCURVE",
"576 828 QCURVE",
"576 829 OFFCURVE",
"577 832 QCURVE SMOOTH",
"578 836 LINE SMOOTH",
"579 840 OFFCURVE",
"569 849 OFFCURVE",
"564 849 QCURVE SMOOTH",
"560 849 OFFCURVE",
"560 846 QCURVE",
"546 814 OFFCURVE",
"494 774 OFFCURVE",
"436 774 OFFCURVE",
"399 814 OFFCURVE"
);
},
{
closed = 1;
nodes = (
"454 91 QCURVE SMOOTH",
"454 59 OFFCURVE",
"447 44 QCURVE SMOOTH",
"442 36 OFFCURVE",
"406 24 OFFCURVE",
"396 24 QCURVE SMOOTH",
"389 24 OFFCURVE",
"389 3 QCURVE SMOOTH",
"389 -2 OFFCURVE",
"390 -3 QCURVE",
"405 -2 OFFCURVE",
"445 0 OFFCURVE",
"478 2 OFFCURVE",
"497 2 QCURVE SMOOTH",
"508 2 OFFCURVE",
"601 -3 QCURVE",
"606 7 OFFCURVE",
"606 19 QCURVE SMOOTH",
"606 24 OFFCURVE",
"604 24 QCURVE SMOOTH",
"594 24 OFFCURVE",
"549 45 OFFCURVE",
"546 60 QCURVE SMOOTH",
"544 69 OFFCURVE",
"534 132 QCURVE SMOOTH",
"451 660 LINE",
"447 662 OFFCURVE",
"443 662 QCURVE SMOOTH",
"419 662 OFFCURVE",
"404 635 QCURVE SMOOTH",
"128 139 LINE SMOOTH",
"89 69 OFFCURVE",
"67 45 QCURVE SMOOTH",
"59 36 OFFCURVE",
"20 24 OFFCURVE",
"9 24 QCURVE SMOOTH",
"2 24 OFFCURVE",
"2 5 QCURVE SMOOTH",
"2 -1 OFFCURVE",
"4 -3 QCURVE",
"20 -2 OFFCURVE",
"54 0 OFFCURVE",
"83 2 OFFCURVE",
"102 2 QCURVE SMOOTH",
"104 2 OFFCURVE",
"197 -3 QCURVE",
"202 7 OFFCURVE",
"202 18 QCURVE SMOOTH",
"202 24 OFFCURVE",
"200 24 QCURVE SMOOTH",
"196 24 OFFCURVE",
"173 28 OFFCURVE",
"145 44 OFFCURVE",
"145 55 QCURVE SMOOTH",
"145 70 OFFCURVE",
"191 164 OFFCURVE",
"239 244 OFFCURVE",
"242 244 QCURVE SMOOTH",
"314 249 OFFCURVE",
"335 249 QCURVE SMOOTH",
"354 249 OFFCURVE",
"383 249 OFFCURVE",
"404 248 OFFCURVE",
"419 247 OFFCURVE",
"428 246 OFFCURVE",
"433 245 OFFCURVE",
"436 242 OFFCURVE",
"436 241 OFFCURVE",
"436 239 QCURVE SMOOTH",
"454 108 OFFCURVE"
);
},
{
closed = 1;
nodes = (
"272 299 QCURVE SMOOTH",
"271 299 OFFCURVE",
"271 303 OFFCURVE",
"394 526 QCURVE",
"397 505 OFFCURVE",
"414 393 OFFCURVE",
"427 309 OFFCURVE",
"427 304 QCURVE SMOOTH",
"427 300 OFFCURVE",
"423 300 QCURVE SMOOTH",
"394 298 OFFCURVE",
"348 298 QCURVE SMOOTH",
"295 298 OFFCURVE"
);
}
);
};
components = (
{
name = A;
},
{
name = brevecomb.case;
transform = "{1, 0, 0, 1, 244, 228}";
}
);
layerId = "02396921-8257-42A3-8ED5-3052446F9CE3";
width = 619;
},
{
background = {
paths = (
{
closed = 1;
nodes = (
"393 836 OFFCURVE",
"390 836 QCURVE",
"385 835 OFFCURVE",
"366 820 OFFCURVE",
"366 816 QCURVE SMOOTH",
"366 815 OFFCURVE",
"367 810 OFFCURVE",
"367 809 QCURVE",
"373 773 OFFCURVE",
"419 728 OFFCURVE",
"452 728 QCURVE SMOOTH",
"484 728 OFFCURVE",
"548 774 OFFCURVE",
"568 809 QCURVE",
"568 810 OFFCURVE",
"570 815 OFFCURVE",
"570 816 QCURVE",
"571 820 OFFCURVE",
"561 835 OFFCURVE",
"556 836 QCURVE",
"550 836 OFFCURVE",
"550 834 QCURVE",
"537 812 OFFCURVE",
"487 782 OFFCURVE",
"437 782 OFFCURVE",
"398 812 OFFCURVE",
"393 834 QCURVE"
);
},
{
closed = 1;
nodes = (
"399 231 OFFCURVE",
"417 228 QCURVE",
"422 228 OFFCURVE",
"422 223 QCURVE",
"442 89 OFFCURVE",
"442 80 QCURVE SMOOTH",
"442 62 OFFCURVE",
"436 50 QCURVE",
"431 42 OFFCURVE",
"391 27 OFFCURVE",
"381 27 QCURVE SMOOTH",
"375 27 OFFCURVE",
"375 3 QCURVE SMOOTH",
"375 -2 OFFCURVE",
"376 -3 QCURVE",
"490 3 OFFCURVE",
"501 3 QCURVE SMOOTH",
"504 3 OFFCURVE",
"615 -3 QCURVE",
"619 5 OFFCURVE",
"619 21 QCURVE SMOOTH",
"619 27 OFFCURVE",
"617 27 QCURVE SMOOTH",
"607 27 OFFCURVE",
"566 48 OFFCURVE",
"563 63 QCURVE SMOOTH",
"552 120 OFFCURVE",
"549 136 QCURVE SMOOTH",
"455 660 LINE",
"451 664 OFFCURVE",
"445 664 QCURVE SMOOTH",
"424 664 OFFCURVE",
"393 610 QCURVE SMOOTH",
"116 136 LINE SMOOTH",
"80 75 OFFCURVE",
"66 58 QCURVE",
"58 47 OFFCURVE",
"5 27 OFFCURVE",
"-6 27 QCURVE SMOOTH",
"-12 27 OFFCURVE",
"-12 4 QCURVE SMOOTH",
"-12 1 OFFCURVE",
"-10 -3 QCURVE",
"3 -2 OFFCURVE",
"74 3 OFFCURVE",
"99 3 QCURVE SMOOTH",
"123 3 OFFCURVE",
"180 -2 OFFCURVE",
"191 -3 QCURVE",
"197 9 OFFCURVE",
"197 22 QCURVE SMOOTH",
"197 27 OFFCURVE",
"195 27 QCURVE SMOOTH",
"183 27 OFFCURVE",
"135 44 OFFCURVE",
"135 60 QCURVE SMOOTH",
"135 79 OFFCURVE",
"166 131 QCURVE SMOOTH",
"173 143 OFFCURVE",
"218 215 OFFCURVE",
"223 224 QCURVE",
"225 228 OFFCURVE",
"229 228 QCURVE",
"286 231 OFFCURVE",
"323 231 QCURVE SMOOTH"
);
},
{
closed = 1;
nodes = (
"293 285 OFFCURVE",
"263 288 QCURVE",
"263 290 LINE",
"378 492 LINE",
"380 478 OFFCURVE",
"408 312 OFFCURVE",
"411 292 QCURVE",
"411 288 OFFCURVE",
"407 288 QCURVE",
"364 285 OFFCURVE",
"335 285 QCURVE SMOOTH"
);
}
);
};
components = (
{
name = A;
},
{
name = brevecomb.case;
transform = "{1, 0, 0, 1, 293, 228}";
}
);
layerId = "B85C165C-5F8F-4735-B7B6-8DF6357F77F6";
width = 648;
},
{
background = {
paths = (
{
closed = 1;
nodes = (
"388 836 OFFCURVE",
"386 837 OFFCURVE",
"385 836 CURVE",
"374 832 OFFCURVE",
"354 810 OFFCURVE",
"359 800 CURVE",
"376 752 OFFCURVE",
"405 728 OFFCURVE",
"445 728 CURVE SMOOTH",
"485 728 OFFCURVE",
"523 752 OFFCURVE",
"559 800 CURVE",
"560 801 OFFCURVE",
"560 802 OFFCURVE",
"561 804 CURVE SMOOTH",
"562 805 OFFCURVE",
"562 806 OFFCURVE",
"563 807 CURVE",
"566 814 OFFCURVE",
"552 833 OFFCURVE",
"547 836 CURVE",
"545 837 OFFCURVE",
"543 837 OFFCURVE",
"542 834 CURVE",
"492 777 OFFCURVE",
"418 772 OFFCURVE",
"389 834 CURVE"
);
},
{
closed = 1;
nodes = (
"340.667 213 OFFCURVE",
"371 212.333 OFFCURVE",
"395 211 CURVE",
"399 211 OFFCURVE",
"401 209.667 OFFCURVE",
"401 207 CURVE",
"415.667 121 OFFCURVE",
"423 75 OFFCURVE",
"423 69 CURVE SMOOTH",
"423 64.333 OFFCURVE",
"421.333 59.667 OFFCURVE",
"418 55 CURVE",
"389.753 22.717 OFFCURVE",
"359 50.253 OFFCURVE",
"359 3 CURVE SMOOTH",
"359 -1 OFFCURVE",
"359.333 -3.333 OFFCURVE",
"360 -4 CURVE",
"439.333 0.667 OFFCURVE",
"485.333 3 OFFCURVE",
"498 3 CURVE SMOOTH",
"514 3 OFFCURVE",
"537.833 1.833 OFFCURVE",
"569.5 -0.5 CURVE SMOOTH",
"601.167 -2.833 OFFCURVE",
"618 -4 OFFCURVE",
"620 -4 CURVE",
"624.667 2 OFFCURVE",
"627 11.667 OFFCURVE",
"627 25 CURVE SMOOTH",
"627 28.333 OFFCURVE",
"626.333 30 OFFCURVE",
"625 30 CURVE SMOOTH",
"610.333 30 OFFCURVE",
"569 44.667 OFFCURVE",
"565 66 CURVE SMOOTH",
"558.333 98.667 OFFCURVE",
"553.667 123.667 OFFCURVE",
"551 141 CURVE",
"446 659 LINE",
"444 664.333 OFFCURVE",
"440 667 OFFCURVE",
"434 667 CURVE SMOOTH",
"426 667 OFFCURVE",
"416.833 659.833 OFFCURVE",
"405.5 644.5 CURVE SMOOTH",
"399.833 636.833 OFFCURVE",
"395.333 630.5 OFFCURVE",
"392 625.5 CURVE SMOOTH",
"388.667 620.5 OFFCURVE",
"380.667 607.333 OFFCURVE",
"368 586 CURVE SMOOTH",
"96 134 LINE SMOOTH",
"76 100.667 OFFCURVE",
"63 79.667 OFFCURVE",
"57 71 CURVE",
"45 55 OFFCURVE",
"-14.667 30 OFFCURVE",
"-28 30 CURVE SMOOTH",
"-31.333 30 OFFCURVE",
"-33 21.333 OFFCURVE",
"-33 4 CURVE SMOOTH",
"-33 0 OFFCURVE",
"-32.667 -2.667 OFFCURVE",
"-32 -4 CURVE",
"-22.667 -3.333 OFFCURVE",
"-4.833 -2 OFFCURVE",
"21.5 0 CURVE SMOOTH",
"47.833 2 OFFCURVE",
"69.333 3 OFFCURVE",
"86 3 CURVE SMOOTH",
"102 3 OFFCURVE",
"120.667 2 OFFCURVE",
"142 0 CURVE SMOOTH",
"163.333 -2 OFFCURVE",
"178 -3.333 OFFCURVE",
"186 -4 CURVE",
"189.333 2.667 OFFCURVE",
"191 12.667 OFFCURVE",
"191 26 CURVE SMOOTH",
"191 28.667 OFFCURVE",
"190.333 30 OFFCURVE",
"189 30 CURVE SMOOTH",
"124.335 30 OFFCURVE",
"103.25 51.189 OFFCURVE",
"157 131 CURVE",
"202 207 LINE",
"203.333 208.333 OFFCURVE",
"215 212 OFFCURVE",
"219 212 CURVE SMOOTH",
"241 212.667 OFFCURVE",
"269.333 213 OFFCURVE",
"304 213 CURVE SMOOTH"
);
},
{
closed = 1;
nodes = (
"288.667 273 OFFCURVE",
"266 274 OFFCURVE",
"248 276 CURVE",
"246.667 276 OFFCURVE",
"245.667 278.667 OFFCURVE",
"247 280 CURVE",
"355 458 LINE",
"387 280 LINE",
"387 276.667 OFFCURVE",
"385.667 275 OFFCURVE",
"383 275 CURVE",
"363.667 273.667 OFFCURVE",
"341.333 273 OFFCURVE",
"316 273 CURVE SMOOTH"
);
}
);
};
components = (
{
name = A;
},
{
name = brevecomb.case;
transform = "{1, 0, 0, 1, 276, 228}";
}
);
layerId = "C43979EA-9F64-4F78-971C-933464F87A97";
width = 656;
}
);
leftKerningGroup = A;
note = Abreve;
rightKerningGroup = A;
unicode = 0102;
},
{
color = 10;
glyphname = Acaron;
lastChange = "2022-03-10 16:51:15 +0000";
layers = (
{
background = {
anchors = (
{
name = bottom;
position = "{342, 0}";
},
{
name = ogonek;
position = "{616, 10}";
},
{
name = top;
position = "{358, 656}";
}
);
paths = (
{
closed = 1;
nodes = (
"365 728 OFFCURVE",
"369 731 OFFCURVE",
"372 736 CURVE SMOOTH",
"386 755 OFFCURVE",
"400 771 OFFCURVE",
"413 784 CURVE SMOOTH",
"436 805 OFFCURVE",
"475 825 OFFCURVE",
"475 838 CURVE SMOOTH",
"475 851 OFFCURVE",
"472 858 OFFCURVE",
"466 858 CURVE SMOOTH",
"453 858 OFFCURVE",
"418 839 OFFCURVE",
"361 800 CURVE",
"329 824 OFFCURVE",
"270 858 OFFCURVE",
"258 858 CURVE SMOOTH",
"251 858 OFFCURVE",
"248 851 OFFCURVE",
"248 838 CURVE",
"251 835 OFFCURVE",
"259 828 OFFCURVE",
"274 815 CURVE SMOOTH",
"309 782 LINE SMOOTH",
"328 765 OFFCURVE",
"342 749 OFFCURVE",
"351 736 CURVE",
"356 731 OFFCURVE",
"359 728 OFFCURVE",
"361 728 CURVE SMOOTH"
);
},
{
closed = 1;
nodes = (
"55 -1 OFFCURVE",
"90 4 OFFCURVE",
"128 2 CURVE SMOOTH",
"231 -3 LINE",
"234 4 OFFCURVE",
"233 26 OFFCURVE",
"229 26 CURVE SMOOTH",
"217 26 OFFCURVE",
"183 33 OFFCURVE",
"171 42 CURVE SMOOTH",
"166 46 OFFCURVE",
"163 53 OFFCURVE",
"163 62 CURVE SMOOTH",
"163 75 OFFCURVE",
"167 98 OFFCURVE",
"180 131 CURVE SMOOTH",
"223 241 LINE",
"228 244 LINE",
"278 247 OFFCURVE",
"320 249 OFFCURVE",
"355 249 CURVE SMOOTH",
"380 249 OFFCURVE",
"405 248 OFFCURVE",
"431 246 CURVE SMOOTH",
"433 246 OFFCURVE",
"435 245 OFFCURVE",
"437 242 CURVE",
"482 118 LINE SMOOTH",
"487 105 OFFCURVE",
"492 77 OFFCURVE",
"492 60 CURVE SMOOTH",
"492 55 OFFCURVE",
"491 49 OFFCURVE",
"490 44 CURVE SMOOTH",
"486 33 OFFCURVE",
"455 26 OFFCURVE",
"439 26 CURVE SMOOTH",
"434 26 OFFCURVE",
"433 2 OFFCURVE",
"438 -3 CURVE",
"554 2 LINE SMOOTH",
"561 2 OFFCURVE",
"597 0 OFFCURVE",
"664 -3 CURVE",
"665 1 OFFCURVE",
"666 4 OFFCURVE",
"666 7 CURVE SMOOTH",
"666 20 OFFCURVE",
"665 26 OFFCURVE",
"662 26 CURVE SMOOTH",
"646 26 OFFCURVE",
"602 40 OFFCURVE",
"594 60 CURVE SMOOTH",
"587 77 OFFCURVE",
"577 101 OFFCURVE",
"565 132 CURVE SMOOTH",
"365 660 LINE",
"356 663 LINE",
"335 663 OFFCURVE",
"328 652 OFFCURVE",
"319 633 CURVE SMOOTH",
"309 611 OFFCURVE",
"314 616 OFFCURVE",
"302 586 CURVE SMOOTH",
"128 139 LINE SMOOTH",
"111 94 OFFCURVE",
"95 63 OFFCURVE",
"81 45 CURVE SMOOTH",
"72 33 OFFCURVE",
"40 26 OFFCURVE",
"24 26 CURVE SMOOTH",
"21 26 OFFCURVE",
"20 21 OFFCURVE",
"20 12 CURVE SMOOTH",
"20 5 OFFCURVE",
"21 0 OFFCURVE",
"24 -3 CURVE"
);
},
{
closed = 1;
nodes = (
"307 297 OFFCURVE",
"284 298 OFFCURVE",
"249 299 CURVE SMOOTH",
"248 299 OFFCURVE",
"247 300 OFFCURVE",
"247 303 CURVE",
"333 526 LINE",
"414 305 LINE",
"411 300 LINE",
"380 298 OFFCURVE",
"349 297 OFFCURVE",
"320 297 CURVE SMOOTH"
);
}
);
};
components = (
{
name = A;
},
{
name = caroncomb.case;
transform = "{1, 0, 0, 1, 244, 228}";
}
);
layerId = "02396921-8257-42A3-8ED5-3052446F9CE3";
width = 619;
},
{
associatedMasterId = "02396921-8257-42A3-8ED5-3052446F9CE3";
components = (
{
name = caroncomb.case;
transform = "{1, 0, 0, 1, 227, 0}";
},
{
name = A;
}
);
layerId = "015CD5F4-57BD-4700-81AF-024D974EC640";
name = "5 Jan 22 at 13:46";
width = 684;
},
{
associatedMasterId = "02396921-8257-42A3-8ED5-3052446F9CE3";
components = (
{
name = caroncomb.case;
transform = "{1, 0, 0, 1, 227, 0}";
},
{
name = A;
}
);
layerId = "1BAA7A0D-1317-4B8E-80A0-3E61397D82A7";
name = "5 Jan 22 at 13:46";
width = 684;
},
{
background = {
paths = (
{
closed = 1;
nodes = (
"472 864 OFFCURVE",
"379 804 QCURVE",
"355 821 OFFCURVE",
"276 864 OFFCURVE",
"267 864 QCURVE SMOOTH",
"257 864 OFFCURVE",
"257 844 QCURVE",
"258 843 OFFCURVE",
"303 804 OFFCURVE",
"325 783 QCURVE SMOOTH",
"351 758 OFFCURVE",
"367 736 QCURVE",
"374 728 OFFCURVE",
"379 728 QCURVE SMOOTH",
"385 728 OFFCURVE",
"391 736 QCURVE",
"421 771 OFFCURVE",
"432 782 QCURVE SMOOTH",
"449 798 OFFCURVE",
"481 827 OFFCURVE",
"500 843 OFFCURVE",
"501 844 QCURVE",
"501 864 OFFCURVE",
"491 864 QCURVE SMOOTH"
);
},
{
closed = 1;
nodes = (
"386 665 OFFCURVE",
"379 665 QCURVE SMOOTH",
"370 665 OFFCURVE",
"362 658 QCURVE SMOOTH",
"348 646 OFFCURVE",
"325 586 QCURVE SMOOTH",
"139 136 LINE SMOOTH",
"120 88 OFFCURVE",
"101 58 QCURVE SMOOTH",
"94 47 OFFCURVE",
"41 30 OFFCURVE",
"29 30 QCURVE SMOOTH",
"27 30 OFFCURVE",
"27 12 QCURVE SMOOTH",
"27 1 OFFCURVE",
"31 -3 QCURVE",
"46 -2 OFFCURVE",
"117 3 OFFCURVE",
"169 3 OFFCURVE",
"253 -3 OFFCURVE",
"258 -3 QCURVE",
"260 3 OFFCURVE",
"260 29 OFFCURVE",
"257 30 QCURVE",
"249 30 OFFCURVE",
"204 40 OFFCURVE",
"195 46 QCURVE SMOOTH",
"184 53 OFFCURVE",
"184 79 OFFCURVE",
"203 131 QCURVE",
"241 224 LINE",
"241 228 OFFCURVE",
"247 228 QCURVE",
"307 231 OFFCURVE",
"415 231 OFFCURVE",
"447 229 QCURVE",
"450 229 OFFCURVE",
"454 225 QCURVE",
"489 132 LINE SMOOTH",
"508 83 OFFCURVE",
"508 63 QCURVE SMOOTH",
"508 56 OFFCURVE",
"505 50 QCURVE SMOOTH",
"501 42 OFFCURVE",
"459 30 OFFCURVE",
"447 30 QCURVE SMOOTH",
"443 30 OFFCURVE",
"443 1 OFFCURVE",
"447 -3 QCURVE",
"570 3 OFFCURVE",
"577 3 QCURVE SMOOTH",
"583 3 OFFCURVE",
"703 -3 QCURVE",
"705 0 OFFCURVE",
"705 12 QCURVE SMOOTH",
"705 30 OFFCURVE",
"701 30 QCURVE SMOOTH",
"689 30 OFFCURVE",
"637 48 OFFCURVE",
"631 63 QCURVE",
"616 96 OFFCURVE",
"601 136 QCURVE SMOOTH",
"391 660 LINE"
);
},
{
closed = 1;
nodes = (
"269 288 OFFCURVE",
"269 292 QCURVE",
"351 492 LINE",
"427 292 LINE",
"425 288 LINE",
"378 285 OFFCURVE",
"343 285 QCURVE SMOOTH",
"306 285 OFFCURVE",
"271 288 QCURVE"
);
}
);
};
components = (
{
name = A;
},
{
name = caroncomb.case;
transform = "{1, 0, 0, 1, 286, 228}";
}
);
layerId = "B85C165C-5F8F-4735-B7B6-8DF6357F77F6";
width = 648;
},
{
background = {
paths = (
{
closed = 1;
nodes = (
"349 824 OFFCURVE",
"263 869 OFFCURVE",
"255 869 QCURVE SMOOTH",
"245 869 OFFCURVE",
"245 850 QCURVE",
"269 832 OFFCURVE",
"318 784 QCURVE SMOOTH",
"343 759 OFFCURVE",
"361 737 QCURVE",
"369 728 OFFCURVE",
"374 728 QCURVE SMOOTH",
"380 728 OFFCURVE",
"389 737 QCURVE",
"425 776 OFFCURVE",
"429 780 QCURVE SMOOTH",
"481 832 OFFCURVE",
"505 850 QCURVE",
"505 869 OFFCURVE",
"495 869 QCURVE SMOOTH",
"487 869 OFFCURVE",
"401 824 OFFCURVE",
"375 807 QCURVE"
);
},
{
closed = 1;
nodes = (
"419 33 OFFCURVE",
"419 0 OFFCURVE",
"423 -4 QCURVE",
"567 4 OFFCURVE",
"574 4 QCURVE SMOOTH",
"600 4 OFFCURVE",
"715 -4 OFFCURVE",
"719 -4 QCURVE",
"721 -1 OFFCURVE",
"721 33 OFFCURVE",
"717 33 QCURVE SMOOTH",
"703 33 OFFCURVE",
"649 50 OFFCURVE",
"643 66 QCURVE SMOOTH",
"629 102 OFFCURVE",
"610 148 QCURVE SMOOTH",
"405 655 LINE",
"396 668 OFFCURVE",
"381 668 QCURVE SMOOTH",
"355 668 OFFCURVE",
"344 642 QCURVE SMOOTH",
"123 134 LINE",
"118 122 LINE SMOOTH",
"113 111 OFFCURVE",
"96 76 OFFCURVE",
"88 64 QCURVE SMOOTH",
"81 53 OFFCURVE",
"25 32 OFFCURVE",
"13 32 QCURVE SMOOTH",
"11 32 OFFCURVE",
"11 11 QCURVE SMOOTH",
"11 0 OFFCURVE",
"15 -4 QCURVE",
"34 -3 OFFCURVE",
"104 4 OFFCURVE",
"154 4 OFFCURVE",
"233 -3 OFFCURVE",
"246 -4 QCURVE",
"248 2 OFFCURVE",
"248 32 OFFCURVE",
"245 33 QCURVE",
"235 33 OFFCURVE",
"208 36 OFFCURVE",
"172 54 OFFCURVE",
"172 86 OFFCURVE",
"192 131 QCURVE SMOOTH",
"225 207 OFFCURVE",
"225 207 QCURVE",
"228 212 OFFCURVE",
"232 212 QCURVE SMOOTH",
"267 213 OFFCURVE",
"333 213 QCURVE SMOOTH",
"410 213 OFFCURVE",
"429 212 QCURVE",
"432 212 OFFCURVE",
"436 208 QCURVE",
"466 135 LINE SMOOTH",
"491 70 OFFCURVE",
"491 68 QCURVE SMOOTH",
"491 52 OFFCURVE",
"445 33 OFFCURVE",
"423 33 QCURVE SMOOTH"
);
},
{
closed = 1;
nodes = (
"257 276 OFFCURVE",
"257 280 QCURVE",
"335 459 LINE",
"407 280 LINE",
"404 275 LINE",
"373 273 OFFCURVE",
"333 273 QCURVE SMOOTH",
"289 273 OFFCURVE",
"259 276 QCURVE"
);
}
);
};
components = (
{
name = A;
},
{
name = caroncomb.case;
transform = "{1, 0, 0, 1, 257, 228}";
}
);
layerId = "C43979EA-9F64-4F78-971C-933464F87A97";
width = 656;
}
);
leftKerningGroup = A;
note = uni01CD;
rightKerningGroup = A;
unicode = 01CD;
},
{
color = 10;
glyphname = Acircumflex;
lastChange = "2022-03-10 16:51:15 +0000";
layers = (
{
background = {
paths = (
{
closed = 1;
nodes = (
"581 748 QCURVE SMOOTH",
"581 749 OFFCURVE",
"565 763 OFFCURVE",
"537 790 OFFCURVE",
"526 802 QCURVE SMOOTH",
"512 818 OFFCURVE",
"494 850 QCURVE",
"491 858 OFFCURVE",
"483 858 QCURVE SMOOTH",
"479 858 OFFCURVE",
"470 850 QCURVE SMOOTH",
"449 828 OFFCURVE",
"415 804 QCURVE SMOOTH",
"401 793 OFFCURVE",
"365 768 OFFCURVE",
"342 752 OFFCURVE",
"338 748 QCURVE",
"333 728 OFFCURVE",
"344 728 QCURVE SMOOTH",
"353 728 OFFCURVE",
"437 768 OFFCURVE",
"467 786 QCURVE",
"547 728 OFFCURVE",
"566 728 QCURVE SMOOTH",
"576 728 OFFCURVE"
);
},
{
closed = 1;
nodes = (
"454 91 QCURVE SMOOTH",
"454 59 OFFCURVE",
"447 44 QCURVE SMOOTH",
"442 36 OFFCURVE",
"406 24 OFFCURVE",
"396 24 QCURVE SMOOTH",
"389 24 OFFCURVE",
"389 3 QCURVE SMOOTH",
"389 -2 OFFCURVE",
"390 -3 QCURVE",
"405 -2 OFFCURVE",
"445 0 OFFCURVE",
"478 2 OFFCURVE",
"497 2 QCURVE SMOOTH",
"508 2 OFFCURVE",
"601 -3 QCURVE",
"606 7 OFFCURVE",
"606 19 QCURVE SMOOTH",
"606 24 OFFCURVE",
"604 24 QCURVE SMOOTH",
"594 24 OFFCURVE",
"549 45 OFFCURVE",
"546 60 QCURVE SMOOTH",
"544 69 OFFCURVE",
"534 132 QCURVE SMOOTH",
"451 660 LINE",
"447 662 OFFCURVE",
"443 662 QCURVE SMOOTH",
"419 662 OFFCURVE",
"404 635 QCURVE SMOOTH",
"128 139 LINE SMOOTH",
"89 69 OFFCURVE",
"67 45 QCURVE SMOOTH",
"59 36 OFFCURVE",
"20 24 OFFCURVE",
"9 24 QCURVE SMOOTH",
"2 24 OFFCURVE",
"2 5 QCURVE SMOOTH",
"2 -1 OFFCURVE",
"4 -3 QCURVE",
"20 -2 OFFCURVE",
"54 0 OFFCURVE",
"83 2 OFFCURVE",
"102 2 QCURVE SMOOTH",
"104 2 OFFCURVE",
"197 -3 QCURVE",
"202 7 OFFCURVE",
"202 18 QCURVE SMOOTH",
"202 24 OFFCURVE",
"200 24 QCURVE SMOOTH",
"196 24 OFFCURVE",
"173 28 OFFCURVE",
"145 44 OFFCURVE",
"145 55 QCURVE SMOOTH",
"145 70 OFFCURVE",
"191 164 OFFCURVE",
"239 244 OFFCURVE",
"242 244 QCURVE SMOOTH",
"314 249 OFFCURVE",
"335 249 QCURVE SMOOTH",
"354 249 OFFCURVE",
"383 249 OFFCURVE",
"404 248 OFFCURVE",
"419 247 OFFCURVE",
"428 246 OFFCURVE",
"433 245 OFFCURVE",
"436 242 OFFCURVE",
"436 241 OFFCURVE",
"436 239 QCURVE SMOOTH",
"454 108 OFFCURVE"
);
},
{
closed = 1;
nodes = (
"272 299 QCURVE SMOOTH",
"271 299 OFFCURVE",
"271 303 OFFCURVE",
"394 526 QCURVE",
"397 505 OFFCURVE",
"414 393 OFFCURVE",
"427 309 OFFCURVE",
"427 304 QCURVE SMOOTH",
"427 300 OFFCURVE",
"423 300 QCURVE SMOOTH",
"394 298 OFFCURVE",
"348 298 QCURVE SMOOTH",
"295 298 OFFCURVE"
);
}
);
};
components = (
{
name = A;
},
{
name = circumflexcomb.case;
transform = "{1, 0, 0, 1, 220, 228}";
}
);
layerId = "02396921-8257-42A3-8ED5-3052446F9CE3";
width = 619;
},
{
background = {
paths = (
{
closed = 1;
nodes = (
"547 728 OFFCURVE",
"552 747 QCURVE",
"551 748 OFFCURVE",
"535 763 OFFCURVE",
"506 792 OFFCURVE",
"492 809 QCURVE SMOOTH",
"484 819 OFFCURVE",
"462 851 OFFCURVE",
"460 855 QCURVE",
"455 864 OFFCURVE",
"447 864 QCURVE SMOOTH",
"444 864 OFFCURVE",
"433 855 QCURVE",
"411 833 OFFCURVE",
"378 808 QCURVE SMOOTH",
"351 787 OFFCURVE",
"295 748 OFFCURVE",
"294 747 QCURVE",
"288 728 OFFCURVE",
"300 728 QCURVE SMOOTH",
"309 728 OFFCURVE",
"401 770 OFFCURVE",
"431 788 QCURVE",
"518 728 OFFCURVE",
"537 728 QCURVE SMOOTH"
);
},
{
closed = 1;
nodes = (
"399 231 OFFCURVE",
"417 228 QCURVE",
"422 228 OFFCURVE",
"422 223 QCURVE",
"442 89 OFFCURVE",
"442 80 QCURVE SMOOTH",
"442 62 OFFCURVE",
"436 50 QCURVE",
"431 42 OFFCURVE",
"391 27 OFFCURVE",
"381 27 QCURVE SMOOTH",
"375 27 OFFCURVE",
"375 3 QCURVE SMOOTH",
"375 -2 OFFCURVE",
"376 -3 QCURVE",
"490 3 OFFCURVE",
"501 3 QCURVE SMOOTH",
"504 3 OFFCURVE",
"615 -3 QCURVE",
"619 5 OFFCURVE",
"619 21 QCURVE SMOOTH",
"619 27 OFFCURVE",
"617 27 QCURVE SMOOTH",
"607 27 OFFCURVE",
"566 48 OFFCURVE",
"563 63 QCURVE SMOOTH",
"552 120 OFFCURVE",
"549 136 QCURVE SMOOTH",
"455 660 LINE",
"451 664 OFFCURVE",
"445 664 QCURVE SMOOTH",
"424 664 OFFCURVE",
"393 610 QCURVE SMOOTH",
"116 136 LINE SMOOTH",
"80 75 OFFCURVE",
"66 58 QCURVE",
"58 47 OFFCURVE",
"5 27 OFFCURVE",
"-6 27 QCURVE SMOOTH",
"-12 27 OFFCURVE",
"-12 4 QCURVE SMOOTH",
"-12 1 OFFCURVE",
"-10 -3 QCURVE",
"3 -2 OFFCURVE",
"74 3 OFFCURVE",
"99 3 QCURVE SMOOTH",
"123 3 OFFCURVE",
"180 -2 OFFCURVE",
"191 -3 QCURVE",
"197 9 OFFCURVE",
"197 22 QCURVE SMOOTH",
"197 27 OFFCURVE",
"195 27 QCURVE SMOOTH",
"183 27 OFFCURVE",
"135 44 OFFCURVE",
"135 60 QCURVE SMOOTH",
"135 79 OFFCURVE",
"166 131 QCURVE SMOOTH",
"173 143 OFFCURVE",
"218 215 OFFCURVE",
"223 224 QCURVE",
"225 228 OFFCURVE",
"229 228 QCURVE",
"286 231 OFFCURVE",
"323 231 QCURVE SMOOTH"
);
},
{
closed = 1;
nodes = (
"293 285 OFFCURVE",
"263 288 QCURVE",
"263 290 LINE",
"378 492 LINE",
"380 478 OFFCURVE",
"408 312 OFFCURVE",
"411 292 QCURVE",
"411 288 OFFCURVE",
"407 288 QCURVE",
"364 285 OFFCURVE",
"335 285 QCURVE SMOOTH"
);
}
);
};
components = (
{
name = A;
},
{
name = circumflexcomb.case;
transform = "{1, 0, 0, 1, 258, 228}";
}
);
layerId = "B85C165C-5F8F-4735-B7B6-8DF6357F77F6";
width = 648;
},
{
background = {
paths = (
{
closed = 1;
nodes = (
"592 728 OFFCURVE",
"597 734 OFFCURVE",
"600 747 CURVE",
"584 761 OFFCURVE",
"563 784 OFFCURVE",
"536 816 CURVE",
"524 832 OFFCURVE",
"507 855 OFFCURVE",
"503 860 CURVE",
"497 866 OFFCURVE",
"493 869 OFFCURVE",
"490 869 CURVE SMOOTH",
"486 869 OFFCURVE",
"481 866 OFFCURVE",
"474 860 CURVE",
"461 847 OFFCURVE",
"442 831 OFFCURVE",
"419 812 CURVE SMOOTH",
"379 781 OFFCURVE",
"348 760 OFFCURVE",
"327 747 CURVE",
"324 734 OFFCURVE",
"326 728 OFFCURVE",
"334 728 CURVE SMOOTH",
"345 728 OFFCURVE",
"432 767 OFFCURVE",
"473 790 CURVE",
"504 767 OFFCURVE",
"574 728 OFFCURVE",
"585 728 CURVE SMOOTH"
);
},
{
closed = 1;
nodes = (
"340.667 213 OFFCURVE",
"371 212.333 OFFCURVE",
"395 211 CURVE",
"399 211 OFFCURVE",
"401 209.667 OFFCURVE",
"401 207 CURVE",
"415.667 121 OFFCURVE",
"423 75 OFFCURVE",
"423 69 CURVE SMOOTH",
"423 64.333 OFFCURVE",
"421.333 59.667 OFFCURVE",
"418 55 CURVE",
"389.753 22.717 OFFCURVE",
"359 50.253 OFFCURVE",
"359 3 CURVE SMOOTH",
"359 -1 OFFCURVE",
"359.333 -3.333 OFFCURVE",
"360 -4 CURVE",
"439.333 0.667 OFFCURVE",
"485.333 3 OFFCURVE",
"498 3 CURVE SMOOTH",
"514 3 OFFCURVE",
"537.833 1.833 OFFCURVE",
"569.5 -0.5 CURVE SMOOTH",
"601.167 -2.833 OFFCURVE",
"618 -4 OFFCURVE",
"620 -4 CURVE",
"624.667 2 OFFCURVE",
"627 11.667 OFFCURVE",
"627 25 CURVE SMOOTH",
"627 28.333 OFFCURVE",
"626.333 30 OFFCURVE",
"625 30 CURVE SMOOTH",
"610.333 30 OFFCURVE",
"569 44.667 OFFCURVE",
"565 66 CURVE SMOOTH",
"558.333 98.667 OFFCURVE",
"553.667 123.667 OFFCURVE",
"551 141 CURVE",
"446 659 LINE",
"444 664.333 OFFCURVE",
"440 667 OFFCURVE",
"434 667 CURVE SMOOTH",
"426 667 OFFCURVE",
"416.833 659.833 OFFCURVE",
"405.5 644.5 CURVE SMOOTH",
"399.833 636.833 OFFCURVE",
"395.333 630.5 OFFCURVE",
"392 625.5 CURVE SMOOTH",
"388.667 620.5 OFFCURVE",
"380.667 607.333 OFFCURVE",
"368 586 CURVE SMOOTH",
"96 134 LINE SMOOTH",
"76 100.667 OFFCURVE",
"63 79.667 OFFCURVE",
"57 71 CURVE",
"45 55 OFFCURVE",
"-14.667 30 OFFCURVE",
"-28 30 CURVE SMOOTH",
"-31.333 30 OFFCURVE",
"-33 21.333 OFFCURVE",
"-33 4 CURVE SMOOTH",
"-33 0 OFFCURVE",
"-32.667 -2.667 OFFCURVE",
"-32 -4 CURVE",
"-22.667 -3.333 OFFCURVE",
"-4.833 -2 OFFCURVE",
"21.5 0 CURVE SMOOTH",
"47.833 2 OFFCURVE",
"69.333 3 OFFCURVE",
"86 3 CURVE SMOOTH",
"102 3 OFFCURVE",
"120.667 2 OFFCURVE",
"142 0 CURVE SMOOTH",
"163.333 -2 OFFCURVE",
"178 -3.333 OFFCURVE",
"186 -4 CURVE",
"189.333 2.667 OFFCURVE",
"191 12.667 OFFCURVE",
"191 26 CURVE SMOOTH",
"191 28.667 OFFCURVE",
"190.333 30 OFFCURVE",
"189 30 CURVE SMOOTH",
"124.335 30 OFFCURVE",
"103.25 51.189 OFFCURVE",
"157 131 CURVE",
"202 207 LINE",
"203.333 208.333 OFFCURVE",
"215 212 OFFCURVE",
"219 212 CURVE SMOOTH",
"241 212.667 OFFCURVE",
"269.333 213 OFFCURVE",
"304 213 CURVE SMOOTH"
);
},
{
closed = 1;
nodes = (
"288.667 273 OFFCURVE",
"266 274 OFFCURVE",
"248 276 CURVE",
"246.667 276 OFFCURVE",
"245.667 278.667 OFFCURVE",
"247 280 CURVE",
"355 458 LINE",
"387 280 LINE",
"387 276.667 OFFCURVE",
"385.667 275 OFFCURVE",
"383 275 CURVE",
"363.667 273.667 OFFCURVE",
"341.333 273 OFFCURVE",
"316 273 CURVE SMOOTH"
);
}
);
};
components = (
{
name = A;
},
{
name = circumflexcomb.case;
transform = "{1, 0, 0, 1, 230, 228}";
}
);
layerId = "C43979EA-9F64-4F78-971C-933464F87A97";
width = 656;
}
);
leftKerningGroup = A;
note = Acircumflex;
rightKerningGroup = A;
unicode = 00C2;
},
{
color = 10;
glyphname = Adieresis;
lastChange = "2022-03-10 16:51:15 +0000";
layers = (
{
background = {
paths = (
{
closed = 1;
nodes = (
"522 728 QCURVE SMOOTH",
"542 728 OFFCURVE",
"574 757 OFFCURVE",
"582 799 OFFCURVE",
"560 828 OFFCURVE",
"541 828 QCURVE SMOOTH",
"521 828 OFFCURVE",
"489 799 OFFCURVE",
"481 757 OFFCURVE",
"503 728 OFFCURVE"
);
},
{
closed = 1;
nodes = (
"353 728 QCURVE SMOOTH",
"373 728 OFFCURVE",
"406 757 OFFCURVE",
"414 799 OFFCURVE",
"392 828 OFFCURVE",
"373 828 QCURVE SMOOTH",
"353 828 OFFCURVE",
"321 799 OFFCURVE",
"313 757 OFFCURVE",
"334 728 OFFCURVE"
);
},
{
closed = 1;
nodes = (
"454 91 QCURVE SMOOTH",
"454 59 OFFCURVE",
"447 44 QCURVE SMOOTH",
"442 36 OFFCURVE",
"406 24 OFFCURVE",
"396 24 QCURVE SMOOTH",
"389 24 OFFCURVE",
"389 3 QCURVE SMOOTH",
"389 -2 OFFCURVE",
"390 -3 QCURVE",
"405 -2 OFFCURVE",
"445 0 OFFCURVE",
"478 2 OFFCURVE",
"497 2 QCURVE SMOOTH",
"508 2 OFFCURVE",
"601 -3 QCURVE",
"606 7 OFFCURVE",
"606 19 QCURVE SMOOTH",
"606 24 OFFCURVE",
"604 24 QCURVE SMOOTH",
"594 24 OFFCURVE",
"549 45 OFFCURVE",
"546 60 QCURVE SMOOTH",
"544 69 OFFCURVE",
"534 132 QCURVE SMOOTH",
"451 660 LINE",
"447 662 OFFCURVE",
"443 662 QCURVE SMOOTH",
"419 662 OFFCURVE",
"404 635 QCURVE SMOOTH",
"128 139 LINE SMOOTH",
"89 69 OFFCURVE",
"67 45 QCURVE SMOOTH",
"59 36 OFFCURVE",
"20 24 OFFCURVE",
"9 24 QCURVE SMOOTH",
"2 24 OFFCURVE",
"2 5 QCURVE SMOOTH",
"2 -1 OFFCURVE",
"4 -3 QCURVE",
"20 -2 OFFCURVE",
"54 0 OFFCURVE",
"83 2 OFFCURVE",
"102 2 QCURVE SMOOTH",
"104 2 OFFCURVE",
"197 -3 QCURVE",
"202 7 OFFCURVE",
"202 18 QCURVE SMOOTH",
"202 24 OFFCURVE",
"200 24 QCURVE SMOOTH",
"196 24 OFFCURVE",
"173 28 OFFCURVE",
"145 44 OFFCURVE",
"145 55 QCURVE SMOOTH",
"145 70 OFFCURVE",
"191 164 OFFCURVE",
"239 244 OFFCURVE",
"242 244 QCURVE SMOOTH",
"314 249 OFFCURVE",
"335 249 QCURVE SMOOTH",
"354 249 OFFCURVE",
"383 249 OFFCURVE",
"404 248 OFFCURVE",
"419 247 OFFCURVE",
"428 246 OFFCURVE",
"433 245 OFFCURVE",
"436 242 OFFCURVE",
"436 241 OFFCURVE",
"436 239 QCURVE SMOOTH",
"454 108 OFFCURVE"
);
},
{
closed = 1;
nodes = (
"272 299 QCURVE SMOOTH",
"271 299 OFFCURVE",
"271 303 OFFCURVE",
"394 526 QCURVE",
"397 505 OFFCURVE",
"414 393 OFFCURVE",
"427 309 OFFCURVE",
"427 304 QCURVE SMOOTH",
"427 300 OFFCURVE",
"423 300 QCURVE SMOOTH",
"394 298 OFFCURVE",
"348 298 QCURVE SMOOTH",
"295 298 OFFCURVE"
);
}
);
};
components = (
{
name = A;
},
{
name = dieresiscomb.case;
transform = "{1, 0, 0, 1, 221, 228}";
}
);
layerId = "02396921-8257-42A3-8ED5-3052446F9CE3";
width = 619;
},
{
background = {
paths = (
{
closed = 1;
nodes = (
"495 764 OFFCURVE",
"522 728 OFFCURVE",
"570 728 OFFCURVE",
"612 765 OFFCURVE",
"616 790 QCURVE SMOOTH",
"621 816 OFFCURVE",
"594 852 OFFCURVE",
"546 852 OFFCURVE",
"504 815 OFFCURVE",
"500 790 QCURVE SMOOTH"
);
},
{
closed = 1;
nodes = (
"431 816 OFFCURVE",
"403 852 OFFCURVE",
"355 852 OFFCURVE",
"315 816 OFFCURVE",
"305 764 OFFCURVE",
"331 728 OFFCURVE",
"379 728 OFFCURVE",
"422 765 OFFCURVE",
"426 790 QCURVE SMOOTH"
);
},
{
closed = 1;
nodes = (
"399 231 OFFCURVE",
"417 228 QCURVE",
"422 228 OFFCURVE",
"422 223 QCURVE",
"442 89 OFFCURVE",
"442 80 QCURVE SMOOTH",
"442 62 OFFCURVE",
"436 50 QCURVE",
"431 42 OFFCURVE",
"391 27 OFFCURVE",
"381 27 QCURVE SMOOTH",
"375 27 OFFCURVE",
"375 3 QCURVE SMOOTH",
"375 -2 OFFCURVE",
"376 -3 QCURVE",
"490 3 OFFCURVE",
"501 3 QCURVE SMOOTH",
"504 3 OFFCURVE",
"615 -3 QCURVE",
"619 5 OFFCURVE",
"619 21 QCURVE SMOOTH",
"619 27 OFFCURVE",
"617 27 QCURVE SMOOTH",
"607 27 OFFCURVE",
"566 48 OFFCURVE",
"563 63 QCURVE SMOOTH",
"552 120 OFFCURVE",
"549 136 QCURVE SMOOTH",
"455 660 LINE",
"451 664 OFFCURVE",
"445 664 QCURVE SMOOTH",
"424 664 OFFCURVE",
"393 610 QCURVE SMOOTH",
"116 136 LINE SMOOTH",
"80 75 OFFCURVE",
"66 58 QCURVE",
"58 47 OFFCURVE",
"5 27 OFFCURVE",
"-6 27 QCURVE SMOOTH",
"-12 27 OFFCURVE",
"-12 4 QCURVE SMOOTH",
"-12 1 OFFCURVE",
"-10 -3 QCURVE",
"3 -2 OFFCURVE",
"74 3 OFFCURVE",
"99 3 QCURVE SMOOTH",
"123 3 OFFCURVE",
"180 -2 OFFCURVE",
"191 -3 QCURVE",
"197 9 OFFCURVE",
"197 22 QCURVE SMOOTH",
"197 27 OFFCURVE",
"195 27 QCURVE SMOOTH",
"183 27 OFFCURVE",
"135 44 OFFCURVE",
"135 60 QCURVE SMOOTH",
"135 79 OFFCURVE",
"166 131 QCURVE SMOOTH",
"173 143 OFFCURVE",
"218 215 OFFCURVE",
"223 224 QCURVE",
"225 228 OFFCURVE",
"229 228 QCURVE",
"286 231 OFFCURVE",
"323 231 QCURVE SMOOTH"
);
},
{
closed = 1;
nodes = (
"293 285 OFFCURVE",
"263 288 QCURVE",
"263 290 LINE",
"378 492 LINE",
"380 478 OFFCURVE",
"408 312 OFFCURVE",
"411 292 QCURVE",
"411 288 OFFCURVE",
"407 288 QCURVE",
"364 285 OFFCURVE",
"335 285 QCURVE SMOOTH"
);
}
);
};
components = (
{
name = A;
},
{
name = dieresiscomb.case;
transform = "{1, 0, 0, 1, 242, 228}";
}
);
layerId = "B85C165C-5F8F-4735-B7B6-8DF6357F77F6";
width = 648;
},
{
background = {
paths = (
{
closed = 1;
nodes = (
"645 728 OFFCURVE",
"669 876 OFFCURVE",
"580 876 CURVE SMOOTH",
"487 876 OFFCURVE",
"463 728 OFFCURVE",
"552 728 CURVE SMOOTH"
);
},
{
closed = 1;
nodes = (
"431 728 OFFCURVE",
"455 876 OFFCURVE",
"366 876 CURVE SMOOTH",
"273 876 OFFCURVE",
"249 728 OFFCURVE",
"338 728 CURVE SMOOTH"
);
},
{
closed = 1;
nodes = (
"340.667 213 OFFCURVE",
"371 212.333 OFFCURVE",
"395 211 CURVE",
"399 211 OFFCURVE",
"401 209.667 OFFCURVE",
"401 207 CURVE",
"415.667 121 OFFCURVE",
"423 75 OFFCURVE",
"423 69 CURVE SMOOTH",
"423 64.333 OFFCURVE",
"421.333 59.667 OFFCURVE",
"418 55 CURVE",
"389.753 22.717 OFFCURVE",
"359 50.253 OFFCURVE",
"359 3 CURVE SMOOTH",
"359 -1 OFFCURVE",
"359.333 -3.333 OFFCURVE",
"360 -4 CURVE",
"439.333 0.667 OFFCURVE",
"485.333 3 OFFCURVE",
"498 3 CURVE SMOOTH",
"514 3 OFFCURVE",
"537.833 1.833 OFFCURVE",
"569.5 -0.5 CURVE SMOOTH",
"601.167 -2.833 OFFCURVE",
"618 -4 OFFCURVE",
"620 -4 CURVE",
"624.667 2 OFFCURVE",
"627 11.667 OFFCURVE",
"627 25 CURVE SMOOTH",
"627 28.333 OFFCURVE",
"626.333 30 OFFCURVE",
"625 30 CURVE SMOOTH",
"610.333 30 OFFCURVE",
"569 44.667 OFFCURVE",
"565 66 CURVE SMOOTH",
"558.333 98.667 OFFCURVE",
"553.667 123.667 OFFCURVE",
"551 141 CURVE",
"446 659 LINE",
"444 664.333 OFFCURVE",
"440 667 OFFCURVE",
"434 667 CURVE SMOOTH",
"426 667 OFFCURVE",
"416.833 659.833 OFFCURVE",
"405.5 644.5 CURVE SMOOTH",
"399.833 636.833 OFFCURVE",
"395.333 630.5 OFFCURVE",
"392 625.5 CURVE SMOOTH",
"388.667 620.5 OFFCURVE",
"380.667 607.333 OFFCURVE",
"368 586 CURVE SMOOTH",
"96 134 LINE SMOOTH",
"76 100.667 OFFCURVE",
"63 79.667 OFFCURVE",
"57 71 CURVE",
"45 55 OFFCURVE",
"-14.667 30 OFFCURVE",
"-28 30 CURVE SMOOTH",
"-31.333 30 OFFCURVE",
"-33 21.333 OFFCURVE",
"-33 4 CURVE SMOOTH",
"-33 0 OFFCURVE",
"-32.667 -2.667 OFFCURVE",
"-32 -4 CURVE",
"-22.667 -3.333 OFFCURVE",
"-4.833 -2 OFFCURVE",
"21.5 0 CURVE SMOOTH",
"47.833 2 OFFCURVE",
"69.333 3 OFFCURVE",
"86 3 CURVE SMOOTH",
"102 3 OFFCURVE",
"120.667 2 OFFCURVE",
"142 0 CURVE SMOOTH",
"163.333 -2 OFFCURVE",
"178 -3.333 OFFCURVE",
"186 -4 CURVE",
"189.333 2.667 OFFCURVE",
"191 12.667 OFFCURVE",
"191 26 CURVE SMOOTH",
"191 28.667 OFFCURVE",
"190.333 30 OFFCURVE",
"189 30 CURVE SMOOTH",
"124.335 30 OFFCURVE",
"103.25 51.189 OFFCURVE",
"157 131 CURVE",
"202 207 LINE",
"203.333 208.333 OFFCURVE",
"215 212 OFFCURVE",
"219 212 CURVE SMOOTH",
"241 212.667 OFFCURVE",
"269.333 213 OFFCURVE",
"304 213 CURVE SMOOTH"
);
},
{
closed = 1;
nodes = (
"288.667 273 OFFCURVE",
"266 274 OFFCURVE",
"248 276 CURVE",
"246.667 276 OFFCURVE",
"245.667 278.667 OFFCURVE",
"247 280 CURVE",
"355 458 LINE",
"387 280 LINE",
"387 276.667 OFFCURVE",
"385.667 275 OFFCURVE",
"383 275 CURVE",
"363.667 273.667 OFFCURVE",
"341.333 273 OFFCURVE",
"316 273 CURVE SMOOTH"
);
}
);
};
components = (
{
name = A;
},
{
name = dieresiscomb.case;
transform = "{1, 0, 0, 1, 198, 228}";
}
);
layerId = "C43979EA-9F64-4F78-971C-933464F87A97";
width = 656;
}
);
leftKerningGroup = A;
note = Adieresis;
rightKerningGroup = A;
unicode = 00C4;
},
{
color = 10;
glyphname = Adotbelow;
lastChange = "2022-03-10 16:51:15 +0000";
layers = (
{
background = {
anchors = (
{
name = bottom;
position = "{342, 0}";
},
{
name = ogonek;
position = "{616, 10}";
},
{
name = top;
position = "{358, 656}";
}
);
paths = (
{
closed = 1;
nodes = (
"344 -180 OFFCURVE",
"399 -159 OFFCURVE",
"399 -114 CURVE SMOOTH",
"399 -86 OFFCURVE",
"377 -64 OFFCURVE",
"349 -64 CURVE SMOOTH",
"304 -64 OFFCURVE",
"283 -119 OFFCURVE",
"314 -150 CURVE SMOOTH"
);
},
{
closed = 1;
nodes = (
"55 -1 OFFCURVE",
"90 4 OFFCURVE",
"128 2 CURVE SMOOTH",
"231 -3 LINE",
"234 4 OFFCURVE",
"233 26 OFFCURVE",
"229 26 CURVE SMOOTH",
"217 26 OFFCURVE",
"183 33 OFFCURVE",
"171 42 CURVE SMOOTH",
"166 46 OFFCURVE",
"163 53 OFFCURVE",
"163 62 CURVE SMOOTH",
"163 75 OFFCURVE",
"167 98 OFFCURVE",
"180 131 CURVE SMOOTH",
"223 241 LINE",
"228 244 LINE",
"278 247 OFFCURVE",
"320 249 OFFCURVE",
"355 249 CURVE SMOOTH",
"380 249 OFFCURVE",
"405 248 OFFCURVE",
"431 246 CURVE SMOOTH",
"433 246 OFFCURVE",
"435 245 OFFCURVE",
"437 242 CURVE",
"482 118 LINE SMOOTH",
"487 105 OFFCURVE",
"492 77 OFFCURVE",
"492 60 CURVE SMOOTH",
"492 55 OFFCURVE",
"491 49 OFFCURVE",
"490 44 CURVE SMOOTH",
"486 33 OFFCURVE",
"455 26 OFFCURVE",
"439 26 CURVE SMOOTH",
"434 26 OFFCURVE",
"433 2 OFFCURVE",
"438 -3 CURVE",
"554 2 LINE SMOOTH",
"561 2 OFFCURVE",
"597 0 OFFCURVE",
"664 -3 CURVE",
"665 1 OFFCURVE",
"666 4 OFFCURVE",
"666 7 CURVE SMOOTH",
"666 20 OFFCURVE",
"665 26 OFFCURVE",
"662 26 CURVE SMOOTH",
"646 26 OFFCURVE",
"602 40 OFFCURVE",
"594 60 CURVE SMOOTH",
"587 77 OFFCURVE",
"577 101 OFFCURVE",
"565 132 CURVE SMOOTH",
"365 660 LINE",
"356 663 LINE",
"335 663 OFFCURVE",
"328 652 OFFCURVE",
"319 633 CURVE SMOOTH",
"309 611 OFFCURVE",
"314 616 OFFCURVE",
"302 586 CURVE SMOOTH",
"128 139 LINE SMOOTH",
"111 94 OFFCURVE",
"95 63 OFFCURVE",
"81 45 CURVE SMOOTH",
"72 33 OFFCURVE",
"40 26 OFFCURVE",
"24 26 CURVE SMOOTH",
"21 26 OFFCURVE",
"20 21 OFFCURVE",
"20 12 CURVE SMOOTH",
"20 5 OFFCURVE",
"21 0 OFFCURVE",
"24 -3 CURVE"
);
},
{
closed = 1;
nodes = (
"307 297 OFFCURVE",
"284 298 OFFCURVE",
"249 299 CURVE SMOOTH",
"248 299 OFFCURVE",
"247 300 OFFCURVE",
"247 303 CURVE",
"333 526 LINE",
"414 305 LINE",
"411 300 LINE",
"380 298 OFFCURVE",
"349 297 OFFCURVE",
"320 297 CURVE SMOOTH"
);
}
);
};
components = (
{
name = A;
},
{
name = dotbelowcomb;
transform = "{1, 0, 0, 1, 126, 0}";
}
);
layerId = "02396921-8257-42A3-8ED5-3052446F9CE3";
width = 619;
},
{
associatedMasterId = "02396921-8257-42A3-8ED5-3052446F9CE3";
components = (
{
name = dotbelowcomb.case;
},
{
name = A;
}
);
layerId = "292BB880-3A70-4261-AA53-29A2B3D769CE";
name = "5 Jan 22 at 13:46";
width = 619;
},
{
associatedMasterId = "02396921-8257-42A3-8ED5-3052446F9CE3";
components = (
{
name = dotbelowcomb.case;
transform = "{1, 0, 0, 1, 205, -28}";
},
{
name = A;
}
);
layerId = "F43F7A7D-497C-457B-8B56-67112BE26E59";
name = "5 Jan 22 at 13:46";
width = 684;
},
{
components = (
{
name = A;
},
{
name = dotbelowcomb;
transform = "{1, 0, 0, 1, 141, 0}";
}
);
layerId = "B85C165C-5F8F-4735-B7B6-8DF6357F77F6";
width = 648;
},
{
background = {
paths = (
{
closed = 1;
nodes = (
"402 -213 OFFCURVE",
"445 -170 OFFCURVE",
"445 -108 OFFCURVE",
"402 -65 OFFCURVE",
"340 -65 OFFCURVE",
"297 -108 OFFCURVE",
"297 -170 OFFCURVE",
"340 -213 OFFCURVE"
);
},
{
closed = 1;
nodes = (
"419 33 OFFCURVE",
"419 0 OFFCURVE",
"423 -4 QCURVE",
"567 4 OFFCURVE",
"574 4 QCURVE SMOOTH",
"600 4 OFFCURVE",
"715 -4 OFFCURVE",
"719 -4 QCURVE",
"721 -1 OFFCURVE",
"721 33 OFFCURVE",
"717 33 QCURVE SMOOTH",
"703 33 OFFCURVE",
"649 50 OFFCURVE",
"643 66 QCURVE SMOOTH",
"629 102 OFFCURVE",
"610 148 QCURVE SMOOTH",
"405 655 LINE",
"396 668 OFFCURVE",
"381 668 QCURVE SMOOTH",
"355 668 OFFCURVE",
"344 642 QCURVE SMOOTH",
"123 134 LINE",
"118 122 LINE SMOOTH",
"113 111 OFFCURVE",
"96 76 OFFCURVE",
"88 64 QCURVE SMOOTH",
"81 53 OFFCURVE",
"25 32 OFFCURVE",
"13 32 QCURVE SMOOTH",
"11 32 OFFCURVE",
"11 11 QCURVE SMOOTH",
"11 0 OFFCURVE",
"15 -4 QCURVE",
"34 -3 OFFCURVE",
"104 4 OFFCURVE",
"154 4 OFFCURVE",
"233 -3 OFFCURVE",
"246 -4 QCURVE",
"248 2 OFFCURVE",
"248 32 OFFCURVE",
"245 33 QCURVE",
"235 33 OFFCURVE",
"208 36 OFFCURVE",
"172 54 OFFCURVE",
"172 86 OFFCURVE",
"192 131 QCURVE SMOOTH",
"225 207 OFFCURVE",
"225 207 QCURVE",
"228 212 OFFCURVE",
"232 212 QCURVE SMOOTH",
"267 213 OFFCURVE",
"333 213 QCURVE SMOOTH",
"410 213 OFFCURVE",
"429 212 QCURVE",
"432 212 OFFCURVE",
"436 208 QCURVE",
"466 135 LINE SMOOTH",
"491 70 OFFCURVE",
"491 68 QCURVE SMOOTH",
"491 52 OFFCURVE",
"445 33 OFFCURVE",
"423 33 QCURVE SMOOTH"
);
},
{
closed = 1;
nodes = (
"257 276 OFFCURVE",
"257 280 QCURVE",
"335 459 LINE",
"407 280 LINE",
"404 275 LINE",
"373 273 OFFCURVE",
"333 273 QCURVE SMOOTH",
"289 273 OFFCURVE",
"259 276 QCURVE"
);
}
);
};
components = (
{
name = A;
},
{
name = dotbelowcomb;
transform = "{1, 0, 0, 1, 200, 0}";
}
);
layerId = "C43979EA-9F64-4F78-971C-933464F87A97";
width = 656;
}
);
leftKerningGroup = A;
note = uni1EA0;
rightKerningGroup = A;
unicode = 1EA0;
},
{
color = 10;
glyphname = Agrave;
lastChange = "2022-03-10 16:51:15 +0000";
layers = (
{
background = {
paths = (
{
closed = 1;
nodes = (
"464 720 QCURVE SMOOTH",
"464 726 OFFCURVE",
"388 791 OFFCURVE",
"365 806 QCURVE",
"359 808 OFFCURVE",
"348 808 QCURVE SMOOTH",
"321 808 OFFCURVE",
"290 793 OFFCURVE",
"290 784 QCURVE SMOOTH",
"290 767 OFFCURVE",
"432 710 OFFCURVE",
"451 710 QCURVE SMOOTH",
"464 710 OFFCURVE"
);
},
{
closed = 1;
nodes = (
"454 91 QCURVE SMOOTH",
"454 59 OFFCURVE",
"447 44 QCURVE SMOOTH",
"442 36 OFFCURVE",
"406 24 OFFCURVE",
"396 24 QCURVE SMOOTH",
"389 24 OFFCURVE",
"389 3 QCURVE SMOOTH",
"389 -2 OFFCURVE",
"390 -3 QCURVE",
"405 -2 OFFCURVE",
"445 0 OFFCURVE",
"478 2 OFFCURVE",
"497 2 QCURVE SMOOTH",
"508 2 OFFCURVE",
"601 -3 QCURVE",
"606 7 OFFCURVE",
"606 19 QCURVE SMOOTH",
"606 24 OFFCURVE",
"604 24 QCURVE SMOOTH",
"594 24 OFFCURVE",
"549 45 OFFCURVE",
"546 60 QCURVE SMOOTH",
"544 69 OFFCURVE",
"534 132 QCURVE SMOOTH",
"451 660 LINE",
"447 662 OFFCURVE",
"443 662 QCURVE SMOOTH",
"419 662 OFFCURVE",
"404 635 QCURVE SMOOTH",
"128 139 LINE SMOOTH",
"89 69 OFFCURVE",
"67 45 QCURVE SMOOTH",
"59 36 OFFCURVE",
"20 24 OFFCURVE",
"9 24 QCURVE SMOOTH",
"2 24 OFFCURVE",
"2 5 QCURVE SMOOTH",
"2 -1 OFFCURVE",
"4 -3 QCURVE",
"20 -2 OFFCURVE",
"54 0 OFFCURVE",
"83 2 OFFCURVE",
"102 2 QCURVE SMOOTH",
"104 2 OFFCURVE",
"197 -3 QCURVE",
"202 7 OFFCURVE",
"202 18 QCURVE SMOOTH",
"202 24 OFFCURVE",
"200 24 QCURVE SMOOTH",
"196 24 OFFCURVE",
"173 28 OFFCURVE",
"145 44 OFFCURVE",
"145 55 QCURVE SMOOTH",
"145 70 OFFCURVE",
"191 164 OFFCURVE",
"239 244 OFFCURVE",
"242 244 QCURVE SMOOTH",
"314 249 OFFCURVE",
"335 249 QCURVE SMOOTH",
"354 249 OFFCURVE",
"383 249 OFFCURVE",
"404 248 OFFCURVE",
"419 247 OFFCURVE",
"428 246 OFFCURVE",
"433 245 OFFCURVE",
"436 242 OFFCURVE",
"436 241 OFFCURVE",
"436 239 QCURVE SMOOTH",
"454 108 OFFCURVE"
);
},
{
closed = 1;
nodes = (
"272 299 QCURVE SMOOTH",
"271 299 OFFCURVE",
"271 303 OFFCURVE",
"394 526 QCURVE",
"397 505 OFFCURVE",
"414 393 OFFCURVE",
"427 309 OFFCURVE",
"427 304 QCURVE SMOOTH",
"427 300 OFFCURVE",
"423 300 QCURVE SMOOTH",
"394 298 OFFCURVE",
"348 298 QCURVE SMOOTH",
"295 298 OFFCURVE"
);
}
);
};
components = (
{
name = A;
},
{
name = gravecomb.case;
transform = "{1, 0, 0, 1, 222, 228}";
}
);
layerId = "02396921-8257-42A3-8ED5-3052446F9CE3";
width = 619;
},
{
background = {
paths = (
{
closed = 1;
nodes = (
"479 715 OFFCURVE",
"488 724 OFFCURVE",
"488 729 QCURVE SMOOTH",
"488 735 OFFCURVE",
"410 802 OFFCURVE",
"384 818 QCURVE",
"374 823 OFFCURVE",
"359 823 QCURVE SMOOTH",
"333 823 OFFCURVE",
"295 807 OFFCURVE",
"295 792 QCURVE SMOOTH",
"295 774 OFFCURVE",
"455 715 OFFCURVE",
"475 715 QCURVE SMOOTH"
);
},
{
closed = 1;
nodes = (
"399 231 OFFCURVE",
"417 228 QCURVE",
"422 228 OFFCURVE",
"422 223 QCURVE",
"442 89 OFFCURVE",
"442 80 QCURVE SMOOTH",
"442 62 OFFCURVE",
"436 50 QCURVE",
"431 42 OFFCURVE",
"391 27 OFFCURVE",
"381 27 QCURVE SMOOTH",
"375 27 OFFCURVE",
"375 3 QCURVE SMOOTH",
"375 -2 OFFCURVE",
"376 -3 QCURVE",
"490 3 OFFCURVE",
"501 3 QCURVE SMOOTH",
"504 3 OFFCURVE",
"615 -3 QCURVE",
"619 5 OFFCURVE",
"619 21 QCURVE SMOOTH",
"619 27 OFFCURVE",
"617 27 QCURVE SMOOTH",
"607 27 OFFCURVE",
"566 48 OFFCURVE",
"563 63 QCURVE SMOOTH",
"552 120 OFFCURVE",
"549 136 QCURVE SMOOTH",
"455 660 LINE",
"451 664 OFFCURVE",
"445 664 QCURVE SMOOTH",
"424 664 OFFCURVE",
"393 610 QCURVE SMOOTH",
"116 136 LINE SMOOTH",
"80 75 OFFCURVE",
"66 58 QCURVE",
"58 47 OFFCURVE",
"5 27 OFFCURVE",
"-6 27 QCURVE SMOOTH",
"-12 27 OFFCURVE",
"-12 4 QCURVE SMOOTH",
"-12 1 OFFCURVE",
"-10 -3 QCURVE",
"3 -2 OFFCURVE",
"74 3 OFFCURVE",
"99 3 QCURVE SMOOTH",
"123 3 OFFCURVE",
"180 -2 OFFCURVE",
"191 -3 QCURVE",
"197 9 OFFCURVE",
"197 22 QCURVE SMOOTH",
"197 27 OFFCURVE",
"195 27 QCURVE SMOOTH",
"183 27 OFFCURVE",
"135 44 OFFCURVE",
"135 60 QCURVE SMOOTH",
"135 79 OFFCURVE",
"166 131 QCURVE SMOOTH",
"173 143 OFFCURVE",
"218 215 OFFCURVE",
"223 224 QCURVE",
"225 228 OFFCURVE",
"229 228 QCURVE",
"286 231 OFFCURVE",
"323 231 QCURVE SMOOTH"
);
},
{
closed = 1;
nodes = (
"293 285 OFFCURVE",
"263 288 QCURVE",
"263 290 LINE",
"378 492 LINE",
"380 478 OFFCURVE",
"408 312 OFFCURVE",
"411 292 QCURVE",
"411 288 OFFCURVE",
"407 288 QCURVE",
"364 285 OFFCURVE",
"335 285 QCURVE SMOOTH"
);
}
);
};
components = (
{
name = A;
},
{
name = gravecomb.case;
transform = "{1, 0, 0, 1, 214, 228}";
}
);
layerId = "B85C165C-5F8F-4735-B7B6-8DF6357F77F6";
width = 648;
},
{
background = {
paths = (
{
closed = 1;
nodes = (
"473 715 OFFCURVE",
"480 727 OFFCURVE",
"480 734 CURVE SMOOTH",
"480 745 OFFCURVE",
"391 813 OFFCURVE",
"369 825 CURVE SMOOTH",
"360 830 OFFCURVE",
"349 833 OFFCURVE",
"337 833 CURVE SMOOTH",
"305 833 OFFCURVE",
"267 822 OFFCURVE",
"267 795 CURVE SMOOTH",
"267 771 OFFCURVE",
"439 715 OFFCURVE",
"466 715 CURVE SMOOTH"
);
},
{
closed = 1;
nodes = (
"340.667 213 OFFCURVE",
"371 212.333 OFFCURVE",
"395 211 CURVE",
"399 211 OFFCURVE",
"401 209.667 OFFCURVE",
"401 207 CURVE",
"415.667 121 OFFCURVE",
"423 75 OFFCURVE",
"423 69 CURVE SMOOTH",
"423 64.333 OFFCURVE",
"421.333 59.667 OFFCURVE",
"418 55 CURVE",
"389.753 22.717 OFFCURVE",
"359 50.253 OFFCURVE",
"359 3 CURVE SMOOTH",
"359 -1 OFFCURVE",
"359.333 -3.333 OFFCURVE",
"360 -4 CURVE",
"439.333 0.667 OFFCURVE",
"485.333 3 OFFCURVE",
"498 3 CURVE SMOOTH",
"514 3 OFFCURVE",
"537.833 1.833 OFFCURVE",
"569.5 -0.5 CURVE SMOOTH",
"601.167 -2.833 OFFCURVE",
"618 -4 OFFCURVE",
"620 -4 CURVE",
"624.667 2 OFFCURVE",
"627 11.667 OFFCURVE",
"627 25 CURVE SMOOTH",
"627 28.333 OFFCURVE",
"626.333 30 OFFCURVE",
"625 30 CURVE SMOOTH",
"610.333 30 OFFCURVE",
"569 44.667 OFFCURVE",
"565 66 CURVE SMOOTH",
"558.333 98.667 OFFCURVE",
"553.667 123.667 OFFCURVE",
"551 141 CURVE",
"446 659 LINE",
"444 664.333 OFFCURVE",
"440 667 OFFCURVE",
"434 667 CURVE SMOOTH",
"426 667 OFFCURVE",
"416.833 659.833 OFFCURVE",
"405.5 644.5 CURVE SMOOTH",
"399.833 636.833 OFFCURVE",
"395.333 630.5 OFFCURVE",
"392 625.5 CURVE SMOOTH",
"388.667 620.5 OFFCURVE",
"380.667 607.333 OFFCURVE",
"368 586 CURVE SMOOTH",
"96 134 LINE SMOOTH",
"76 100.667 OFFCURVE",
"63 79.667 OFFCURVE",
"57 71 CURVE",
"45 55 OFFCURVE",
"-14.667 30 OFFCURVE",
"-28 30 CURVE SMOOTH",
"-31.333 30 OFFCURVE",
"-33 21.333 OFFCURVE",
"-33 4 CURVE SMOOTH",
"-33 0 OFFCURVE",
"-32.667 -2.667 OFFCURVE",
"-32 -4 CURVE",
"-22.667 -3.333 OFFCURVE",
"-4.833 -2 OFFCURVE",
"21.5 0 CURVE SMOOTH",
"47.833 2 OFFCURVE",
"69.333 3 OFFCURVE",
"86 3 CURVE SMOOTH",
"102 3 OFFCURVE",
"120.667 2 OFFCURVE",
"142 0 CURVE SMOOTH",
"163.333 -2 OFFCURVE",
"178 -3.333 OFFCURVE",
"186 -4 CURVE",
"189.333 2.667 OFFCURVE",
"191 12.667 OFFCURVE",
"191 26 CURVE SMOOTH",
"191 28.667 OFFCURVE",
"190.333 30 OFFCURVE",
"189 30 CURVE SMOOTH",
"124.335 30 OFFCURVE",
"103.25 51.189 OFFCURVE",
"157 131 CURVE",
"202 207 LINE",
"203.333 208.333 OFFCURVE",
"215 212 OFFCURVE",
"219 212 CURVE SMOOTH",
"241 212.667 OFFCURVE",
"269.333 213 OFFCURVE",
"304 213 CURVE SMOOTH"
);
},
{
closed = 1;
nodes = (
"288.667 273 OFFCURVE",
"266 274 OFFCURVE",
"248 276 CURVE",
"246.667 276 OFFCURVE",
"245.667 278.667 OFFCURVE",
"247 280 CURVE",
"355 458 LINE",
"387 280 LINE",
"387 276.667 OFFCURVE",
"385.667 275 OFFCURVE",
"383 275 CURVE",
"363.667 273.667 OFFCURVE",
"341.333 273 OFFCURVE",
"316 273 CURVE SMOOTH"
);
}
);
};
components = (
{
name = A;
},
{
name = gravecomb.case;
transform = "{1, 0, 0, 1, 260, 228}";
}
);
layerId = "C43979EA-9F64-4F78-971C-933464F87A97";
width = 656;
}
);
leftKerningGroup = A;
note = Agrave;
rightKerningGroup = A;
unicode = 00C0;
},
{
color = 10;
glyphname = Amacron;
lastChange = "2022-03-10 16:51:15 +0000";
layers = (
{
background = {
paths = (
{
closed = 1;
nodes = (
"333 730 QCURVE",
"338 728 OFFCURVE",
"338 728 QCURVE",
"568 728 LINE",
"570 728 LINE",
"571 729 OFFCURVE",
"576 732 OFFCURVE",
"577 735 QCURVE SMOOTH",
"587 756 OFFCURVE",
"590 769 QCURVE SMOOTH",
"591 776 OFFCURVE",
"586 776 QCURVE SMOOTH",
"354 776 LINE SMOOTH",
"346 776 OFFCURVE",
"333 742 OFFCURVE",
"333 737 QCURVE",
"332 733 OFFCURVE"
);
},
{
closed = 1;
nodes = (
"454 91 QCURVE SMOOTH",
"454 59 OFFCURVE",
"447 44 QCURVE SMOOTH",
"442 36 OFFCURVE",
"406 24 OFFCURVE",
"396 24 QCURVE SMOOTH",
"389 24 OFFCURVE",
"389 3 QCURVE SMOOTH",
"389 -2 OFFCURVE",
"390 -3 QCURVE",
"405 -2 OFFCURVE",
"445 0 OFFCURVE",
"478 2 OFFCURVE",
"497 2 QCURVE SMOOTH",
"508 2 OFFCURVE",
"601 -3 QCURVE",
"606 7 OFFCURVE",
"606 19 QCURVE SMOOTH",
"606 24 OFFCURVE",
"604 24 QCURVE SMOOTH",
"594 24 OFFCURVE",
"549 45 OFFCURVE",
"546 60 QCURVE SMOOTH",
"544 69 OFFCURVE",
"534 132 QCURVE SMOOTH",
"451 660 LINE",
"447 662 OFFCURVE",
"443 662 QCURVE SMOOTH",
"419 662 OFFCURVE",
"404 635 QCURVE SMOOTH",
"128 139 LINE SMOOTH",
"89 69 OFFCURVE",
"67 45 QCURVE SMOOTH",
"59 36 OFFCURVE",
"20 24 OFFCURVE",
"9 24 QCURVE SMOOTH",
"2 24 OFFCURVE",
"2 5 QCURVE SMOOTH",
"2 -1 OFFCURVE",
"4 -3 QCURVE",
"20 -2 OFFCURVE",
"54 0 OFFCURVE",
"83 2 OFFCURVE",
"102 2 QCURVE SMOOTH",
"104 2 OFFCURVE",
"197 -3 QCURVE",
"202 7 OFFCURVE",
"202 18 QCURVE SMOOTH",
"202 24 OFFCURVE",
"200 24 QCURVE SMOOTH",
"196 24 OFFCURVE",
"173 28 OFFCURVE",
"145 44 OFFCURVE",
"145 55 QCURVE SMOOTH",
"145 70 OFFCURVE",
"191 164 OFFCURVE",
"239 244 OFFCURVE",
"242 244 QCURVE SMOOTH",
"314 249 OFFCURVE",
"335 249 QCURVE SMOOTH",
"354 249 OFFCURVE",
"383 249 OFFCURVE",
"404 248 OFFCURVE",
"419 247 OFFCURVE",
"428 246 OFFCURVE",
"433 245 OFFCURVE",
"436 242 OFFCURVE",
"436 241 OFFCURVE",
"436 239 QCURVE SMOOTH",
"454 108 OFFCURVE"
);
},
{
closed = 1;
nodes = (
"272 299 QCURVE SMOOTH",
"271 299 OFFCURVE",
"271 303 OFFCURVE",
"394 526 QCURVE",
"397 505 OFFCURVE",
"414 393 OFFCURVE",
"427 309 OFFCURVE",
"427 304 QCURVE SMOOTH",
"427 300 OFFCURVE",
"423 300 QCURVE SMOOTH",
"394 298 OFFCURVE",
"348 298 QCURVE SMOOTH",
"295 298 OFFCURVE"
);
}
);
};
components = (
{
name = A;
},
{
name = macroncomb.case;
transform = "{1, 0, 0, 1, 225, 228}";
}
);
layerId = "02396921-8257-42A3-8ED5-3052446F9CE3";
width = 619;
},
{
background = {
paths = (
{
closed = 1;
nodes = (
"314 732 OFFCURVE",
"321 732 QCURVE SMOOTH",
"571 732 LINE",
"572 734 OFFCURVE",
"581 749 OFFCURVE",
"588 767 OFFCURVE",
"591 779 QCURVE SMOOTH",
"593 787 OFFCURVE",
"587 787 QCURVE SMOOTH",
"337 787 LINE SMOOTH",
"331 787 OFFCURVE",
"314 748 OFFCURVE",
"314 739 QCURVE SMOOTH"
);
},
{
closed = 1;
nodes = (
"399 231 OFFCURVE",
"417 228 QCURVE",
"422 228 OFFCURVE",
"422 223 QCURVE",
"442 89 OFFCURVE",
"442 80 QCURVE SMOOTH",
"442 62 OFFCURVE",
"436 50 QCURVE",
"431 42 OFFCURVE",
"391 27 OFFCURVE",
"381 27 QCURVE SMOOTH",
"375 27 OFFCURVE",
"375 3 QCURVE SMOOTH",
"375 -2 OFFCURVE",
"376 -3 QCURVE",
"490 3 OFFCURVE",
"501 3 QCURVE SMOOTH",
"504 3 OFFCURVE",
"615 -3 QCURVE",
"619 5 OFFCURVE",
"619 21 QCURVE SMOOTH",
"619 27 OFFCURVE",
"617 27 QCURVE SMOOTH",
"607 27 OFFCURVE",
"566 48 OFFCURVE",
"563 63 QCURVE SMOOTH",
"552 120 OFFCURVE",
"549 136 QCURVE SMOOTH",
"455 660 LINE",
"451 664 OFFCURVE",
"445 664 QCURVE SMOOTH",
"424 664 OFFCURVE",
"393 610 QCURVE SMOOTH",
"116 136 LINE SMOOTH",
"80 75 OFFCURVE",
"66 58 QCURVE",
"58 47 OFFCURVE",
"5 27 OFFCURVE",
"-6 27 QCURVE SMOOTH",
"-12 27 OFFCURVE",
"-12 4 QCURVE SMOOTH",
"-12 1 OFFCURVE",
"-10 -3 QCURVE",
"3 -2 OFFCURVE",
"74 3 OFFCURVE",
"99 3 QCURVE SMOOTH",
"123 3 OFFCURVE",
"180 -2 OFFCURVE",
"191 -3 QCURVE",
"197 9 OFFCURVE",
"197 22 QCURVE SMOOTH",
"197 27 OFFCURVE",
"195 27 QCURVE SMOOTH",
"183 27 OFFCURVE",
"135 44 OFFCURVE",
"135 60 QCURVE SMOOTH",
"135 79 OFFCURVE",
"166 131 QCURVE SMOOTH",
"173 143 OFFCURVE",
"218 215 OFFCURVE",
"223 224 QCURVE",
"225 228 OFFCURVE",
"229 228 QCURVE",
"286 231 OFFCURVE",
"323 231 QCURVE SMOOTH"
);
},
{
closed = 1;
nodes = (
"293 285 OFFCURVE",
"263 288 QCURVE",
"263 290 LINE",
"378 492 LINE",
"380 478 OFFCURVE",
"408 312 OFFCURVE",
"411 292 QCURVE",
"411 288 OFFCURVE",
"407 288 QCURVE",
"364 285 OFFCURVE",
"335 285 QCURVE SMOOTH"
);
}
);
};
components = (
{
name = A;
},
{
name = macroncomb.case;
transform = "{1, 0, 0, 1, 257, 228}";
}
);
layerId = "B85C165C-5F8F-4735-B7B6-8DF6357F77F6";
width = 648;
},
{
background = {
paths = (
{
closed = 1;
nodes = (
"302 733 OFFCURVE",
"303 728 OFFCURVE",
"307 728 CURVE SMOOTH",
"575 728 LINE",
"579 732 LINE SMOOTH",
"582 735 OFFCURVE",
"585 741 OFFCURVE",
"589 751 CURVE SMOOTH",
"593 760 OFFCURVE",
"597 772 OFFCURVE",
"600 787 CURVE",
"602 794 OFFCURVE",
"601 797 OFFCURVE",
"596 797 CURVE SMOOTH",
"329 797 LINE SMOOTH",
"321 797 OFFCURVE",
"313 778 OFFCURVE",
"304 739 CURVE"
);
},
{
closed = 1;
nodes = (
"340.667 213 OFFCURVE",
"371 212.333 OFFCURVE",
"395 211 CURVE",
"399 211 OFFCURVE",
"401 209.667 OFFCURVE",
"401 207 CURVE",
"415.667 121 OFFCURVE",
"423 75 OFFCURVE",
"423 69 CURVE SMOOTH",
"423 64.333 OFFCURVE",
"421.333 59.667 OFFCURVE",
"418 55 CURVE",
"389.753 22.717 OFFCURVE",
"359 50.253 OFFCURVE",
"359 3 CURVE SMOOTH",
"359 -1 OFFCURVE",
"359.333 -3.333 OFFCURVE",
"360 -4 CURVE",
"439.333 0.667 OFFCURVE",
"485.333 3 OFFCURVE",
"498 3 CURVE SMOOTH",
"514 3 OFFCURVE",
"537.833 1.833 OFFCURVE",
"569.5 -0.5 CURVE SMOOTH",
"601.167 -2.833 OFFCURVE",
"618 -4 OFFCURVE",
"620 -4 CURVE",
"624.667 2 OFFCURVE",
"627 11.667 OFFCURVE",
"627 25 CURVE SMOOTH",
"627 28.333 OFFCURVE",
"626.333 30 OFFCURVE",
"625 30 CURVE SMOOTH",
"610.333 30 OFFCURVE",
"569 44.667 OFFCURVE",
"565 66 CURVE SMOOTH",
"558.333 98.667 OFFCURVE",
"553.667 123.667 OFFCURVE",
"551 141 CURVE",
"446 659 LINE",
"444 664.333 OFFCURVE",
"440 667 OFFCURVE",
"434 667 CURVE SMOOTH",
"426 667 OFFCURVE",
"416.833 659.833 OFFCURVE",
"405.5 644.5 CURVE SMOOTH",
"399.833 636.833 OFFCURVE",
"395.333 630.5 OFFCURVE",
"392 625.5 CURVE SMOOTH",
"388.667 620.5 OFFCURVE",
"380.667 607.333 OFFCURVE",
"368 586 CURVE SMOOTH",
"96 134 LINE SMOOTH",
"76 100.667 OFFCURVE",
"63 79.667 OFFCURVE",
"57 71 CURVE",
"45 55 OFFCURVE",
"-14.667 30 OFFCURVE",
"-28 30 CURVE SMOOTH",
"-31.333 30 OFFCURVE",
"-33 21.333 OFFCURVE",
"-33 4 CURVE SMOOTH",
"-33 0 OFFCURVE",
"-32.667 -2.667 OFFCURVE",
"-32 -4 CURVE",
"-22.667 -3.333 OFFCURVE",
"-4.833 -2 OFFCURVE",
"21.5 0 CURVE SMOOTH",
"47.833 2 OFFCURVE",
"69.333 3 OFFCURVE",
"86 3 CURVE SMOOTH",
"102 3 OFFCURVE",
"120.667 2 OFFCURVE",
"142 0 CURVE SMOOTH",
"163.333 -2 OFFCURVE",
"178 -3.333 OFFCURVE",
"186 -4 CURVE",
"189.333 2.667 OFFCURVE",
"191 12.667 OFFCURVE",
"191 26 CURVE SMOOTH",
"191 28.667 OFFCURVE",
"190.333 30 OFFCURVE",
"189 30 CURVE SMOOTH",
"124.335 30 OFFCURVE",
"103.25 51.189 OFFCURVE",
"157 131 CURVE",
"202 207 LINE",
"203.333 208.333 OFFCURVE",
"215 212 OFFCURVE",
"219 212 CURVE SMOOTH",
"241 212.667 OFFCURVE",
"269.333 213 OFFCURVE",
"304 213 CURVE SMOOTH"
);
},
{
closed = 1;
nodes = (
"288.667 273 OFFCURVE",
"266 274 OFFCURVE",
"248 276 CURVE",
"246.667 276 OFFCURVE",
"245.667 278.667 OFFCURVE",
"247 280 CURVE",
"355 458 LINE",
"387 280 LINE",
"387 276.667 OFFCURVE",
"385.667 275 OFFCURVE",
"383 275 CURVE",
"363.667 273.667 OFFCURVE",
"341.333 273 OFFCURVE",
"316 273 CURVE SMOOTH"
);
}
);
};
components = (
{
name = A;
},
{
name = macroncomb.case;
transform = "{1, 0, 0, 1, 229, 228}";
}
);
layerId = "C43979EA-9F64-4F78-971C-933464F87A97";
width = 656;
}
);
leftKerningGroup = A;
note = Amacron;
rightKerningGroup = A;
unicode = 0100;
},
{
color = 10;
glyphname = Aogonek;
lastChange = "2022-03-10 16:51:15 +0000";
layers = (
{
background = {
paths = (
{
closed = 1;
nodes = (
"267 299 QCURVE SMOOTH",
"266 299 OFFCURVE",
"266 303 OFFCURVE",
"389 526 QCURVE",
"392 505 OFFCURVE",
"409 393 OFFCURVE",
"422 309 OFFCURVE",
"422 304 QCURVE SMOOTH",
"422 300 OFFCURVE",
"418 300 QCURVE SMOOTH",
"389 298 OFFCURVE",
"343 298 QCURVE SMOOTH",
"290 298 OFFCURVE"
);
},
{
closed = 1;
nodes = (
"84 69 OFFCURVE",
"62 45 QCURVE SMOOTH",
"54 36 OFFCURVE",
"15 24 OFFCURVE",
"4 24 QCURVE SMOOTH",
"-3 24 OFFCURVE",
"-3 5 QCURVE SMOOTH",
"-3 -1 OFFCURVE",
"-1 -3 QCURVE",
"15 -2 OFFCURVE",
"49 0 OFFCURVE",
"78 2 OFFCURVE",
"97 2 QCURVE SMOOTH",
"100 2 OFFCURVE",
"192 -3 QCURVE",
"197 7 OFFCURVE",
"197 18 QCURVE SMOOTH",
"197 24 OFFCURVE",
"195 24 QCURVE SMOOTH",
"191 24 OFFCURVE",
"168 28 OFFCURVE",
"140 44 OFFCURVE",
"140 55 QCURVE SMOOTH",
"140 70 OFFCURVE",
"188 164 OFFCURVE",
"235 242 OFFCURVE",
"237 244 QCURVE SMOOTH",
"240 246 LINE",
"294 249 OFFCURVE",
"330 249 QCURVE SMOOTH",
"423 249 OFFCURVE",
"428 244 QCURVE SMOOTH",
"431 241 OFFCURVE",
"431 239 QCURVE SMOOTH",
"454 72 OFFCURVE",
"454 63 QCURVE SMOOTH",
"454 43 OFFCURVE",
"433 16 OFFCURVE",
"401 -11 QCURVE SMOOTH",
"359 -46 OFFCURVE",
"293 -140 OFFCURVE",
"293 -178 QCURVE SMOOTH",
"293 -199 OFFCURVE",
"322 -230 OFFCURVE",
"344 -230 QCURVE SMOOTH",
"395 -230 OFFCURVE",
"455 -163 QCURVE SMOOTH",
"458 -160 OFFCURVE",
"466 -134 OFFCURVE",
"461 -133 QCURVE SMOOTH",
"460 -133 OFFCURVE",
"437 -152 OFFCURVE",
"399 -171 OFFCURVE",
"378 -171 QCURVE SMOOTH",
"347 -171 OFFCURVE",
"347 -139 QCURVE SMOOTH",
"347 -100 OFFCURVE",
"469 1 OFFCURVE",
"519 1 QCURVE SMOOTH",
"520 1 OFFCURVE",
"548 -1 OFFCURVE",
"585 -3 OFFCURVE",
"596 -3 QCURVE",
"601 7 OFFCURVE",
"601 19 QCURVE SMOOTH",
"601 24 OFFCURVE",
"599 24 QCURVE SMOOTH",
"589 24 OFFCURVE",
"544 45 OFFCURVE",
"541 60 QCURVE SMOOTH",
"539 69 OFFCURVE",
"529 132 QCURVE SMOOTH",
"446 660 LINE",
"442 662 OFFCURVE",
"438 662 QCURVE SMOOTH",
"414 662 OFFCURVE",
"399 635 QCURVE SMOOTH",
"123 139 LINE SMOOTH"
);
}
);
};
components = (
{
name = A;
},
{
name = ogonekcomb;
transform = "{1, 0, 0, 1, 353, -12}";
}
);
layerId = "02396921-8257-42A3-8ED5-3052446F9CE3";
width = 619;
},
{
background = {
paths = (
{
closed = 1;
nodes = (
"300 285 OFFCURVE",
"270 288 QCURVE",
"269 288 OFFCURVE",
"269 290 QCURVE",
"385 492 LINE",
"387 478 OFFCURVE",
"414 312 OFFCURVE",
"417 292 QCURVE",
"417 288 OFFCURVE",
"413 288 QCURVE",
"370 285 OFFCURVE",
"342 285 QCURVE SMOOTH"
);
},
{
closed = 1;
nodes = (
"117 136 LINE SMOOTH",
"100 108 OFFCURVE",
"98 105 QCURVE",
"83 80 OFFCURVE",
"25 38 QCURVE SMOOTH",
"-7 14 LINE",
"-9 12 OFFCURVE",
"-9 0 QCURVE",
"51 0 LINE SMOOTH",
"83 1 OFFCURVE",
"154 -1 QCURVE",
"166 0 OFFCURVE",
"197 11 OFFCURVE",
"204 12 QCURVE",
"205 16 OFFCURVE",
"205 24 QCURVE",
"204 24 OFFCURVE",
"193 28 OFFCURVE",
"182 31 OFFCURVE",
"172 39 OFFCURVE",
"172 44 QCURVE SMOOTH",
"172 45 OFFCURVE",
"160 60 OFFCURVE",
"156 76 OFFCURVE",
"161 93 QCURVE",
"161 101 OFFCURVE",
"196 167 OFFCURVE",
"231 225 OFFCURVE",
"232 226 QCURVE",
"232 229 OFFCURVE",
"237 229 QCURVE",
"271 231 OFFCURVE",
"329 231 QCURVE SMOOTH",
"413 231 OFFCURVE",
"424 228 QCURVE",
"429 226 OFFCURVE",
"429 223 QCURVE",
"451 76 OFFCURVE",
"451 66 QCURVE SMOOTH",
"451 41 OFFCURVE",
"417 12 QCURVE",
"293 -102 OFFCURVE",
"293 -167 QCURVE SMOOTH",
"293 -191 OFFCURVE",
"324 -223 OFFCURVE",
"347 -223 QCURVE SMOOTH",
"402 -223 OFFCURVE",
"461 -157 QCURVE",
"464 -154 OFFCURVE",
"472 -126 OFFCURVE",
"467 -125 QCURVE",
"466 -125 OFFCURVE",
"445 -141 OFFCURVE",
"408 -157 OFFCURVE",
"387 -157 QCURVE SMOOTH",
"358 -157 OFFCURVE",
"358 -130 QCURVE SMOOTH",
"358 -90 OFFCURVE",
"465 2 OFFCURVE",
"517 2 QCURVE SMOOTH",
"523 2 OFFCURVE",
"616 -4 QCURVE",
"622 8 OFFCURVE",
"622 22 QCURVE SMOOTH",
"622 27 OFFCURVE",
"620 27 QCURVE SMOOTH",
"610 27 OFFCURVE",
"564 48 OFFCURVE",
"561 63 QCURVE SMOOTH",
"555 94 OFFCURVE",
"548 136 QCURVE SMOOTH",
"454 660 LINE",
"450 664 OFFCURVE",
"444 664 QCURVE SMOOTH",
"433 664 OFFCURVE",
"402 629 OFFCURVE",
"391 610 QCURVE SMOOTH"
);
}
);
};
components = (
{
name = A;
},
{
name = ogonekcomb;
transform = "{1, 0, 0, 1, 458, 10}";
}
);
layerId = "B85C165C-5F8F-4735-B7B6-8DF6357F77F6";
width = 648;
},
{
background = {
paths = (
{
closed = 1;
nodes = (
"323.667 273 OFFCURVE",
"301 274 OFFCURVE",
"283 276 CURVE",
"281.667 276 OFFCURVE",
"280.667 278.667 OFFCURVE",
"282 280 CURVE",
"354 398.667 OFFCURVE",
"390 458 OFFCURVE",
"390 458 CURVE",
"411.333 339.333 OFFCURVE",
"422 280 OFFCURVE",
"422 280 CURVE",
"422 276.667 OFFCURVE",
"420.667 275 OFFCURVE",
"418 275 CURVE",
"398.667 273.667 OFFCURVE",
"376.333 273 OFFCURVE",
"351 273 CURVE SMOOTH"
);
},
{
closed = 1;
nodes = (
"122 134 LINE SMOOTH",
"102 100.667 OFFCURVE",
"89 79.667 OFFCURVE",
"83 71 CURVE",
"71 55 OFFCURVE",
"11.333 30 OFFCURVE",
"-2 30 CURVE SMOOTH",
"-5.333 30 OFFCURVE",
"-7 21.333 OFFCURVE",
"-7 4 CURVE SMOOTH",
"-7 0 OFFCURVE",
"-6.667 -2.667 OFFCURVE",
"-6 -4 CURVE",
"3.333 -3.333 OFFCURVE",
"21.167 -2 OFFCURVE",
"47.5 0 CURVE SMOOTH",
"73.833 2 OFFCURVE",
"95.333 3 OFFCURVE",
"112 3 CURVE SMOOTH",
"128 3 OFFCURVE",
"148.667 1.833 OFFCURVE",
"174 -0.5 CURVE SMOOTH",
"199.333 -2.833 OFFCURVE",
"215 -4 OFFCURVE",
"221 -4 CURVE",
"224.333 2.667 OFFCURVE",
"226 12.667 OFFCURVE",
"226 26 CURVE SMOOTH",
"226 28.667 OFFCURVE",
"225.333 30 OFFCURVE",
"224 30 CURVE SMOOTH",
"159.335 30 OFFCURVE",
"138.25 51.189 OFFCURVE",
"192 131 CURVE",
"237 207 LINE SMOOTH",
"239 210.333 OFFCURVE",
"241.667 212 OFFCURVE",
"245 212 CURVE SMOOTH",
"267 212.667 OFFCURVE",
"298.333 213 OFFCURVE",
"339 213 CURVE SMOOTH",
"375.667 213 OFFCURVE",
"406 212.333 OFFCURVE",
"430 211 CURVE",
"434 211 OFFCURVE",
"436 209.667 OFFCURVE",
"436 207 CURVE",
"450.667 121 OFFCURVE",
"458 75 OFFCURVE",
"458 69 CURVE SMOOTH",
"458 57 OFFCURVE",
"452.667 45.667 OFFCURVE",
"442 35 CURVE SMOOTH",
"395.333 -9.667 OFFCURVE",
"360.333 -46.5 OFFCURVE",
"337 -75.5 CURVE SMOOTH",
"313.667 -104.5 OFFCURVE",
"302 -131.333 OFFCURVE",
"302 -156 CURVE SMOOTH",
"302 -190.667 OFFCURVE",
"328.333 -216 OFFCURVE",
"359 -216 CURVE SMOOTH",
"397.667 -216 OFFCURVE",
"448.667 -185.333 OFFCURVE",
"478 -152 CURVE",
"482 -148 OFFCURVE",
"489.667 -118.333 OFFCURVE",
"483 -117 CURVE",
"477.845 -117 OFFCURVE",
"431.861 -144 OFFCURVE",
"406 -144 CURVE SMOOTH",
"387.333 -144 OFFCURVE",
"378 -132 OFFCURVE",
"378 -120 CURVE SMOOTH",
"378 -66.667 OFFCURVE",
"453.333 3 OFFCURVE",
"524 3 CURVE SMOOTH",
"540 3 OFFCURVE",
"563.833 1.833 OFFCURVE",
"595.5 -0.5 CURVE SMOOTH",
"627.167 -2.833 OFFCURVE",
"644 -4 OFFCURVE",
"646 -4 CURVE",
"650.667 2 OFFCURVE",
"653 11.667 OFFCURVE",
"653 25 CURVE SMOOTH",
"653 28.333 OFFCURVE",
"652.333 30 OFFCURVE",
"651 30 CURVE SMOOTH",
"636.333 30 OFFCURVE",
"595 44.667 OFFCURVE",
"591 66 CURVE SMOOTH",
"584.333 98.667 OFFCURVE",
"579.667 123.667 OFFCURVE",
"577 141 CURVE",
"472 659 LINE",
"470 664.333 OFFCURVE",
"466 667 OFFCURVE",
"460 667 CURVE SMOOTH",
"452 667 OFFCURVE",
"442.667 659.833 OFFCURVE",
"432 644.5 CURVE SMOOTH",
"426.667 636.833 OFFCURVE",
"422.167 630.5 OFFCURVE",
"418.5 625.5 CURVE SMOOTH",
"414.833 620.5 OFFCURVE",
"406.667 607.333 OFFCURVE",
"394 586 CURVE SMOOTH"
);
}
);
};
components = (
{
name = A;
},
{
name = ogonekcomb;
transform = "{1, 0, 0, 1, 424, 13}";
}
);
layerId = "C43979EA-9F64-4F78-971C-933464F87A97";
width = 656;
}
);
leftKerningGroup = A;
note = Aogonek;
rightKerningGroup = A;
unicode = 0104;
},
{
color = 10;
glyphname = Aring;
lastChange = "2022-03-10 16:51:15 +0000";
layers = (
{
background = {
paths = (
{
closed = 1;
nodes = (
"479 804 OFFCURVE",
"502 772 OFFCURVE",
"492 726 OFFCURVE",
"457 693 OFFCURVE",
"415 693 OFFCURVE",
"391 726 OFFCURVE",
"399 772 OFFCURVE",
"437 804 OFFCURVE"
);
},
{
closed = 1;
nodes = (
"430 659 OFFCURVE",
"463 659 OFFCURVE",
"520 712 OFFCURVE",
"536 786 OFFCURVE",
"499 838 OFFCURVE",
"431 838 OFFCURVE",
"371 786 OFFCURVE",
"357 712 OFFCURVE",
"396 659 OFFCURVE"
);
},
{
closed = 1;
nodes = (
"454 91 QCURVE SMOOTH",
"454 59 OFFCURVE",
"447 44 QCURVE SMOOTH",
"442 36 OFFCURVE",
"406 24 OFFCURVE",
"396 24 QCURVE SMOOTH",
"389 24 OFFCURVE",
"389 3 QCURVE SMOOTH",
"389 -2 OFFCURVE",
"390 -3 QCURVE",
"405 -2 OFFCURVE",
"445 0 OFFCURVE",
"478 2 OFFCURVE",
"497 2 QCURVE SMOOTH",
"508 2 OFFCURVE",
"601 -3 QCURVE",
"606 7 OFFCURVE",
"606 19 QCURVE SMOOTH",
"606 24 OFFCURVE",
"604 24 QCURVE SMOOTH",
"594 24 OFFCURVE",
"549 45 OFFCURVE",
"546 60 QCURVE SMOOTH",
"544 69 OFFCURVE",
"534 132 QCURVE SMOOTH",
"451 660 LINE",
"447 662 OFFCURVE",
"443 662 QCURVE SMOOTH",
"419 662 OFFCURVE",
"404 635 QCURVE SMOOTH",
"128 139 LINE SMOOTH",
"89 69 OFFCURVE",
"67 45 QCURVE SMOOTH",
"59 36 OFFCURVE",
"20 24 OFFCURVE",
"9 24 QCURVE SMOOTH",
"2 24 OFFCURVE",
"2 5 QCURVE SMOOTH",
"2 -1 OFFCURVE",
"4 -3 QCURVE",
"20 -2 OFFCURVE",
"54 0 OFFCURVE",
"83 2 OFFCURVE",
"102 2 QCURVE SMOOTH",
"104 2 OFFCURVE",
"197 -3 QCURVE",
"202 7 OFFCURVE",
"202 18 QCURVE SMOOTH",
"202 24 OFFCURVE",
"200 24 QCURVE SMOOTH",
"196 24 OFFCURVE",
"173 28 OFFCURVE",
"145 44 OFFCURVE",
"145 55 QCURVE SMOOTH",
"145 70 OFFCURVE",
"191 164 OFFCURVE",
"239 244 OFFCURVE",
"242 244 QCURVE SMOOTH",
"314 249 OFFCURVE",
"335 249 QCURVE SMOOTH",
"354 249 OFFCURVE",
"383 249 OFFCURVE",
"404 248 OFFCURVE",
"419 247 OFFCURVE",
"428 246 OFFCURVE",
"433 245 OFFCURVE",
"436 242 OFFCURVE",
"436 241 OFFCURVE",
"436 239 QCURVE SMOOTH",
"454 108 OFFCURVE"
);
},
{
closed = 1;
nodes = (
"272 299 QCURVE SMOOTH",
"271 299 OFFCURVE",
"271 303 OFFCURVE",
"394 526 QCURVE",
"397 505 OFFCURVE",
"414 393 OFFCURVE",
"427 309 OFFCURVE",
"427 304 QCURVE SMOOTH",
"427 300 OFFCURVE",
"423 300 QCURVE SMOOTH",
"394 298 OFFCURVE",
"348 298 QCURVE SMOOTH",
"295 298 OFFCURVE"
);
}
);
};
components = (
{
name = A;
},
{
alignment = -1;
name = ringcomb.case;
transform = "{1, 0, 0, 1, 242, 152}";
}
);
layerId = "02396921-8257-42A3-8ED5-3052446F9CE3";
width = 619;
},
{
background = {
paths = (
{
closed = 1;
nodes = (
"484 817 OFFCURVE",
"506 791 OFFCURVE",
"506 771 QCURVE SMOOTH",
"506 744 OFFCURVE",
"468 701 OFFCURVE",
"442 701 QCURVE SMOOTH",
"422 701 OFFCURVE",
"399 727 OFFCURVE",
"399 747 QCURVE SMOOTH",
"399 774 OFFCURVE",
"437 817 OFFCURVE",
"464 817 QCURVE SMOOTH"
);
},
{
closed = 1;
nodes = (
"431 857 OFFCURVE",
"359 787 OFFCURVE",
"359 740 QCURVE SMOOTH",
"359 706 OFFCURVE",
"401 660 OFFCURVE",
"434 660 QCURVE SMOOTH",
"476 660 OFFCURVE",
"546 732 OFFCURVE",
"546 778 QCURVE SMOOTH",
"546 812 OFFCURVE",
"505 857 OFFCURVE",
"472 857 QCURVE SMOOTH"
);
},
{
closed = 1;
nodes = (
"399 231 OFFCURVE",
"417 228 QCURVE",
"422 228 OFFCURVE",
"422 223 QCURVE",
"442 89 OFFCURVE",
"442 80 QCURVE SMOOTH",
"442 62 OFFCURVE",
"436 50 QCURVE",
"431 42 OFFCURVE",
"391 27 OFFCURVE",
"381 27 QCURVE SMOOTH",
"375 27 OFFCURVE",
"375 3 QCURVE SMOOTH",
"375 -2 OFFCURVE",
"376 -3 QCURVE",
"490 3 OFFCURVE",
"501 3 QCURVE SMOOTH",
"504 3 OFFCURVE",
"615 -3 QCURVE",
"619 5 OFFCURVE",
"619 21 QCURVE SMOOTH",
"619 27 OFFCURVE",
"617 27 QCURVE SMOOTH",
"607 27 OFFCURVE",
"566 48 OFFCURVE",
"563 63 QCURVE SMOOTH",
"552 120 OFFCURVE",
"549 136 QCURVE SMOOTH",
"455 660 LINE",
"451 664 OFFCURVE",
"445 664 QCURVE SMOOTH",
"424 664 OFFCURVE",
"393 610 QCURVE SMOOTH",
"116 136 LINE SMOOTH",
"80 75 OFFCURVE",
"66 58 QCURVE",
"58 47 OFFCURVE",
"5 27 OFFCURVE",
"-6 27 QCURVE SMOOTH",
"-12 27 OFFCURVE",
"-12 4 QCURVE SMOOTH",
"-12 1 OFFCURVE",
"-10 -3 QCURVE",
"3 -2 OFFCURVE",
"74 3 OFFCURVE",
"99 3 QCURVE SMOOTH",
"123 3 OFFCURVE",
"180 -2 OFFCURVE",
"191 -3 QCURVE",
"197 9 OFFCURVE",
"197 22 QCURVE SMOOTH",
"197 27 OFFCURVE",
"195 27 QCURVE SMOOTH",
"183 27 OFFCURVE",
"135 44 OFFCURVE",
"135 60 QCURVE SMOOTH",
"135 79 OFFCURVE",
"166 131 QCURVE SMOOTH",
"173 143 OFFCURVE",
"218 215 OFFCURVE",
"223 224 QCURVE",
"225 228 OFFCURVE",
"229 228 QCURVE",
"286 231 OFFCURVE",
"323 231 QCURVE SMOOTH"
);
},
{
closed = 1;
nodes = (
"293 285 OFFCURVE",
"263 288 QCURVE",
"263 290 LINE",
"378 492 LINE",
"380 478 OFFCURVE",
"408 312 OFFCURVE",
"411 292 QCURVE",
"411 288 OFFCURVE",
"407 288 QCURVE",
"364 285 OFFCURVE",
"335 285 QCURVE SMOOTH"
);
}
);
};
components = (
{
name = A;
},
{
alignment = -1;
name = ringcomb.case;
transform = "{1, 0, 0, 1, 277, 154}";
}
);
layerId = "B85C165C-5F8F-4735-B7B6-8DF6357F77F6";
width = 648;
},
{
background = {
paths = (
{
closed = 1;
nodes = (
"349 704 OFFCURVE",
"384 660 OFFCURVE",
"433 660 CURVE SMOOTH",
"498 660 OFFCURVE",
"568 776 OFFCURVE",
"530 828 CURVE SMOOTH",
"492 880 OFFCURVE",
"371 824 OFFCURVE",
"360 759 CURVE SMOOTH"
);
},
{
closed = 1;
nodes = (
"340.667 213 OFFCURVE",
"371 212.333 OFFCURVE",
"395 211 CURVE",
"399 211 OFFCURVE",
"401 209.667 OFFCURVE",
"401 207 CURVE",
"415.667 121 OFFCURVE",
"423 75 OFFCURVE",
"423 69 CURVE SMOOTH",
"423 64.333 OFFCURVE",
"421.333 59.667 OFFCURVE",
"418 55 CURVE",
"389.753 22.717 OFFCURVE",
"359 50.253 OFFCURVE",
"359 3 CURVE SMOOTH",
"359 -1 OFFCURVE",
"359.333 -3.333 OFFCURVE",
"360 -4 CURVE",
"439.333 0.667 OFFCURVE",
"485.333 3 OFFCURVE",
"498 3 CURVE SMOOTH",
"514 3 OFFCURVE",
"537.833 1.833 OFFCURVE",
"569.5 -0.5 CURVE SMOOTH",
"601.167 -2.833 OFFCURVE",
"618 -4 OFFCURVE",
"620 -4 CURVE",
"624.667 2 OFFCURVE",
"627 11.667 OFFCURVE",
"627 25 CURVE SMOOTH",
"627 28.333 OFFCURVE",
"626.333 30 OFFCURVE",
"625 30 CURVE SMOOTH",
"610.333 30 OFFCURVE",
"569 44.667 OFFCURVE",
"565 66 CURVE SMOOTH",
"558.333 98.667 OFFCURVE",
"553.667 123.667 OFFCURVE",
"551 141 CURVE",
"446 659 LINE",
"444 664.333 OFFCURVE",
"440 667 OFFCURVE",
"434 667 CURVE SMOOTH",
"426 667 OFFCURVE",
"416.833 659.833 OFFCURVE",
"405.5 644.5 CURVE SMOOTH",
"399.833 636.833 OFFCURVE",
"395.333 630.5 OFFCURVE",
"392 625.5 CURVE SMOOTH",
"388.667 620.5 OFFCURVE",
"380.667 607.333 OFFCURVE",
"368 586 CURVE SMOOTH",
"96 134 LINE SMOOTH",
"76 100.667 OFFCURVE",
"63 79.667 OFFCURVE",
"57 71 CURVE",
"45 55 OFFCURVE",
"-14.667 30 OFFCURVE",
"-28 30 CURVE SMOOTH",
"-31.333 30 OFFCURVE",
"-33 21.333 OFFCURVE",
"-33 4 CURVE SMOOTH",
"-33 0 OFFCURVE",
"-32.667 -2.667 OFFCURVE",
"-32 -4 CURVE",
"-22.667 -3.333 OFFCURVE",
"-4.833 -2 OFFCURVE",
"21.5 0 CURVE SMOOTH",
"47.833 2 OFFCURVE",
"69.333 3 OFFCURVE",
"86 3 CURVE SMOOTH",
"102 3 OFFCURVE",
"120.667 2 OFFCURVE",
"142 0 CURVE SMOOTH",
"163.333 -2 OFFCURVE",
"178 -3.333 OFFCURVE",
"186 -4 CURVE",
"189.333 2.667 OFFCURVE",
"191 12.667 OFFCURVE",
"191 26 CURVE SMOOTH",
"191 28.667 OFFCURVE",
"190.333 30 OFFCURVE",
"189 30 CURVE SMOOTH",
"124.335 30 OFFCURVE",
"103.25 51.189 OFFCURVE",
"157 131 CURVE",
"202 207 LINE",
"203.333 208.333 OFFCURVE",
"215 212 OFFCURVE",
"219 212 CURVE SMOOTH",
"241 212.667 OFFCURVE",
"269.333 213 OFFCURVE",
"304 213 CURVE SMOOTH"
);
},
{
closed = 1;
nodes = (
"288.667 273 OFFCURVE",
"266 274 OFFCURVE",
"248 276 CURVE",
"246.667 276 OFFCURVE",
"245.667 278.667 OFFCURVE",
"247 280 CURVE",
"355 458 LINE",
"387 280 LINE",
"387 276.667 OFFCURVE",
"385.667 275 OFFCURVE",
"383 275 CURVE",
"363.667 273.667 OFFCURVE",
"341.333 273 OFFCURVE",
"316 273 CURVE SMOOTH"
);
}
);
};
components = (
{
name = A;
},
{
alignment = -1;
name = ringcomb.case;
transform = "{1, 0, 0, 1, 269, 153}";
}
);
layerId = "C43979EA-9F64-4F78-971C-933464F87A97";
width = 656;
}
);
leftKerningGroup = A;
note = Aring;
rightKerningGroup = A;
unicode = 00C5;
},
{
color = 10;
glyphname = Aringbelow;
lastChange = "2022-03-10 16:51:15 +0000";
layers = (
{
background = {
anchors = (
{
name = bottom;
position = "{342, 0}";
},
{
name = ogonek;
position = "{616, 10}";
},
{
name = top;
position = "{358, 656}";
}
);
paths = (
{
closed = 1;
nodes = (
"320 -237 OFFCURVE",
"372 -237 OFFCURVE",
"408 -200 CURVE SMOOTH",
"425 -183 OFFCURVE",
"433 -162 OFFCURVE",
"433 -137 CURVE SMOOTH",
"433 -88 OFFCURVE",
"394 -48 OFFCURVE",
"346 -48 CURVE SMOOTH",
"298 -48 OFFCURVE",
"258 -88 OFFCURVE",
"258 -137 CURVE SMOOTH",
"258 -162 OFFCURVE",
"267 -183 OFFCURVE",
"284 -200 CURVE SMOOTH"
);
},
{
closed = 1;
nodes = (
"315 -193 OFFCURVE",
"291 -168 OFFCURVE",
"291 -137 CURVE SMOOTH",
"291 -106 OFFCURVE",
"315 -82 OFFCURVE",
"346 -82 CURVE SMOOTH",
"377 -82 OFFCURVE",
"400 -106 OFFCURVE",
"400 -137 CURVE SMOOTH",
"400 -168 OFFCURVE",
"375 -193 OFFCURVE",
"346 -193 CURVE SMOOTH"
);
},
{
closed = 1;
nodes = (
"55 -1 OFFCURVE",
"90 4 OFFCURVE",
"128 2 CURVE SMOOTH",
"231 -3 LINE",
"234 4 OFFCURVE",
"233 26 OFFCURVE",
"229 26 CURVE SMOOTH",
"217 26 OFFCURVE",
"183 33 OFFCURVE",
"171 42 CURVE SMOOTH",
"166 46 OFFCURVE",
"163 53 OFFCURVE",
"163 62 CURVE SMOOTH",
"163 75 OFFCURVE",
"167 98 OFFCURVE",
"180 131 CURVE SMOOTH",
"223 241 LINE",
"228 244 LINE",
"278 247 OFFCURVE",
"320 249 OFFCURVE",
"355 249 CURVE SMOOTH",
"380 249 OFFCURVE",
"405 248 OFFCURVE",
"431 246 CURVE SMOOTH",
"433 246 OFFCURVE",
"435 245 OFFCURVE",
"437 242 CURVE",
"482 118 LINE SMOOTH",
"487 105 OFFCURVE",
"492 77 OFFCURVE",
"492 60 CURVE SMOOTH",
"492 55 OFFCURVE",
"491 49 OFFCURVE",
"490 44 CURVE SMOOTH",
"486 33 OFFCURVE",
"455 26 OFFCURVE",
"439 26 CURVE SMOOTH",
"434 26 OFFCURVE",
"433 2 OFFCURVE",
"438 -3 CURVE",
"554 2 LINE SMOOTH",
"561 2 OFFCURVE",
"597 0 OFFCURVE",
"664 -3 CURVE",
"665 1 OFFCURVE",
"666 4 OFFCURVE",
"666 7 CURVE SMOOTH",
"666 20 OFFCURVE",
"665 26 OFFCURVE",
"662 26 CURVE SMOOTH",
"646 26 OFFCURVE",
"602 40 OFFCURVE",
"594 60 CURVE SMOOTH",
"587 77 OFFCURVE",
"577 101 OFFCURVE",
"565 132 CURVE SMOOTH",
"365 660 LINE",
"356 663 LINE",
"335 663 OFFCURVE",
"328 652 OFFCURVE",
"319 633 CURVE SMOOTH",
"309 611 OFFCURVE",
"314 616 OFFCURVE",
"302 586 CURVE SMOOTH",
"128 139 LINE SMOOTH",
"111 94 OFFCURVE",
"95 63 OFFCURVE",
"81 45 CURVE SMOOTH",
"72 33 OFFCURVE",
"40 26 OFFCURVE",
"24 26 CURVE SMOOTH",
"21 26 OFFCURVE",
"20 21 OFFCURVE",
"20 12 CURVE SMOOTH",
"20 5 OFFCURVE",
"21 0 OFFCURVE",
"24 -3 CURVE"
);
},
{
closed = 1;
nodes = (
"307 297 OFFCURVE",
"284 298 OFFCURVE",
"249 299 CURVE SMOOTH",
"248 299 OFFCURVE",
"247 300 OFFCURVE",
"247 303 CURVE",
"333 526 LINE",
"414 305 LINE",
"411 300 LINE",
"380 298 OFFCURVE",
"349 297 OFFCURVE",
"320 297 CURVE SMOOTH"
);
}
);
};
components = (
{
name = A;
},
{
alignment = -1;
name = ringcomb;
transform = "{1, 0, 0, 1, 76, -724}";
}
);
layerId = "02396921-8257-42A3-8ED5-3052446F9CE3";
width = 619;
},
{
associatedMasterId = "02396921-8257-42A3-8ED5-3052446F9CE3";
components = (
{
alignment = -1;
name = ring;
transform = "{1, 0, 0, 1, -242, -729}";
},
{
alignment = -1;
name = A;
}
);
layerId = "C107EAF8-0472-4BA7-B723-C12741D992A6";
name = "5 Jan 22 at 13:46";
width = 684;
},
{
associatedMasterId = "02396921-8257-42A3-8ED5-3052446F9CE3";
components = (
{
alignment = -1;
name = ring;
transform = "{1, 0, 0, 1, -242, -729}";
},
{
alignment = -1;
name = A;
}
);
layerId = "EBE0C9F8-00AF-416B-88F6-D37916E2225D";
name = "5 Jan 22 at 13:46";
width = 684;
},
{
components = (
{
name = A;
},
{
alignment = -1;
name = ringcomb;
transform = "{1, 0, 0, 1, 86, -746}";
}
);
layerId = "B85C165C-5F8F-4735-B7B6-8DF6357F77F6";
width = 648;
},
{
background = {
paths = (
{
closed = 1;
nodes = (
"389 -109 OFFCURVE",
"420 -140 OFFCURVE",
"420 -186 OFFCURVE",
"389 -217 OFFCURVE",
"345 -217 OFFCURVE",
"314 -186 OFFCURVE",
"314 -140 OFFCURVE",
"345 -109 OFFCURVE"
);
},
{
closed = 1;
nodes = (
"407 -262 OFFCURVE",
"465 -204 OFFCURVE",
"465 -163 QCURVE SMOOTH",
"465 -123 OFFCURVE",
"408 -65 OFFCURVE",
"326 -65 OFFCURVE",
"268 -123 OFFCURVE",
"268 -203 OFFCURVE",
"326 -262 OFFCURVE",
"367 -262 QCURVE SMOOTH"
);
},
{
closed = 1;
nodes = (
"419 33 OFFCURVE",
"419 0 OFFCURVE",
"423 -4 QCURVE",
"567 4 OFFCURVE",
"574 4 QCURVE SMOOTH",
"600 4 OFFCURVE",
"715 -4 OFFCURVE",
"719 -4 QCURVE",
"721 -1 OFFCURVE",
"721 33 OFFCURVE",
"717 33 QCURVE SMOOTH",
"703 33 OFFCURVE",
"649 50 OFFCURVE",
"643 66 QCURVE SMOOTH",
"629 102 OFFCURVE",
"610 148 QCURVE SMOOTH",
"405 655 LINE",
"396 668 OFFCURVE",
"381 668 QCURVE SMOOTH",
"355 668 OFFCURVE",
"344 642 QCURVE SMOOTH",
"123 134 LINE",
"118 122 LINE SMOOTH",
"113 111 OFFCURVE",
"96 76 OFFCURVE",
"88 64 QCURVE SMOOTH",
"81 53 OFFCURVE",
"25 32 OFFCURVE",
"13 32 QCURVE SMOOTH",
"11 32 OFFCURVE",
"11 11 QCURVE SMOOTH",
"11 0 OFFCURVE",
"15 -4 QCURVE",
"34 -3 OFFCURVE",
"104 4 OFFCURVE",
"154 4 OFFCURVE",
"233 -3 OFFCURVE",
"246 -4 QCURVE",
"248 2 OFFCURVE",
"248 32 OFFCURVE",
"245 33 QCURVE",
"235 33 OFFCURVE",
"208 36 OFFCURVE",
"172 54 OFFCURVE",
"172 86 OFFCURVE",
"192 131 QCURVE SMOOTH",
"225 207 OFFCURVE",
"225 207 QCURVE",
"228 212 OFFCURVE",
"232 212 QCURVE SMOOTH",
"267 213 OFFCURVE",
"333 213 QCURVE SMOOTH",
"410 213 OFFCURVE",
"429 212 QCURVE",
"432 212 OFFCURVE",
"436 208 QCURVE",
"466 135 LINE SMOOTH",
"491 70 OFFCURVE",
"491 68 QCURVE SMOOTH",
"491 52 OFFCURVE",
"445 33 OFFCURVE",
"423 33 QCURVE SMOOTH"
);
},
{
closed = 1;
nodes = (
"257 276 OFFCURVE",
"257 280 QCURVE",
"335 459 LINE",
"407 280 LINE",
"404 275 LINE",
"373 273 OFFCURVE",
"333 273 QCURVE SMOOTH",
"289 273 OFFCURVE",
"259 276 QCURVE"
);
}
);
};
components = (
{
name = A;
},
{
alignment = -1;
name = ringcomb;
transform = "{1, 0, 0, 1, 78, -757}";
}
);
layerId = "C43979EA-9F64-4F78-971C-933464F87A97";
width = 656;
}
);
leftKerningGroup = A;
leftMetricsKey = A;
note = uni1E00;
rightKerningGroup = A;
rightMetricsKey = A;
unicode = 1E00;
},
{
color = 10;
glyphname = Atilde;
lastChange = "2022-03-10 16:51:15 +0000";
layers = (
{
background = {
paths = (
{
closed = 1;
nodes = (
"350 781 OFFCURVE",
"365 781 QCURVE SMOOTH",
"397 781 OFFCURVE",
"484 728 OFFCURVE",
"516 728 QCURVE SMOOTH",
"558 728 OFFCURVE",
"594 767 QCURVE SMOOTH",
"614 790 OFFCURVE",
"617 806 QCURVE SMOOTH",
"621 823 OFFCURVE",
"614 823 QCURVE SMOOTH",
"613 823 OFFCURVE",
"589 801 OFFCURVE",
"556 779 OFFCURVE",
"545 779 QCURVE SMOOTH",
"514 779 OFFCURVE",
"426 832 OFFCURVE",
"395 832 QCURVE SMOOTH",
"354 832 OFFCURVE",
"315 792 QCURVE SMOOTH",
"295 770 OFFCURVE",
"292 754 QCURVE SMOOTH",
"288 737 OFFCURVE",
"295 737 QCURVE SMOOTH",
"296 737 OFFCURVE"
);
},
{
closed = 1;
nodes = (
"454 91 QCURVE SMOOTH",
"454 59 OFFCURVE",
"447 44 QCURVE SMOOTH",
"442 36 OFFCURVE",
"406 24 OFFCURVE",
"396 24 QCURVE SMOOTH",
"389 24 OFFCURVE",
"389 3 QCURVE SMOOTH",
"389 -2 OFFCURVE",
"390 -3 QCURVE",
"405 -2 OFFCURVE",
"445 0 OFFCURVE",
"478 2 OFFCURVE",
"497 2 QCURVE SMOOTH",
"508 2 OFFCURVE",
"601 -3 QCURVE",
"606 7 OFFCURVE",
"606 19 QCURVE SMOOTH",
"606 24 OFFCURVE",
"604 24 QCURVE SMOOTH",
"594 24 OFFCURVE",
"549 45 OFFCURVE",
"546 60 QCURVE SMOOTH",
"544 69 OFFCURVE",
"534 132 QCURVE SMOOTH",
"451 660 LINE",
"447 662 OFFCURVE",
"443 662 QCURVE SMOOTH",
"419 662 OFFCURVE",
"404 635 QCURVE SMOOTH",
"128 139 LINE SMOOTH",
"89 69 OFFCURVE",
"67 45 QCURVE SMOOTH",
"59 36 OFFCURVE",
"20 24 OFFCURVE",
"9 24 QCURVE SMOOTH",
"2 24 OFFCURVE",
"2 5 QCURVE SMOOTH",
"2 -1 OFFCURVE",
"4 -3 QCURVE",
"20 -2 OFFCURVE",
"54 0 OFFCURVE",
"83 2 OFFCURVE",
"102 2 QCURVE SMOOTH",
"104 2 OFFCURVE",
"197 -3 QCURVE",
"202 7 OFFCURVE",
"202 18 QCURVE SMOOTH",
"202 24 OFFCURVE",
"200 24 QCURVE SMOOTH",
"196 24 OFFCURVE",
"173 28 OFFCURVE",
"145 44 OFFCURVE",
"145 55 QCURVE SMOOTH",
"145 70 OFFCURVE",
"191 164 OFFCURVE",
"239 244 OFFCURVE",
"242 244 QCURVE SMOOTH",
"314 249 OFFCURVE",
"335 249 QCURVE SMOOTH",
"354 249 OFFCURVE",
"383 249 OFFCURVE",
"404 248 OFFCURVE",
"419 247 OFFCURVE",
"428 246 OFFCURVE",
"433 245 OFFCURVE",
"436 242 OFFCURVE",
"436 241 OFFCURVE",
"436 239 QCURVE SMOOTH",
"454 108 OFFCURVE"
);
},
{
closed = 1;
nodes = (
"272 299 QCURVE SMOOTH",
"271 299 OFFCURVE",
"271 303 OFFCURVE",
"394 526 QCURVE",
"397 505 OFFCURVE",
"414 393 OFFCURVE",
"427 309 OFFCURVE",
"427 304 QCURVE SMOOTH",
"427 300 OFFCURVE",
"423 300 QCURVE SMOOTH",
"394 298 OFFCURVE",
"348 298 QCURVE SMOOTH",
"295 298 OFFCURVE"
);
}
);
};
components = (
{
name = A;
},
{
name = tildecomb.case;
transform = "{1, 0, 0, 1, 208, 228}";
}
);
layerId = "02396921-8257-42A3-8ED5-3052446F9CE3";
width = 619;
},
{
background = {
paths = (
{
closed = 1;
nodes = (
"279 738 OFFCURVE",
"335 789 OFFCURVE",
"351 789 QCURVE SMOOTH",
"385 789 OFFCURVE",
"475 728 OFFCURVE",
"509 728 QCURVE SMOOTH",
"554 728 OFFCURVE",
"593 773 QCURVE SMOOTH",
"616 800 OFFCURVE",
"618 817 QCURVE",
"622 837 OFFCURVE",
"615 837 QCURVE SMOOTH",
"613 837 OFFCURVE",
"558 786 OFFCURVE",
"541 786 QCURVE SMOOTH",
"508 786 OFFCURVE",
"416 847 OFFCURVE",
"383 847 QCURVE SMOOTH",
"340 847 OFFCURVE",
"297 801 QCURVE",
"278 778 OFFCURVE",
"273 757 QCURVE SMOOTH",
"268 738 OFFCURVE",
"276 738 QCURVE SMOOTH"
);
},
{
closed = 1;
nodes = (
"399 231 OFFCURVE",
"417 228 QCURVE",
"422 228 OFFCURVE",
"422 223 QCURVE",
"442 89 OFFCURVE",
"442 80 QCURVE SMOOTH",
"442 62 OFFCURVE",
"436 50 QCURVE",
"431 42 OFFCURVE",
"391 27 OFFCURVE",
"381 27 QCURVE SMOOTH",
"375 27 OFFCURVE",
"375 3 QCURVE SMOOTH",
"375 -2 OFFCURVE",
"376 -3 QCURVE",
"490 3 OFFCURVE",
"501 3 QCURVE SMOOTH",
"504 3 OFFCURVE",
"615 -3 QCURVE",
"619 5 OFFCURVE",
"619 21 QCURVE SMOOTH",
"619 27 OFFCURVE",
"617 27 QCURVE SMOOTH",
"607 27 OFFCURVE",
"566 48 OFFCURVE",
"563 63 QCURVE SMOOTH",
"552 120 OFFCURVE",
"549 136 QCURVE SMOOTH",
"455 660 LINE",
"451 664 OFFCURVE",
"445 664 QCURVE SMOOTH",
"424 664 OFFCURVE",
"393 610 QCURVE SMOOTH",
"116 136 LINE SMOOTH",
"80 75 OFFCURVE",
"66 58 QCURVE",
"58 47 OFFCURVE",
"5 27 OFFCURVE",
"-6 27 QCURVE SMOOTH",
"-12 27 OFFCURVE",
"-12 4 QCURVE SMOOTH",
"-12 1 OFFCURVE",
"-10 -3 QCURVE",
"3 -2 OFFCURVE",
"74 3 OFFCURVE",
"99 3 QCURVE SMOOTH",
"123 3 OFFCURVE",
"180 -2 OFFCURVE",
"191 -3 QCURVE",
"197 9 OFFCURVE",
"197 22 QCURVE SMOOTH",
"197 27 OFFCURVE",
"195 27 QCURVE SMOOTH",
"183 27 OFFCURVE",
"135 44 OFFCURVE",
"135 60 QCURVE SMOOTH",
"135 79 OFFCURVE",
"166 131 QCURVE SMOOTH",
"173 143 OFFCURVE",
"218 215 OFFCURVE",
"223 224 QCURVE",
"225 228 OFFCURVE",
"229 228 QCURVE",
"286 231 OFFCURVE",
"323 231 QCURVE SMOOTH"
);
},
{
closed = 1;
nodes = (
"293 285 OFFCURVE",
"263 288 QCURVE",
"263 290 LINE",
"378 492 LINE",
"380 478 OFFCURVE",
"408 312 OFFCURVE",
"411 292 QCURVE",
"411 288 OFFCURVE",
"407 288 QCURVE",
"364 285 OFFCURVE",
"335 285 QCURVE SMOOTH"
);
}
);
};
components = (
{
name = A;
},
{
name = tildecomb.case;
transform = "{1, 0, 0, 1, 224, 228}";
}
);
layerId = "B85C165C-5F8F-4735-B7B6-8DF6357F77F6";
width = 648;
},
{
background = {
paths = (
{
closed = 1;
nodes = (
"282 739 OFFCURVE",
"293 749 OFFCURVE",
"313 768 CURVE SMOOTH",
"332 787 OFFCURVE",
"348 796 OFFCURVE",
"359 796 CURVE SMOOTH",
"383 796 OFFCURVE",
"411 785 OFFCURVE",
"442 762 CURVE SMOOTH",
"473 739 OFFCURVE",
"500 728 OFFCURVE",
"524 728 CURVE SMOOTH",
"556 728 OFFCURVE",
"586 745 OFFCURVE",
"614 778 CURVE SMOOTH",
"629 795 OFFCURVE",
"638 812 OFFCURVE",
"641 829 CURVE SMOOTH",
"644 844 OFFCURVE",
"642 851 OFFCURVE",
"637 851 CURVE SMOOTH",
"634 851 OFFCURVE",
"623 842 OFFCURVE",
"605 823 CURVE SMOOTH",
"586 804 OFFCURVE",
"571 794 OFFCURVE",
"559 794 CURVE SMOOTH",
"536 794 OFFCURVE",
"508 805 OFFCURVE",
"477 828 CURVE SMOOTH",
"446 851 OFFCURVE",
"418 862 OFFCURVE",
"394 862 CURVE SMOOTH",
"363 862 OFFCURVE",
"332 845 OFFCURVE",
"302 811 CURVE SMOOTH",
"288 795 OFFCURVE",
"279 778 OFFCURVE",
"276 761 CURVE SMOOTH",
"273 746 OFFCURVE",
"274 739 OFFCURVE",
"279 739 CURVE SMOOTH"
);
},
{
closed = 1;
nodes = (
"340.667 213 OFFCURVE",
"371 212.333 OFFCURVE",
"395 211 CURVE",
"399 211 OFFCURVE",
"401 209.667 OFFCURVE",
"401 207 CURVE",
"415.667 121 OFFCURVE",
"423 75 OFFCURVE",
"423 69 CURVE SMOOTH",
"423 64.333 OFFCURVE",
"421.333 59.667 OFFCURVE",
"418 55 CURVE",
"389.753 22.717 OFFCURVE",
"359 50.253 OFFCURVE",
"359 3 CURVE SMOOTH",
"359 -1 OFFCURVE",
"359.333 -3.333 OFFCURVE",
"360 -4 CURVE",
"439.333 0.667 OFFCURVE",
"485.333 3 OFFCURVE",
"498 3 CURVE SMOOTH",
"514 3 OFFCURVE",
"537.833 1.833 OFFCURVE",
"569.5 -0.5 CURVE SMOOTH",
"601.167 -2.833 OFFCURVE",
"618 -4 OFFCURVE",
"620 -4 CURVE",
"624.667 2 OFFCURVE",
"627 11.667 OFFCURVE",
"627 25 CURVE SMOOTH",
"627 28.333 OFFCURVE",
"626.333 30 OFFCURVE",
"625 30 CURVE SMOOTH",
"610.333 30 OFFCURVE",
"569 44.667 OFFCURVE",
"565 66 CURVE SMOOTH",
"558.333 98.667 OFFCURVE",
"553.667 123.667 OFFCURVE",
"551 141 CURVE",
"446 659 LINE",
"444 664.333 OFFCURVE",
"440 667 OFFCURVE",
"434 667 CURVE SMOOTH",
"426 667 OFFCURVE",
"416.833 659.833 OFFCURVE",
"405.5 644.5 CURVE SMOOTH",
"399.833 636.833 OFFCURVE",
"395.333 630.5 OFFCURVE",
"392 625.5 CURVE SMOOTH",
"388.667 620.5 OFFCURVE",
"380.667 607.333 OFFCURVE",
"368 586 CURVE SMOOTH",
"96 134 LINE SMOOTH",
"76 100.667 OFFCURVE",
"63 79.667 OFFCURVE",
"57 71 CURVE",
"45 55 OFFCURVE",
"-14.667 30 OFFCURVE",
"-28 30 CURVE SMOOTH",
"-31.333 30 OFFCURVE",
"-33 21.333 OFFCURVE",
"-33 4 CURVE SMOOTH",
"-33 0 OFFCURVE",
"-32.667 -2.667 OFFCURVE",
"-32 -4 CURVE",
"-22.667 -3.333 OFFCURVE",
"-4.833 -2 OFFCURVE",
"21.5 0 CURVE SMOOTH",
"47.833 2 OFFCURVE",
"69.333 3 OFFCURVE",
"86 3 CURVE SMOOTH",
"102 3 OFFCURVE",
"120.667 2 OFFCURVE",
"142 0 CURVE SMOOTH",
"163.333 -2 OFFCURVE",
"178 -3.333 OFFCURVE",
"186 -4 CURVE",
"189.333 2.667 OFFCURVE",
"191 12.667 OFFCURVE",
"191 26 CURVE SMOOTH",
"191 28.667 OFFCURVE",
"190.333 30 OFFCURVE",
"189 30 CURVE SMOOTH",
"124.335 30 OFFCURVE",
"103.25 51.189 OFFCURVE",
"157 131 CURVE",
"202 207 LINE",
"203.333 208.333 OFFCURVE",
"215 212 OFFCURVE",
"219 212 CURVE SMOOTH",
"241 212.667 OFFCURVE",
"269.333 213 OFFCURVE",
"304 213 CURVE SMOOTH"
);
},
{
closed = 1;
nodes = (
"288.667 273 OFFCURVE",
"266 274 OFFCURVE",
"248 276 CURVE",
"246.667 276 OFFCURVE",
"245.667 278.667 OFFCURVE",
"247 280 CURVE",
"355 458 LINE",
"387 280 LINE",
"387 276.667 OFFCURVE",
"385.667 275 OFFCURVE",
"383 275 CURVE",
"363.667 273.667 OFFCURVE",
"341.333 273 OFFCURVE",
"316 273 CURVE SMOOTH"
);
}
);
};
components = (
{
name = A;
},
{
name = tildecomb.case;
transform = "{1, 0, 0, 1, 215, 228}";
}
);
layerId = "C43979EA-9F64-4F78-971C-933464F87A97";
width = 656;
}
);
leftKerningGroup = A;
note = Atilde;
rightKerningGroup = A;
unicode = 00C3;
},
{
color = 6;
glyphname = AE;
lastChange = "2022-03-10 16:51:15 +0000";
layers = (
{
anchors = (
{
name = bottom;
position = "{382, 0}";
},
{
name = top;
position = "{662, 656}";
}
);
background = {
paths = (
{
closed = 1;
nodes = (
"256 131 QCURVE SMOOTH",
"365 290 LINE",
"368 293 OFFCURVE",
"371 293 QCURVE SMOOTH",
"397 294 OFFCURVE",
"438 294 QCURVE SMOOTH",
"506 293 LINE SMOOTH",
"512 293 OFFCURVE",
"512 285 QCURVE SMOOTH",
"511 272 OFFCURVE",
"507 219 OFFCURVE",
"504 187 OFFCURVE",
"499 141 OFFCURVE",
"495 111 OFFCURVE",
"489 78 OFFCURVE",
"481 56 OFFCURVE",
"473 44 OFFCURVE",
"415 31 OFFCURVE",
"404 31 QCURVE SMOOTH",
"401 31 OFFCURVE",
"395 11 OFFCURVE",
"395 3 QCURVE SMOOTH",
"395 -2 OFFCURVE",
"396 -3 QCURVE",
"522 2 LINE SMOOTH",
"562 2 OFFCURVE",
"742 -4 OFFCURVE",
"795 -4 QCURVE",
"818 64 OFFCURVE",
"869 162 QCURVE",
"865 168 OFFCURVE",
"848 168 QCURVE SMOOTH",
"836 168 OFFCURVE",
"833 162 QCURVE SMOOTH",
"792 76 OFFCURVE",
"763 61 QCURVE SMOOTH",
"729 44 OFFCURVE",
"651 44 QCURVE SMOOTH",
"636 44 LINE SMOOTH",
"610 44 OFFCURVE",
"582 49 OFFCURVE",
"575 57 OFFCURVE",
"575 63 QCURVE SMOOTH",
"575 68 OFFCURVE",
"580 111 QCURVE SMOOTH",
"584 154 LINE",
"596 286 LINE SMOOTH",
"597 296 OFFCURVE",
"637 296 QCURVE SMOOTH",
"727 296 OFFCURVE",
"737 288 QCURVE SMOOTH",
"743 283 OFFCURVE",
"746 279 OFFCURVE",
"753 250 OFFCURVE",
"754 224 QCURVE SMOOTH",
"755 217 OFFCURVE",
"767 217 QCURVE SMOOTH",
"776 217 OFFCURVE",
"782 221 QCURVE",
"792 351 OFFCURVE",
"808 413 QCURVE",
"805 418 OFFCURVE",
"781 418 OFFCURVE",
"778 411 QCURVE SMOOTH",
"777 408 OFFCURVE",
"774 402 QCURVE SMOOTH",
"754 357 OFFCURVE",
"725 340 OFFCURVE",
"665 340 QCURVE SMOOTH",
"632 340 LINE SMOOTH",
"601 340 OFFCURVE",
"601 346 QCURVE SMOOTH",
"601 347 LINE",
"616 505 LINE SMOOTH",
"624 578 OFFCURVE",
"631 603 QCURVE SMOOTH",
"635 616 OFFCURVE",
"713 616 QCURVE SMOOTH",
"772 616 LINE SMOOTH",
"787 616 OFFCURVE",
"810 611 OFFCURVE",
"837 596 OFFCURVE",
"853 560 OFFCURVE",
"854 532 QCURVE SMOOTH",
"854 525 OFFCURVE",
"878 525 OFFCURVE",
"883 530 QCURVE",
"884 554 OFFCURVE",
"891 644 OFFCURVE",
"892 664 QCURVE",
"840 664 OFFCURVE",
"634 656 OFFCURVE",
"592 656 QCURVE SMOOTH",
"505 656 LINE",
"495 646 OFFCURVE",
"495 630 QCURVE SMOOTH",
"495 625 OFFCURVE",
"498 625 QCURVE SMOOTH",
"528 625 OFFCURVE",
"528 601 QCURVE SMOOTH",
"528 593 OFFCURVE",
"523 586 QCURVE SMOOTH",
"211 139 LINE SMOOTH",
"171 80 OFFCURVE",
"132 45 QCURVE SMOOTH",
"123 36 OFFCURVE",
"82 24 OFFCURVE",
"72 24 QCURVE SMOOTH",
"69 24 OFFCURVE",
"63 9 OFFCURVE",
"63 3 QCURVE SMOOTH",
"63 -2 OFFCURVE",
"64 -3 QCURVE",
"80 -2 OFFCURVE",
"113 0 OFFCURVE",
"141 2 OFFCURVE",
"160 2 QCURVE SMOOTH",
"162 2 OFFCURVE",
"254 -3 QCURVE",
"263 12 OFFCURVE",
"263 22 QCURVE SMOOTH",
"263 24 OFFCURVE",
"262 24 QCURVE SMOOTH",
"251 24 OFFCURVE",
"211 40 OFFCURVE",
"211 50 QCURVE SMOOTH",
"211 67 OFFCURVE"
);
},
{
closed = 1;
nodes = (
"513 341 LINE",
"493 339 OFFCURVE",
"454 339 QCURVE SMOOTH",
"420 339 OFFCURVE",
"401 340 QCURVE SMOOTH",
"400 340 OFFCURVE",
"399 343 OFFCURVE",
"400 344 QCURVE SMOOTH",
"540 547 LINE",
"519 346 LINE"
);
}
);
};
layerId = "02396921-8257-42A3-8ED5-3052446F9CE3";
paths = (
{
closed = 1;
nodes = (
"810 41 OFFCURVE",
"835 97 OFFCURVE",
"869 162 CURVE",
"866 166 OFFCURVE",
"859 168 OFFCURVE",
"848 168 CURVE SMOOTH",
"840 168 OFFCURVE",
"835 166 OFFCURVE",
"833 162 CURVE SMOOTH",
"806 105 OFFCURVE",
"782 71 OFFCURVE",
"763 61 CURVE SMOOTH",
"740 50 OFFCURVE",
"703 44 OFFCURVE",
"636 44 CURVE SMOOTH",
"598 44 OFFCURVE",
"575 46 OFFCURVE",
"575 63 CURVE SMOOTH",
"575 66 OFFCURVE",
"577 82 OFFCURVE",
"580 111 CURVE SMOOTH",
"596 286 LINE SMOOTH",
"597 293 OFFCURVE",
"610 296 OFFCURVE",
"637 296 CURVE SMOOTH",
"697 296 OFFCURVE",
"730 293 OFFCURVE",
"737 288 CURVE SMOOTH",
"754 273 OFFCURVE",
"753 243 OFFCURVE",
"754 224 CURVE",
"755 219 OFFCURVE",
"759 217 OFFCURVE",
"767 217 CURVE SMOOTH",
"773 217 OFFCURVE",
"778 218 OFFCURVE",
"782 221 CURVE",
"789 308 OFFCURVE",
"797 372 OFFCURVE",
"808 413 CURVE",
"806 416 OFFCURVE",
"801 418 OFFCURVE",
"793 418 CURVE SMOOTH",
"785 418 OFFCURVE",
"780 416 OFFCURVE",
"778 411 CURVE SMOOTH",
"774 402 LINE SMOOTH",
"747 342 OFFCURVE",
"745 340 OFFCURVE",
"665 340 CURVE SMOOTH",
"632 340 LINE SMOOTH",
"611 340 OFFCURVE",
"601 342 OFFCURVE",
"601 346 CURVE SMOOTH",
"601 347 LINE",
"616 505 LINE SMOOTH",
"621 554 OFFCURVE",
"626 586 OFFCURVE",
"631 603 CURVE SMOOTH",
"634 612 OFFCURVE",
"661 616 OFFCURVE",
"713 616 CURVE SMOOTH",
"772 616 LINE SMOOTH",
"792 616 OFFCURVE",
"806 614 OFFCURVE",
"824 604 CURVE SMOOTH",
"842 594 OFFCURVE",
"853 569 OFFCURVE",
"854 532 CURVE SMOOTH",
"854 527 OFFCURVE",
"858 525 OFFCURVE",
"866 525 CURVE SMOOTH",
"874 525 OFFCURVE",
"880 527 OFFCURVE",
"883 530 CURVE",
"884 546 OFFCURVE",
"886 569 OFFCURVE",
"888 599 CURVE SMOOTH",
"892 664 LINE",
"857 664 OFFCURVE",
"806 663 OFFCURVE",
"737 660 CURVE SMOOTH",
"668 657 OFFCURVE",
"620 656 OFFCURVE",
"592 656 CURVE SMOOTH",
"505 656 LINE",
"498 649 OFFCURVE",
"495 641 OFFCURVE",
"495 630 CURVE SMOOTH",
"495 627 OFFCURVE",
"496 625 OFFCURVE",
"498 625 CURVE SMOOTH",
"518 625 OFFCURVE",
"528 617 OFFCURVE",
"528 601 CURVE SMOOTH",
"528 596 OFFCURVE",
"526 591 OFFCURVE",
"523 586 CURVE SMOOTH",
"211 139 LINE SMOOTH",
"184 100 OFFCURVE",
"158 68 OFFCURVE",
"132 45 CURVE SMOOTH",
"120 33 OFFCURVE",
"85 24 OFFCURVE",
"72 24 CURVE SMOOTH",
"68 24 OFFCURVE",
"63 11 OFFCURVE",
"63 3 CURVE SMOOTH",
"63 0 OFFCURVE",
"63 -2 OFFCURVE",
"64 -3 CURVE",
"95 -1 OFFCURVE",
"127 4 OFFCURVE",
"160 2 CURVE SMOOTH",
"254 -3 LINE",
"260 7 OFFCURVE",
"263 15 OFFCURVE",
"263 22 CURVE SMOOTH",
"263 23 OFFCURVE",
"263 24 OFFCURVE",
"262 24 CURVE SMOOTH",
"247 24 OFFCURVE",
"211 37 OFFCURVE",
"211 50 CURVE SMOOTH",
"211 61 OFFCURVE",
"227 88 OFFCURVE",
"256 131 CURVE SMOOTH",
"365 290 LINE",
"367 292 OFFCURVE",
"369 293 OFFCURVE",
"371 293 CURVE SMOOTH",
"388 294 OFFCURVE",
"411 294 OFFCURVE",
"438 294 CURVE SMOOTH",
"506 293 LINE SMOOTH",
"510 293 OFFCURVE",
"512 290 OFFCURVE",
"512 285 CURVE SMOOTH",
"511 266 OFFCURVE",
"508 226 OFFCURVE",
"502 164 CURVE SMOOTH",
"498 133 OFFCURVE",
"496 117 OFFCURVE",
"492 95 CURVE SMOOTH",
"488 73 OFFCURVE",
"482 58 OFFCURVE",
"477 50 CURVE SMOOTH",
"472 42 OFFCURVE",
"419 31 OFFCURVE",
"404 31 CURVE SMOOTH",
"400 31 OFFCURVE",
"395 14 OFFCURVE",
"395 3 CURVE SMOOTH",
"395 0 OFFCURVE",
"395 -2 OFFCURVE",
"396 -3 CURVE",
"522 2 LINE SMOOTH",
"549 3 OFFCURVE",
"592 1 OFFCURVE",
"652 -1 CURVE SMOOTH",
"712 -3 OFFCURVE",
"760 -4 OFFCURVE",
"795 -4 CURVE"
);
},
{
closed = 1;
nodes = (
"431 339 OFFCURVE",
"414 339 OFFCURVE",
"401 340 CURVE SMOOTH",
"400 340 OFFCURVE",
"399 342 OFFCURVE",
"400 344 CURVE SMOOTH",
"540 547 LINE",
"519 346 LINE",
"513 341 LINE",
"500 340 OFFCURVE",
"480 339 OFFCURVE",
"454 339 CURVE SMOOTH"
);
}
);
width = 847;
},
{
anchors = (
{
name = bottom;
position = "{395, 0}";
},
{
name = top;
position = "{673, 658}";
}
);
background = {
paths = (
{
closed = 1;
nodes = (
"539 657 OFFCURVE",
"496 658 OFFCURVE",
"480 658 QCURVE SMOOTH",
"464 658 LINE",
"456 653 OFFCURVE",
"456 632 QCURVE SMOOTH",
"456 624 OFFCURVE",
"461 624 QCURVE SMOOTH",
"474 624 OFFCURVE",
"490 613 OFFCURVE",
"489 600 QCURVE SMOOTH",
"487 582 OFFCURVE",
"449 540 QCURVE",
"135 136 LINE SMOOTH",
"94 83 OFFCURVE",
"67 56 QCURVE SMOOTH",
"54 43 OFFCURVE",
"6 26 OFFCURVE",
"-5 26 QCURVE SMOOTH",
"-7 26 OFFCURVE",
"-13 11 OFFCURVE",
"-13 6 QCURVE SMOOTH",
"-13 0 OFFCURVE",
"-11 -4 QCURVE",
"2 -3 OFFCURVE",
"74 2 OFFCURVE",
"99 2 QCURVE SMOOTH",
"123 2 OFFCURVE",
"187 -3 OFFCURVE",
"196 -4 QCURVE",
"204 9 OFFCURVE",
"204 24 QCURVE SMOOTH",
"204 27 OFFCURVE",
"203 27 QCURVE SMOOTH",
"179 27 OFFCURVE",
"155 40 QCURVE",
"145 46 OFFCURVE",
"145 55 QCURVE SMOOTH",
"145 58 OFFCURVE",
"147 65 OFFCURVE",
"152 74 OFFCURVE",
"158 83 OFFCURVE",
"167 97 OFFCURVE",
"175 107 OFFCURVE",
"189 125 OFFCURVE",
"193 131 QCURVE",
"220 163 OFFCURVE",
"281 248 QCURVE",
"285 252 OFFCURVE",
"289 252 QCURVE SMOOTH",
"349 254 OFFCURVE",
"369 254 QCURVE SMOOTH",
"416 254 OFFCURVE",
"446 252 QCURVE",
"454 252 OFFCURVE",
"452 246 QCURVE",
"442 137 OFFCURVE",
"442 134 QCURVE",
"436 74 OFFCURVE",
"425 52 QCURVE",
"421 45 OFFCURVE",
"374 32 OFFCURVE",
"363 32 QCURVE SMOOTH",
"361 32 OFFCURVE",
"355 15 OFFCURVE",
"355 8 QCURVE SMOOTH",
"355 0 OFFCURVE",
"357 -4 QCURVE",
"485 2 LINE",
"526 2 OFFCURVE",
"728 -3 OFFCURVE",
"780 -3 QCURVE",
"798 49 OFFCURVE",
"854 166 QCURVE",
"850 172 OFFCURVE",
"830 172 QCURVE SMOOTH",
"818 172 OFFCURVE",
"815 166 QCURVE SMOOTH",
"779 90 OFFCURVE",
"744 72 QCURVE SMOOTH",
"698 49 OFFCURVE",
"631 49 QCURVE SMOOTH",
"611 49 LINE SMOOTH",
"551 49 OFFCURVE",
"547 83 OFFCURVE",
"553 148 QCURVE SMOOTH",
"567 290 LINE SMOOTH",
"568 300 OFFCURVE",
"622 300 QCURVE SMOOTH",
"697 300 OFFCURVE",
"708 292 QCURVE",
"710 290 LINE",
"713 288 OFFCURVE",
"714 287 OFFCURVE",
"718 283 OFFCURVE",
"719 278 OFFCURVE",
"722 269 OFFCURVE",
"724 258 OFFCURVE",
"726 242 OFFCURVE",
"727 231 QCURVE",
"728 224 OFFCURVE",
"740 224 QCURVE SMOOTH",
"754 224 OFFCURVE",
"758 228 QCURVE",
"760 261 OFFCURVE",
"775 397 OFFCURVE",
"780 418 QCURVE",
"777 423 OFFCURVE",
"763 423 QCURVE SMOOTH",
"750 423 OFFCURVE",
"747 416 QCURVE",
"728 366 OFFCURVE",
"704 350 OFFCURVE",
"650 350 QCURVE SMOOTH",
"609 350 LINE SMOOTH",
"573 350 OFFCURVE",
"573 357 QCURVE SMOOTH",
"573 358 LINE",
"589 512 LINE SMOOTH",
"595 574 OFFCURVE",
"603 600 QCURVE SMOOTH",
"607 613 OFFCURVE",
"675 613 QCURVE SMOOTH",
"730 613 LINE SMOOTH",
"766 613 OFFCURVE",
"823 572 OFFCURVE",
"827 525 QCURVE",
"827 518 OFFCURVE",
"839 518 QCURVE SMOOTH",
"854 518 OFFCURVE",
"859 523 QCURVE",
"859 543 OFFCURVE",
"861 590 OFFCURVE",
"864 648 OFFCURVE",
"865 664 QCURVE",
"813 664 OFFCURVE",
"594 657 OFFCURVE",
"553 657 QCURVE SMOOTH"
);
},
{
closed = 1;
nodes = (
"461 313 LINE",
"461 312 OFFCURVE",
"457 308 OFFCURVE",
"456 308 QCURVE",
"431 306 OFFCURVE",
"392 306 QCURVE SMOOTH",
"349 306 OFFCURVE",
"331 308 QCURVE",
"331 312 LINE",
"357 349 OFFCURVE",
"483 508 QCURVE"
);
}
);
};
layerId = "B85C165C-5F8F-4735-B7B6-8DF6357F77F6";
paths = (
{
closed = 1;
nodes = (
"6 -3 OFFCURVE",
"66 2 OFFCURVE",
"99 2 CURVE SMOOTH",
"131 2 OFFCURVE",
"184 -3 OFFCURVE",
"196 -4 CURVE",
"201 5 OFFCURVE",
"204 14 OFFCURVE",
"204 24 CURVE SMOOTH",
"204 26 OFFCURVE",
"204 27 OFFCURVE",
"203 27 CURVE SMOOTH",
"184 27 OFFCURVE",
"145 36 OFFCURVE",
"145 55 CURVE SMOOTH",
"145 64 OFFCURVE",
"150 70 OFFCURVE",
"163 90 CURVE SMOOTH",
"172 105 OFFCURVE",
"240 191 OFFCURVE",
"281 248 CURVE",
"284 251 OFFCURVE",
"286 252 OFFCURVE",
"289 252 CURVE SMOOTH",
"329 253 OFFCURVE",
"356 254 OFFCURVE",
"369 254 CURVE SMOOTH",
"400 254 OFFCURVE",
"426 253 OFFCURVE",
"446 252 CURVE SMOOTH",
"451 252 OFFCURVE",
"453 250 OFFCURVE",
"452 246 CURVE",
"442 134 LINE SMOOTH",
"438 94 OFFCURVE",
"432 67 OFFCURVE",
"425 52 CURVE SMOOTH",
"420 43 OFFCURVE",
"378 32 OFFCURVE",
"363 32 CURVE SMOOTH",
"360 32 OFFCURVE",
"355 17 OFFCURVE",
"355 8 CURVE SMOOTH",
"355 3 OFFCURVE",
"356 -1 OFFCURVE",
"357 -4 CURVE",
"485 2 LINE SMOOTH",
"512 3 OFFCURVE",
"560 1 OFFCURVE",
"627 -1 CURVE SMOOTH",
"694 -2 OFFCURVE",
"745 -3 OFFCURVE",
"780 -3 CURVE",
"792 32 OFFCURVE",
"817 88 OFFCURVE",
"854 166 CURVE",
"851 170 OFFCURVE",
"843 172 OFFCURVE",
"830 172 CURVE SMOOTH",
"822 172 OFFCURVE",
"817 170 OFFCURVE",
"815 166 CURVE SMOOTH",
"791 115 OFFCURVE",
"767 84 OFFCURVE",
"744 72 CURVE SMOOTH",
"713 57 OFFCURVE",
"676 49 OFFCURVE",
"631 49 CURVE SMOOTH",
"588 49 LINE SMOOTH",
"543 49 OFFCURVE",
"545 69 OFFCURVE",
"553 148 CURVE SMOOTH",
"567 290 LINE SMOOTH",
"568 297 OFFCURVE",
"586 300 OFFCURVE",
"622 300 CURVE SMOOTH",
"672 300 OFFCURVE",
"702 298 OFFCURVE",
"708 292 CURVE SMOOTH",
"726 274 OFFCURVE",
"725 254 OFFCURVE",
"727 231 CURVE SMOOTH",
"728 226 OFFCURVE",
"732 224 OFFCURVE",
"740 224 CURVE SMOOTH",
"749 224 OFFCURVE",
"755 225 OFFCURVE",
"758 228 CURVE",
"761 272 OFFCURVE",
"773 390 OFFCURVE",
"780 418 CURVE",
"778 421 OFFCURVE",
"772 423 OFFCURVE",
"763 423 CURVE SMOOTH",
"754 423 OFFCURVE",
"749 421 OFFCURVE",
"747 416 CURVE SMOOTH",
"722 349 OFFCURVE",
"722 350 OFFCURVE",
"650 350 CURVE SMOOTH",
"609 350 LINE SMOOTH",
"585 350 OFFCURVE",
"573 352 OFFCURVE",
"573 357 CURVE SMOOTH",
"573 358 LINE",
"589 512 LINE SMOOTH",
"593 553 OFFCURVE",
"598 583 OFFCURVE",
"603 600 CURVE SMOOTH",
"606 609 OFFCURVE",
"630 613 OFFCURVE",
"675 613 CURVE SMOOTH",
"730 613 LINE SMOOTH",
"778 613 OFFCURVE",
"822 588 OFFCURVE",
"827 525 CURVE SMOOTH",
"827 520 OFFCURVE",
"831 518 OFFCURVE",
"839 518 CURVE SMOOTH",
"849 518 OFFCURVE",
"856 520 OFFCURVE",
"859 523 CURVE",
"859 560 OFFCURVE",
"861 605 OFFCURVE",
"865 664 CURVE",
"830 664 OFFCURVE",
"777 663 OFFCURVE",
"704 661 CURVE SMOOTH",
"579 657 OFFCURVE",
"604 658 OFFCURVE",
"480 658 CURVE SMOOTH",
"464 658 LINE",
"459 655 OFFCURVE",
"456 646 OFFCURVE",
"456 632 CURVE SMOOTH",
"456 627 OFFCURVE",
"458 624 OFFCURVE",
"461 624 CURVE SMOOTH",
"478 624 OFFCURVE",
"490 617 OFFCURVE",
"489 600 CURVE SMOOTH",
"488 588 OFFCURVE",
"474 568 OFFCURVE",
"449 540 CURVE",
"135 136 LINE SMOOTH",
"108 101 OFFCURVE",
"85 74 OFFCURVE",
"67 56 CURVE SMOOTH",
"50 39 OFFCURVE",
"10 26 OFFCURVE",
"-5 26 CURVE SMOOTH",
"-8 26 OFFCURVE",
"-13 13 OFFCURVE",
"-13 6 CURVE SMOOTH",
"-13 2 OFFCURVE",
"-12 -1 OFFCURVE",
"-11 -4 CURVE"
);
},
{
closed = 1;
nodes = (
"363 306 OFFCURVE",
"343 307 OFFCURVE",
"331 308 CURVE",
"331 312 LINE",
"348 337 OFFCURVE",
"399 402 OFFCURVE",
"483 508 CURVE",
"461 313 LINE SMOOTH",
"461 312 OFFCURVE",
"457 308 OFFCURVE",
"456 308 CURVE SMOOTH",
"439 307 OFFCURVE",
"418 306 OFFCURVE",
"392 306 CURVE SMOOTH"
);
}
);
width = 873;
},
{
anchors = (
{
name = bottom;
position = "{466, 0}";
},
{
name = top;
position = "{692, 658}";
}
);
background = {
paths = (
{
closed = 1;
nodes = (
"555 657 OFFCURVE",
"524.667 657.667 OFFCURVE",
"510 659 CURVE SMOOTH",
"500 660 LINE",
"498.667 660 OFFCURVE",
"494 642 OFFCURVE",
"494 634 CURVE SMOOTH",
"494 614.874 OFFCURVE",
"531.654 625.923 OFFCURVE",
"527 598 CURVE",
"523.667 582 OFFCURVE",
"498.333 547.333 OFFCURVE",
"451 494 CURVE SMOOTH",
"137 134 LINE",
"78 67 LINE SMOOTH",
"55.333 43 OFFCURVE",
"12.333 29 OFFCURVE",
"-5 29 CURVE SMOOTH",
"-6.333 29 OFFCURVE",
"-11 14.667 OFFCURVE",
"-11 8 CURVE SMOOTH",
"-11 1.333 OFFCURVE",
"-10.667 -2.667 OFFCURVE",
"-10 -4 CURVE",
"20.379 -1.975 OFFCURVE",
"89.975 2 OFFCURVE",
"115 2 CURVE SMOOTH",
"131 2 OFFCURVE",
"150.333 1 OFFCURVE",
"173 -1 CURVE SMOOTH",
"195.667 -3 OFFCURVE",
"209.667 -4 OFFCURVE",
"215 -4 CURVE",
"220.333 9.333 OFFCURVE",
"223 19.333 OFFCURVE",
"223 26 CURVE SMOOTH",
"223 28.667 OFFCURVE",
"222.333 30 OFFCURVE",
"221 30 CURVE SMOOTH",
"207 30 OFFCURVE",
"189.667 34 OFFCURVE",
"169 42 CURVE SMOOTH",
"160.333 45.333 OFFCURVE",
"156 51.333 OFFCURVE",
"156 60 CURVE SMOOTH",
"156 66.667 OFFCURVE",
"160 74.333 OFFCURVE",
"168 85 CURVE SMOOTH",
"172 90.333 OFFCURVE",
"175.667 95 OFFCURVE",
"179 99 CURVE SMOOTH",
"182.333 103 OFFCURVE",
"191.667 113.667 OFFCURVE",
"207 131 CURVE SMOOTH",
"275 207 LINE",
"278.333 210.333 OFFCURVE",
"281.333 212 OFFCURVE",
"284 212 CURVE SMOOTH",
"306 212.667 OFFCURVE",
"337.333 213 OFFCURVE",
"378 213 CURVE SMOOTH",
"412 213 OFFCURVE",
"440.333 212.333 OFFCURVE",
"463 211 CURVE",
"467.667 211 OFFCURVE",
"469.667 209.667 OFFCURVE",
"469 207 CURVE",
"467 173.667 OFFCURVE",
"465 149.333 OFFCURVE",
"463 134 CURVE SMOOTH",
"457.667 90 OFFCURVE",
"453.667 63.667 OFFCURVE",
"451 55 CURVE",
"447 44.333 OFFCURVE",
"411.333 32 OFFCURVE",
"398 32 CURVE SMOOTH",
"395.333 32 OFFCURVE",
"393.333 25.667 OFFCURVE",
"392 13 CURVE SMOOTH",
"391.333 6.333 OFFCURVE",
"392 0.667 OFFCURVE",
"394 -4 CURVE",
"525 2 LINE",
"552.333 2 OFFCURVE",
"603.333 1.333 OFFCURVE",
"678 0 CURVE SMOOTH",
"752.667 -1.333 OFFCURVE",
"807.333 -2 OFFCURVE",
"842 -2 CURVE",
"846.667 12.667 OFFCURVE",
"871.333 70 OFFCURVE",
"916 170 CURVE",
"913.333 174 OFFCURVE",
"904.333 176 OFFCURVE",
"889 176 CURVE SMOOTH",
"881.667 176 OFFCURVE",
"877 174 OFFCURVE",
"875 170 CURVE SMOOTH",
"855 128.667 OFFCURVE",
"823.333 92.667 OFFCURVE",
"802 82 CURVE SMOOTH",
"766 63.333 OFFCURVE",
"727.667 54 OFFCURVE",
"687 54 CURVE SMOOTH",
"662 54 LINE SMOOTH",
"622.667 54 OFFCURVE",
"602 59.333 OFFCURVE",
"600 70 CURVE SMOOTH",
"596.667 86 OFFCURVE",
"596.667 109.667 OFFCURVE",
"600 141 CURVE SMOOTH",
"616 295 LINE SMOOTH",
"616.667 301 OFFCURVE",
"639.333 304 OFFCURVE",
"684 304 CURVE SMOOTH",
"724.667 304 OFFCURVE",
"748.667 301.333 OFFCURVE",
"756 296 CURVE",
"758.626 296 OFFCURVE",
"763.628 290.743 OFFCURVE",
"766 286 CURVE SMOOTH",
"768.916 280.169 OFFCURVE",
"773.015 258.894 OFFCURVE",
"776 238 CURVE",
"777.333 232.667 OFFCURVE",
"782 230 OFFCURVE",
"790 230 CURVE SMOOTH",
"800.667 230 OFFCURVE",
"807.333 231.333 OFFCURVE",
"810 234 CURVE",
"829 423 LINE",
"827 426.333 OFFCURVE",
"820.667 428 OFFCURVE",
"810 428 CURVE SMOOTH",
"801.333 428 OFFCURVE",
"796 425.667 OFFCURVE",
"794 421 CURVE",
"783.333 389.667 OFFCURVE",
"773.667 371 OFFCURVE",
"765 365 CURVE SMOOTH",
"759 361 OFFCURVE",
"741.333 359 OFFCURVE",
"712 359 CURVE SMOOTH",
"663 359 LINE SMOOTH",
"636.333 359 OFFCURVE",
"623 361.667 OFFCURVE",
"623 367 CURVE SMOOTH",
"623 368 LINE",
"639 519 LINE SMOOTH",
"641.667 553 OFFCURVE",
"646 579 OFFCURVE",
"652 597 CURVE",
"654 605.667 OFFCURVE",
"674.667 610 OFFCURVE",
"714 610 CURVE SMOOTH",
"765 610 LINE SMOOTH",
"817 610 OFFCURVE",
"869 574 OFFCURVE",
"877 518 CURVE SMOOTH",
"877.667 513.333 OFFCURVE",
"881.667 511 OFFCURVE",
"889 511 CURVE SMOOTH",
"900.333 511 OFFCURVE",
"907.667 512.667 OFFCURVE",
"911 516 CURVE",
"911 556 OFFCURVE",
"912.333 605.333 OFFCURVE",
"915 664 CURVE",
"880.333 664 OFFCURVE",
"824.5 662.833 OFFCURVE",
"747.5 660.5 CURVE SMOOTH",
"670.5 658.167 OFFCURVE",
"618.333 657 OFFCURVE",
"591 657 CURVE SMOOTH"
);
},
{
closed = 1;
nodes = (
"481 280 LINE",
"479.667 276.667 OFFCURVE",
"478 275 OFFCURVE",
"476 275 CURVE",
"456 273.667 OFFCURVE",
"433 273 OFFCURVE",
"407 273 CURVE SMOOTH",
"377 273 OFFCURVE",
"353.667 274 OFFCURVE",
"337 276 CURVE",
"335.667 277.333 OFFCURVE",
"336.667 278.667 OFFCURVE",
"338 280 CURVE",
"503 469 LINE"
);
}
);
};
layerId = "C43979EA-9F64-4F78-971C-933464F87A97";
paths = (
{
closed = 1;
nodes = (
"20 -2 OFFCURVE",
"90 2 OFFCURVE",
"115 2 CURVE SMOOTH",
"137 2 OFFCURVE",
"197 -4 OFFCURVE",
"215 -4 CURVE",
"220 9 OFFCURVE",
"223 19 OFFCURVE",
"223 26 CURVE SMOOTH",
"223 29 OFFCURVE",
"222 30 OFFCURVE",
"221 30 CURVE SMOOTH",
"207 30 OFFCURVE",
"190 34 OFFCURVE",
"169 42 CURVE SMOOTH",
"160 45 OFFCURVE",
"156 51 OFFCURVE",
"156 60 CURVE SMOOTH",
"156 77 OFFCURVE",
"197 120 OFFCURVE",
"207 131 CURVE SMOOTH",
"275 207 LINE SMOOTH",
"278 211 OFFCURVE",
"281 212 OFFCURVE",
"284 212 CURVE SMOOTH",
"306 213 OFFCURVE",
"337 213 OFFCURVE",
"378 213 CURVE SMOOTH",
"412 213 OFFCURVE",
"440 212 OFFCURVE",
"463 211 CURVE SMOOTH",
"468 211 OFFCURVE",
"470 210 OFFCURVE",
"469 207 CURVE",
"467 178 OFFCURVE",
"460 83 OFFCURVE",
"451 55 CURVE SMOOTH",
"447 44 OFFCURVE",
"411 32 OFFCURVE",
"398 32 CURVE SMOOTH",
"395 32 OFFCURVE",
"393 26 OFFCURVE",
"392 13 CURVE SMOOTH",
"391 6 OFFCURVE",
"392 1 OFFCURVE",
"394 -4 CURVE",
"525 2 LINE SMOOTH",
"552 3 OFFCURVE",
"603 1 OFFCURVE",
"678 0 CURVE SMOOTH",
"753 -1 OFFCURVE",
"807 -2 OFFCURVE",
"842 -2 CURVE",
"847 13 OFFCURVE",
"871 70 OFFCURVE",
"916 170 CURVE",
"913 174 OFFCURVE",
"904 176 OFFCURVE",
"889 176 CURVE SMOOTH",
"882 176 OFFCURVE",
"877 174 OFFCURVE",
"875 170 CURVE SMOOTH",
"834 85 OFFCURVE",
"773 54 OFFCURVE",
"687 54 CURVE SMOOTH",
"662 54 LINE SMOOTH",
"623 54 OFFCURVE",
"602 59 OFFCURVE",
"600 70 CURVE SMOOTH",
"597 86 OFFCURVE",
"597 110 OFFCURVE",
"600 141 CURVE SMOOTH",
"616 295 LINE SMOOTH",
"617 301 OFFCURVE",
"639 304 OFFCURVE",
"684 304 CURVE SMOOTH",
"725 304 OFFCURVE",
"754 303 OFFCURVE",
"762 292 CURVE SMOOTH",
"770 281 OFFCURVE",
"773 259 OFFCURVE",
"776 238 CURVE SMOOTH",
"777 233 OFFCURVE",
"782 230 OFFCURVE",
"790 230 CURVE SMOOTH",
"801 230 OFFCURVE",
"807 231 OFFCURVE",
"810 234 CURVE",
"829 423 LINE",
"827 426 OFFCURVE",
"821 428 OFFCURVE",
"810 428 CURVE SMOOTH",
"801 428 OFFCURVE",
"796 426 OFFCURVE",
"794 421 CURVE SMOOTH",
"783 390 OFFCURVE",
"774 371 OFFCURVE",
"765 365 CURVE SMOOTH",
"759 361 OFFCURVE",
"741 359 OFFCURVE",
"712 359 CURVE SMOOTH",
"663 359 LINE SMOOTH",
"636 359 OFFCURVE",
"623 362 OFFCURVE",
"623 367 CURVE SMOOTH",
"623 368 LINE",
"639 519 LINE SMOOTH",
"643 553 OFFCURVE",
"646 579 OFFCURVE",
"652 597 CURVE SMOOTH",
"654 606 OFFCURVE",
"675 610 OFFCURVE",
"714 610 CURVE SMOOTH",
"765 610 LINE SMOOTH",
"817 610 OFFCURVE",
"869 574 OFFCURVE",
"877 518 CURVE SMOOTH",
"878 513 OFFCURVE",
"882 511 OFFCURVE",
"889 511 CURVE SMOOTH",
"900 511 OFFCURVE",
"908 513 OFFCURVE",
"911 516 CURVE",
"911 556 OFFCURVE",
"912 605 OFFCURVE",
"915 664 CURVE",
"880 664 OFFCURVE",
"825 663 OFFCURVE",
"748 661 CURVE SMOOTH",
"671 658 OFFCURVE",
"618 657 OFFCURVE",
"591 657 CURVE SMOOTH",
"555 657 OFFCURVE",
"525 658 OFFCURVE",
"510 659 CURVE SMOOTH",
"500 660 LINE SMOOTH",
"499 660 OFFCURVE",
"494 642 OFFCURVE",
"494 634 CURVE SMOOTH",
"494 615 OFFCURVE",
"532 626 OFFCURVE",
"527 598 CURVE SMOOTH",
"524 582 OFFCURVE",
"498 548 OFFCURVE",
"451 494 CURVE SMOOTH",
"78 67 LINE SMOOTH",
"56 42 OFFCURVE",
"12 29 OFFCURVE",
"-5 29 CURVE SMOOTH",
"-6 29 OFFCURVE",
"-11 15 OFFCURVE",
"-11 8 CURVE SMOOTH",
"-11 1 OFFCURVE",
"-11 -3 OFFCURVE",
"-10 -4 CURVE"
);
},
{
closed = 1;
nodes = (
"377 273 OFFCURVE",
"354 274 OFFCURVE",
"337 276 CURVE",
"336 277 OFFCURVE",
"337 279 OFFCURVE",
"338 280 CURVE SMOOTH",
"503 469 LINE",
"481 280 LINE",
"480 277 OFFCURVE",
"478 275 OFFCURVE",
"476 275 CURVE SMOOTH",
"456 274 OFFCURVE",
"433 273 OFFCURVE",
"407 273 CURVE SMOOTH"
);
}
);
width = 931;
}
);
leftKerningGroup = A;
note = AE;
rightKerningGroup = E;
unicode = 00C6;
},
{
color = 10;
glyphname = AEacute;
lastChange = "2022-03-10 16:51:15 +0000";
layers = (
{
background = {
anchors = (
{
name = _top;
position = "{652, 675}";
},
{
name = top;
position = "{720, 830}";
}
);
paths = (
{
closed = 1;
nodes = (
"630 748 OFFCURVE",
"784 820 OFFCURVE",
"784 851 CURVE SMOOTH",
"784 866 OFFCURVE",
"767 881 OFFCURVE",
"732 881 CURVE SMOOTH",
"724 881 OFFCURVE",
"718 880 OFFCURVE",
"714 878 CURVE",
"678 851 OFFCURVE",
"595 770 OFFCURVE",
"595 761 CURVE SMOOTH",
"595 752 OFFCURVE",
"598 748 OFFCURVE",
"605 748 CURVE SMOOTH"
);
},
{
closed = 1;
nodes = (
"886 16 OFFCURVE",
"897 51 OFFCURVE",
"905 75 CURVE SMOOTH",
"913 98 OFFCURVE",
"930 145 OFFCURVE",
"937 162 CURVE",
"933 166 OFFCURVE",
"925 168 OFFCURVE",
"912 168 CURVE SMOOTH",
"904 168 OFFCURVE",
"899 166 OFFCURVE",
"898 162 CURVE SMOOTH",
"883 111 OFFCURVE",
"855 72 OFFCURVE",
"835 61 CURVE SMOOTH",
"813 50 OFFCURVE",
"771 44 OFFCURVE",
"709 44 CURVE SMOOTH",
"661 44 LINE SMOOTH",
"618 44 OFFCURVE",
"595 47 OFFCURVE",
"593 54 CURVE SMOOTH",
"587 71 OFFCURVE",
"584 102 OFFCURVE",
"584 145 CURVE SMOOTH",
"584 300 LINE SMOOTH",
"584 306 OFFCURVE",
"608 309 OFFCURVE",
"656 309 CURVE SMOOTH",
"718 309 OFFCURVE",
"753 306 OFFCURVE",
"762 301 CURVE SMOOTH",
"770 296 OFFCURVE",
"771 297 OFFCURVE",
"778 279 CURVE SMOOTH",
"781 270 OFFCURVE",
"785 256 OFFCURVE",
"790 238 CURVE SMOOTH",
"792 233 OFFCURVE",
"797 230 OFFCURVE",
"806 230 CURVE SMOOTH",
"814 230 OFFCURVE",
"819 231 OFFCURVE",
"822 234 CURVE",
"822 423 LINE",
"819 426 OFFCURVE",
"813 428 OFFCURVE",
"805 428 CURVE SMOOTH",
"796 428 OFFCURVE",
"791 426 OFFCURVE",
"790 421 CURVE SMOOTH",
"785 402 OFFCURVE",
"778 365 OFFCURVE",
"765 362 CURVE SMOOTH",
"733 354 OFFCURVE",
"748 353 OFFCURVE",
"680 353 CURVE SMOOTH",
"627 353 LINE SMOOTH",
"598 353 OFFCURVE",
"584 355 OFFCURVE",
"584 359 CURVE SMOOTH",
"584 519 LINE SMOOTH",
"584 559 OFFCURVE",
"586 587 OFFCURVE",
"589 603 CURVE SMOOTH",
"590 612 OFFCURVE",
"620 616 OFFCURVE",
"677 616 CURVE SMOOTH",
"744 616 LINE SMOOTH",
"807 616 OFFCURVE",
"840 603 OFFCURVE",
"860 530 CURVE SMOOTH",
"861 525 OFFCURVE",
"865 523 OFFCURVE",
"874 523 CURVE SMOOTH",
"883 523 OFFCURVE",
"889 525 OFFCURVE",
"892 528 CURVE",
"891 536 OFFCURVE",
"886 556 OFFCURVE",
"879 588 CURVE SMOOTH",
"871 619 OFFCURVE",
"866 645 OFFCURVE",
"863 664 CURVE",
"825 664 OFFCURVE",
"769 663 OFFCURVE",
"695 660 CURVE SMOOTH",
"621 657 OFFCURVE",
"569 656 OFFCURVE",
"540 656 CURVE SMOOTH",
"495 656 OFFCURVE",
"457 657 OFFCURVE",
"424 658 CURVE",
"421 655 OFFCURVE",
"420 650 OFFCURVE",
"420 643 CURVE SMOOTH",
"420 634 OFFCURVE",
"421 629 OFFCURVE",
"424 629 CURVE SMOOTH",
"441 629 OFFCURVE",
"469 620 OFFCURVE",
"469 604 CURVE SMOOTH",
"469 599 OFFCURVE",
"467 592 OFFCURVE",
"462 584 CURVE SMOOTH",
"185 137 LINE SMOOTH",
"157 91 OFFCURVE",
"134 60 OFFCURVE",
"116 43 CURVE SMOOTH",
"105 32 OFFCURVE",
"84 26 OFFCURVE",
"55 26 CURVE SMOOTH",
"52 26 OFFCURVE",
"50 21 OFFCURVE",
"48 10 CURVE SMOOTH",
"47 3 OFFCURVE",
"47 -2 OFFCURVE",
"48 -3 CURVE",
"94 -1 OFFCURVE",
"129 0 OFFCURVE",
"153 0 CURVE SMOOTH",
"181 0 OFFCURVE",
"215 -1 OFFCURVE",
"255 -3 CURVE",
"258 4 OFFCURVE",
"263 26 OFFCURVE",
"260 26 CURVE SMOOTH",
"233 26 OFFCURVE",
"215 31 OFFCURVE",
"206 40 CURVE SMOOTH",
"201 45 OFFCURVE",
"200 51 OFFCURVE",
"202 60 CURVE SMOOTH",
"205 73 OFFCURVE",
"216 96 OFFCURVE",
"235 129 CURVE SMOOTH",
"304 239 LINE",
"309 242 LINE",
"360 245 OFFCURVE",
"393 247 OFFCURVE",
"408 247 CURVE SMOOTH",
"445 247 OFFCURVE",
"470 246 OFFCURVE",
"484 244 CURVE SMOOTH",
"493 242 OFFCURVE",
"497 238 OFFCURVE",
"497 233 CURVE SMOOTH",
"497 135 LINE SMOOTH",
"497 96 OFFCURVE",
"495 67 OFFCURVE",
"490 49 CURVE SMOOTH",
"486 38 OFFCURVE",
"440 26 OFFCURVE",
"424 26 CURVE SMOOTH",
"421 26 OFFCURVE",
"420 21 OFFCURVE",
"420 12 CURVE SMOOTH",
"420 5 OFFCURVE",
"421 0 OFFCURVE",
"424 -3 CURVE",
"542 2 LINE SMOOTH",
"571 2 OFFCURVE",
"625 1 OFFCURVE",
"706 -1 CURVE SMOOTH",
"786 -3 OFFCURVE",
"845 -4 OFFCURVE",
"883 -4 CURVE"
);
},
{
closed = 1;
nodes = (
"401 295 OFFCURVE",
"378 296 OFFCURVE",
"343 297 CURVE SMOOTH",
"342 297 OFFCURVE",
"341 298 OFFCURVE",
"342 301 CURVE",
"479 524 LINE SMOOTH",
"482 529 OFFCURVE",
"485 531 OFFCURVE",
"488 531 CURVE SMOOTH",
"494 531 OFFCURVE",
"497 528 OFFCURVE",
"497 523 CURVE SMOOTH",
"497 308 LINE SMOOTH",
"497 301 OFFCURVE",
"493 297 OFFCURVE",
"485 297 CURVE SMOOTH",
"450 296 OFFCURVE",
"426 295 OFFCURVE",
"413 295 CURVE SMOOTH"
);
}
);
};
components = (
{
name = AE;
},
{
name = acutecomb.case;
transform = "{1, 0, 0, 1, 575, 226}";
}
);
layerId = "02396921-8257-42A3-8ED5-3052446F9CE3";
width = 847;
},
{
associatedMasterId = "02396921-8257-42A3-8ED5-3052446F9CE3";
components = (
{
name = acutecomb.case;
transform = "{1, 0, 0, 1, 561, 19}";
},
{
name = AE;
}
);
layerId = "2E8E3D26-D368-46DF-8318-6F5F8E133A3E";
name = "5 Jan 22 at 13:46";
width = 982;
},
{
associatedMasterId = "02396921-8257-42A3-8ED5-3052446F9CE3";
components = (
{
name = acutecomb.case;
transform = "{1, 0, 0, 1, 561, 19}";
},
{
name = AE;
}
);
layerId = "780B8993-9D3E-4E89-95B6-44E4A5F10B4B";
name = "5 Jan 22 at 13:46";
width = 982;
},
{
components = (
{
name = AE;
},
{
name = acutecomb.case;
transform = "{1, 0, 0, 1, 525, 228}";
}
);
layerId = "B85C165C-5F8F-4735-B7B6-8DF6357F77F6";
width = 873;
},
{
background = {
paths = (
{
closed = 1;
nodes = (
"600 743 OFFCURVE",
"609 728 OFFCURVE",
"614 728 QCURVE SMOOTH",
"632 728 OFFCURVE",
"794 807 OFFCURVE",
"794 831 QCURVE SMOOTH",
"794 850 OFFCURVE",
"756 869 OFFCURVE",
"738 869 QCURVE SMOOTH",
"728 869 OFFCURVE",
"720 865 QCURVE",
"687 840 OFFCURVE",
"600 754 OFFCURVE",
"600 748 QCURVE SMOOTH"
);
},
{
closed = 1;
nodes = (
"147 132 LINE",
"106 69 LINE",
"97 57 OFFCURVE",
"28 33 OFFCURVE",
"16 33 QCURVE SMOOTH",
"15 33 OFFCURVE",
"10 13 OFFCURVE",
"10 8 QCURVE SMOOTH",
"10 -2 OFFCURVE",
"12 -4 QCURVE",
"29 -3 OFFCURVE",
"113 4 OFFCURVE",
"139 4 QCURVE SMOOTH",
"164 4 OFFCURVE",
"240 -3 OFFCURVE",
"254 -4 QCURVE",
"257 2 OFFCURVE",
"263 33 OFFCURVE",
"260 33 QCURVE SMOOTH",
"224 33 OFFCURVE",
"200 44 QCURVE",
"187 51 OFFCURVE",
"190 67 QCURVE SMOOTH",
"193 84 OFFCURVE",
"223 129 QCURVE SMOOTH",
"270 205 LINE",
"272 210 OFFCURVE",
"278 210 QCURVE SMOOTH",
"313 211 OFFCURVE",
"370 211 QCURVE SMOOTH",
"413 211 OFFCURVE",
"439 210 QCURVE",
"448 210 OFFCURVE",
"448 200 QCURVE SMOOTH",
"448 135 LINE SMOOTH",
"448 79 OFFCURVE",
"442 56 QCURVE",
"439 49 OFFCURVE",
"393 33 OFFCURVE",
"382 33 QCURVE SMOOTH",
"378 33 OFFCURVE",
"378 13 QCURVE SMOOTH",
"378 0 OFFCURVE",
"382 -4 QCURVE",
"522 2 LINE",
"565 2 OFFCURVE",
"807 -2 OFFCURVE",
"864 -2 QCURVE",
"869 32 OFFCURVE",
"918 170 QCURVE",
"912 176 OFFCURVE",
"888 176 QCURVE SMOOTH",
"876 176 OFFCURVE",
"874 170 QCURVE",
"862 139 OFFCURVE",
"819 89 OFFCURVE",
"802 80 QCURVE SMOOTH",
"752 54 OFFCURVE",
"690 54 QCURVE SMOOTH",
"664 54 LINE SMOOTH",
"601 54 OFFCURVE",
"596 70 QCURVE SMOOTH",
"588 93 OFFCURVE",
"588 141 QCURVE SMOOTH",
"588 295 LINE SMOOTH",
"588 304 OFFCURVE",
"660 304 QCURVE SMOOTH",
"725 304 OFFCURVE",
"738 296 QCURVE",
"739 295 OFFCURVE",
"745 292 OFFCURVE",
"747 290 OFFCURVE",
"752 282 OFFCURVE",
"756 272 OFFCURVE",
"762 252 OFFCURVE",
"766 238 QCURVE",
"769 230 OFFCURVE",
"782 230 QCURVE SMOOTH",
"799 230 OFFCURVE",
"803 234 QCURVE",
"803 423 LINE",
"798 428 OFFCURVE",
"781 428 QCURVE SMOOTH",
"767 428 OFFCURVE",
"766 421 QCURVE",
"762 407 OFFCURVE",
"760 392 QCURVE SMOOTH",
"757 367 OFFCURVE",
"752 363 QCURVE",
"746 359 OFFCURVE",
"684 359 QCURVE SMOOTH",
"631 359 LINE SMOOTH",
"588 359 OFFCURVE",
"588 365 QCURVE SMOOTH",
"588 519 LINE SMOOTH",
"588 573 OFFCURVE",
"593 597 QCURVE",
"595 610 OFFCURVE",
"658 610 QCURVE SMOOTH",
"696 610 LINE SMOOTH",
"735 610 OFFCURVE",
"817 556 OFFCURVE",
"836 518 QCURVE",
"839 511 OFFCURVE",
"850 511 QCURVE SMOOTH",
"868 511 OFFCURVE",
"873 516 QCURVE",
"845 654 OFFCURVE",
"844 664 QCURVE",
"788 664 OFFCURVE",
"566 656 OFFCURVE",
"521 656 QCURVE SMOOTH",
"454 656 OFFCURVE",
"383 664 QCURVE",
"380 661 OFFCURVE",
"380 627 OFFCURVE",
"384 627 QCURVE SMOOTH",
"395 627 OFFCURVE",
"433 609 OFFCURVE",
"433 598 QCURVE SMOOTH",
"433 590 OFFCURVE",
"429 584 QCURVE SMOOTH"
);
},
{
closed = 1;
nodes = (
"448 273 OFFCURVE",
"439 273 QCURVE SMOOTH",
"428 273 OFFCURVE",
"411 272 OFFCURVE",
"397 271 OFFCURVE",
"383 271 QCURVE SMOOTH",
"348 271 OFFCURVE",
"318 274 QCURVE",
"316 274 OFFCURVE",
"316 278 QCURVE",
"438 475 LINE SMOOTH",
"441 480 OFFCURVE",
"445 480 QCURVE SMOOTH",
"448 480 OFFCURVE",
"448 475 QCURVE SMOOTH",
"448 282 LINE SMOOTH"
);
}
);
};
components = (
{
name = AE;
},
{
name = acutecomb.case;
transform = "{1, 0, 0, 1, 581, 228}";
}
);
layerId = "C43979EA-9F64-4F78-971C-933464F87A97";
width = 931;
}
);
leftKerningGroup = A;
note = AEacute;
rightKerningGroup = E;
unicode = 01FC;
},
{
color = 10;
glyphname = AEmacron;
lastChange = "2022-03-10 16:51:15 +0000";
layers = (
{
background = {
paths = (
{
closed = 1;
nodes = (
"778 728 LINE",
"781 729 OFFCURVE",
"784 731 OFFCURVE",
"785 735 CURVE SMOOTH",
"790 749 OFFCURVE",
"792 760 OFFCURVE",
"792 769 CURVE SMOOTH",
"792 774 OFFCURVE",
"790 776 OFFCURVE",
"786 776 CURVE SMOOTH",
"536 776 LINE SMOOTH",
"527 776 OFFCURVE",
"522 763 OFFCURVE",
"522 737 CURVE SMOOTH",
"522 732 OFFCURVE",
"524 728 OFFCURVE",
"529 728 CURVE SMOOTH"
);
},
{
closed = 1;
nodes = (
"886 16 OFFCURVE",
"897 51 OFFCURVE",
"905 75 CURVE SMOOTH",
"913 98 OFFCURVE",
"930 145 OFFCURVE",
"937 162 CURVE",
"933 166 OFFCURVE",
"925 168 OFFCURVE",
"912 168 CURVE SMOOTH",
"904 168 OFFCURVE",
"899 166 OFFCURVE",
"898 162 CURVE SMOOTH",
"883 111 OFFCURVE",
"855 72 OFFCURVE",
"835 61 CURVE SMOOTH",
"813 50 OFFCURVE",
"771 44 OFFCURVE",
"709 44 CURVE SMOOTH",
"661 44 LINE SMOOTH",
"618 44 OFFCURVE",
"595 47 OFFCURVE",
"593 54 CURVE SMOOTH",
"587 71 OFFCURVE",
"584 102 OFFCURVE",
"584 145 CURVE SMOOTH",
"584 300 LINE SMOOTH",
"584 306 OFFCURVE",
"608 309 OFFCURVE",
"656 309 CURVE SMOOTH",
"718 309 OFFCURVE",
"753 306 OFFCURVE",
"762 301 CURVE SMOOTH",
"770 296 OFFCURVE",
"771 297 OFFCURVE",
"778 279 CURVE SMOOTH",
"781 270 OFFCURVE",
"785 256 OFFCURVE",
"790 238 CURVE SMOOTH",
"792 233 OFFCURVE",
"797 230 OFFCURVE",
"806 230 CURVE SMOOTH",
"814 230 OFFCURVE",
"819 231 OFFCURVE",
"822 234 CURVE",
"822 423 LINE",
"819 426 OFFCURVE",
"813 428 OFFCURVE",
"805 428 CURVE SMOOTH",
"796 428 OFFCURVE",
"791 426 OFFCURVE",
"790 421 CURVE SMOOTH",
"785 402 OFFCURVE",
"778 365 OFFCURVE",
"765 362 CURVE SMOOTH",
"733 354 OFFCURVE",
"748 353 OFFCURVE",
"680 353 CURVE SMOOTH",
"627 353 LINE SMOOTH",
"598 353 OFFCURVE",
"584 355 OFFCURVE",
"584 359 CURVE SMOOTH",
"584 519 LINE SMOOTH",
"584 559 OFFCURVE",
"586 587 OFFCURVE",
"589 603 CURVE SMOOTH",
"590 612 OFFCURVE",
"620 616 OFFCURVE",
"677 616 CURVE SMOOTH",
"744 616 LINE SMOOTH",
"807 616 OFFCURVE",
"840 603 OFFCURVE",
"860 530 CURVE SMOOTH",
"861 525 OFFCURVE",
"865 523 OFFCURVE",
"874 523 CURVE SMOOTH",
"883 523 OFFCURVE",
"889 525 OFFCURVE",
"892 528 CURVE",
"891 536 OFFCURVE",
"886 556 OFFCURVE",
"879 588 CURVE SMOOTH",
"871 619 OFFCURVE",
"866 645 OFFCURVE",
"863 664 CURVE",
"825 664 OFFCURVE",
"769 663 OFFCURVE",
"695 660 CURVE SMOOTH",
"621 657 OFFCURVE",
"569 656 OFFCURVE",
"540 656 CURVE SMOOTH",
"495 656 OFFCURVE",
"457 657 OFFCURVE",
"424 658 CURVE",
"421 655 OFFCURVE",
"420 650 OFFCURVE",
"420 643 CURVE SMOOTH",
"420 634 OFFCURVE",
"421 629 OFFCURVE",
"424 629 CURVE SMOOTH",
"441 629 OFFCURVE",
"469 620 OFFCURVE",
"469 604 CURVE SMOOTH",
"469 599 OFFCURVE",
"467 592 OFFCURVE",
"462 584 CURVE SMOOTH",
"185 137 LINE SMOOTH",
"157 91 OFFCURVE",
"134 60 OFFCURVE",
"116 43 CURVE SMOOTH",
"105 32 OFFCURVE",
"84 26 OFFCURVE",
"55 26 CURVE SMOOTH",
"52 26 OFFCURVE",
"50 21 OFFCURVE",
"48 10 CURVE SMOOTH",
"47 3 OFFCURVE",
"47 -2 OFFCURVE",
"48 -3 CURVE",
"94 -1 OFFCURVE",
"129 0 OFFCURVE",
"153 0 CURVE SMOOTH",
"181 0 OFFCURVE",
"215 -1 OFFCURVE",
"255 -3 CURVE",
"258 4 OFFCURVE",
"263 26 OFFCURVE",
"260 26 CURVE SMOOTH",
"233 26 OFFCURVE",
"215 31 OFFCURVE",
"206 40 CURVE SMOOTH",
"201 45 OFFCURVE",
"200 51 OFFCURVE",
"202 60 CURVE SMOOTH",
"205 73 OFFCURVE",
"216 96 OFFCURVE",
"235 129 CURVE SMOOTH",
"304 239 LINE",
"309 242 LINE",
"360 245 OFFCURVE",
"393 247 OFFCURVE",
"408 247 CURVE SMOOTH",
"445 247 OFFCURVE",
"470 246 OFFCURVE",
"484 244 CURVE SMOOTH",
"493 242 OFFCURVE",
"497 238 OFFCURVE",
"497 233 CURVE SMOOTH",
"497 135 LINE SMOOTH",
"497 96 OFFCURVE",
"495 67 OFFCURVE",
"490 49 CURVE SMOOTH",
"486 38 OFFCURVE",
"440 26 OFFCURVE",
"424 26 CURVE SMOOTH",
"421 26 OFFCURVE",
"420 21 OFFCURVE",
"420 12 CURVE SMOOTH",
"420 5 OFFCURVE",
"421 0 OFFCURVE",
"424 -3 CURVE",
"542 2 LINE SMOOTH",
"571 2 OFFCURVE",
"625 1 OFFCURVE",
"706 -1 CURVE SMOOTH",
"786 -3 OFFCURVE",
"845 -4 OFFCURVE",
"883 -4 CURVE"
);
},
{
closed = 1;
nodes = (
"401 295 OFFCURVE",
"378 296 OFFCURVE",
"343 297 CURVE SMOOTH",
"342 297 OFFCURVE",
"341 298 OFFCURVE",
"342 301 CURVE",
"479 524 LINE SMOOTH",
"482 529 OFFCURVE",
"485 531 OFFCURVE",
"488 531 CURVE SMOOTH",
"494 531 OFFCURVE",
"497 528 OFFCURVE",
"497 523 CURVE SMOOTH",
"497 308 LINE SMOOTH",
"497 301 OFFCURVE",
"493 297 OFFCURVE",
"485 297 CURVE SMOOTH",
"450 296 OFFCURVE",
"426 295 OFFCURVE",
"413 295 CURVE SMOOTH"
);
}
);
};
components = (
{
name = AE;
},
{
name = macroncomb.case;
transform = "{1, 0, 0, 1, 484, 226}";
}
);
layerId = "02396921-8257-42A3-8ED5-3052446F9CE3";
width = 847;
},
{
associatedMasterId = "02396921-8257-42A3-8ED5-3052446F9CE3";
components = (
{
name = macroncomb.case;
transform = "{1, 0, 0, 1, 464, 180}";
},
{
name = AE;
}
);
layerId = "68B0573A-614C-4C95-ABD6-54EB020AECC6";
name = "5 Jan 22 at 13:46";
width = 982;
},
{
associatedMasterId = "02396921-8257-42A3-8ED5-3052446F9CE3";
components = (
{
name = macroncomb.case;
transform = "{1, 0, 0, 1, 464, 180}";
},
{
name = AE;
}
);
layerId = "D11D3C85-F5E3-46E0-8A86-1FD52BD9718A";
name = "5 Jan 22 at 13:46";
width = 982;
},
{
components = (
{
name = AE;
},
{
name = macroncomb.case;
transform = "{1, 0, 0, 1, 481, 228}";
}
);
layerId = "B85C165C-5F8F-4735-B7B6-8DF6357F77F6";
width = 873;
},
{
background = {
paths = (
{
closed = 1;
nodes = (
"460 733 OFFCURVE",
"461 730 QCURVE",
"466 728 OFFCURVE",
"466 728 QCURVE",
"754 728 LINE",
"757 732 LINE SMOOTH",
"760 736 OFFCURVE",
"767 765 OFFCURVE",
"768 787 QCURVE",
"768 797 OFFCURVE",
"762 797 QCURVE SMOOTH",
"475 797 LINE SMOOTH",
"473 797 OFFCURVE",
"467 789 OFFCURVE",
"461 761 OFFCURVE",
"460 739 QCURVE"
);
},
{
closed = 1;
nodes = (
"147 132 LINE",
"106 69 LINE",
"97 57 OFFCURVE",
"28 33 OFFCURVE",
"16 33 QCURVE SMOOTH",
"15 33 OFFCURVE",
"10 13 OFFCURVE",
"10 8 QCURVE SMOOTH",
"10 -2 OFFCURVE",
"12 -4 QCURVE",
"29 -3 OFFCURVE",
"113 4 OFFCURVE",
"139 4 QCURVE SMOOTH",
"164 4 OFFCURVE",
"240 -3 OFFCURVE",
"254 -4 QCURVE",
"257 2 OFFCURVE",
"263 33 OFFCURVE",
"260 33 QCURVE SMOOTH",
"224 33 OFFCURVE",
"200 44 QCURVE",
"187 51 OFFCURVE",
"190 67 QCURVE SMOOTH",
"193 84 OFFCURVE",
"223 129 QCURVE SMOOTH",
"270 205 LINE",
"272 210 OFFCURVE",
"278 210 QCURVE SMOOTH",
"313 211 OFFCURVE",
"370 211 QCURVE SMOOTH",
"413 211 OFFCURVE",
"439 210 QCURVE",
"448 210 OFFCURVE",
"448 200 QCURVE SMOOTH",
"448 135 LINE SMOOTH",
"448 79 OFFCURVE",
"442 56 QCURVE",
"439 49 OFFCURVE",
"393 33 OFFCURVE",
"382 33 QCURVE SMOOTH",
"378 33 OFFCURVE",
"378 13 QCURVE SMOOTH",
"378 0 OFFCURVE",
"382 -4 QCURVE",
"522 2 LINE",
"565 2 OFFCURVE",
"807 -2 OFFCURVE",
"864 -2 QCURVE",
"869 32 OFFCURVE",
"918 170 QCURVE",
"912 176 OFFCURVE",
"888 176 QCURVE SMOOTH",
"876 176 OFFCURVE",
"874 170 QCURVE",
"862 139 OFFCURVE",
"819 89 OFFCURVE",
"802 80 QCURVE SMOOTH",
"752 54 OFFCURVE",
"690 54 QCURVE SMOOTH",
"664 54 LINE SMOOTH",
"601 54 OFFCURVE",
"596 70 QCURVE SMOOTH",
"588 93 OFFCURVE",
"588 141 QCURVE SMOOTH",
"588 295 LINE SMOOTH",
"588 304 OFFCURVE",
"660 304 QCURVE SMOOTH",
"725 304 OFFCURVE",
"738 296 QCURVE",
"739 295 OFFCURVE",
"745 292 OFFCURVE",
"747 290 OFFCURVE",
"752 282 OFFCURVE",
"756 272 OFFCURVE",
"762 252 OFFCURVE",
"766 238 QCURVE",
"769 230 OFFCURVE",
"782 230 QCURVE SMOOTH",
"799 230 OFFCURVE",
"803 234 QCURVE",
"803 423 LINE",
"798 428 OFFCURVE",
"781 428 QCURVE SMOOTH",
"767 428 OFFCURVE",
"766 421 QCURVE",
"762 407 OFFCURVE",
"760 392 QCURVE SMOOTH",
"757 367 OFFCURVE",
"752 363 QCURVE",
"746 359 OFFCURVE",
"684 359 QCURVE SMOOTH",
"631 359 LINE SMOOTH",
"588 359 OFFCURVE",
"588 365 QCURVE SMOOTH",
"588 519 LINE SMOOTH",
"588 573 OFFCURVE",
"593 597 QCURVE",
"595 610 OFFCURVE",
"658 610 QCURVE SMOOTH",
"696 610 LINE SMOOTH",
"735 610 OFFCURVE",
"817 556 OFFCURVE",
"836 518 QCURVE",
"839 511 OFFCURVE",
"850 511 QCURVE SMOOTH",
"868 511 OFFCURVE",
"873 516 QCURVE",
"845 654 OFFCURVE",
"844 664 QCURVE",
"788 664 OFFCURVE",
"566 656 OFFCURVE",
"521 656 QCURVE SMOOTH",
"454 656 OFFCURVE",
"383 664 QCURVE",
"380 661 OFFCURVE",
"380 627 OFFCURVE",
"384 627 QCURVE SMOOTH",
"395 627 OFFCURVE",
"433 609 OFFCURVE",
"433 598 QCURVE SMOOTH",
"433 590 OFFCURVE",
"429 584 QCURVE SMOOTH"
);
},
{
closed = 1;
nodes = (
"448 273 OFFCURVE",
"439 273 QCURVE SMOOTH",
"428 273 OFFCURVE",
"411 272 OFFCURVE",
"397 271 OFFCURVE",
"383 271 QCURVE SMOOTH",
"348 271 OFFCURVE",
"318 274 QCURVE",
"316 274 OFFCURVE",
"316 278 QCURVE",
"438 475 LINE SMOOTH",
"441 480 OFFCURVE",
"445 480 QCURVE SMOOTH",
"448 480 OFFCURVE",
"448 475 QCURVE SMOOTH",
"448 282 LINE SMOOTH"
);
}
);
};
components = (
{
name = AE;
},
{
alignment = 1;
name = macroncomb.case;
transform = "{1, 0, 0, 1, 492, 228}";
}
);
layerId = "C43979EA-9F64-4F78-971C-933464F87A97";
width = 931;
}
);
leftKerningGroup = A;
note = uni01E2;
rightKerningGroup = E;
unicode = 01E2;
},
{
color = 6;
glyphname = B;
lastChange = "2022-03-10 16:51:15 +0000";
layers = (
{
anchors = (
{
name = bottom;
position = "{262, 0}";
},
{
name = center;
position = "{286, 329}";
},
{
name = top;
position = "{370, 658}";
}
);
background = {
paths = (
{
closed = 1;
nodes = (
"390 73 OFFCURVE",
"349 54 QCURVE SMOOTH",
"322 41 OFFCURVE",
"252 41 QCURVE SMOOTH",
"220 41 OFFCURVE",
"192 50 OFFCURVE",
"192 86 OFFCURVE",
"197 116 QCURVE SMOOTH",
"235 316 LINE SMOOTH",
"238 331 OFFCURVE",
"309 331 QCURVE SMOOTH",
"382 331 OFFCURVE",
"448 264 OFFCURVE",
"448 211 QCURVE SMOOTH",
"448 157 OFFCURVE"
);
},
{
closed = 1;
nodes = (
"462 356 OFFCURVE",
"432 361 QCURVE",
"438 364 LINE SMOOTH",
"445 367 OFFCURVE",
"468 380 OFFCURVE",
"494 399 OFFCURVE",
"522 427 OFFCURVE",
"544 459 OFFCURVE",
"558 504 OFFCURVE",
"558 528 QCURVE SMOOTH",
"558 563 OFFCURVE",
"526 616 OFFCURVE",
"475 644 OFFCURVE",
"420 657 OFFCURVE",
"392 657 QCURVE SMOOTH",
"368 657 OFFCURVE",
"308 656 OFFCURVE",
"261 656 QCURVE SMOOTH",
"200 656 OFFCURVE",
"154 658 QCURVE",
"147 651 OFFCURVE",
"147 635 QCURVE SMOOTH",
"147 631 OFFCURVE",
"149 631 QCURVE SMOOTH",
"160 631 OFFCURVE",
"205 614 OFFCURVE",
"205 607 QCURVE SMOOTH",
"205 571 OFFCURVE",
"194 514 QCURVE SMOOTH",
"122 142 LINE SMOOTH",
"110 78 OFFCURVE",
"96 49 QCURVE SMOOTH",
"92 40 OFFCURVE",
"43 26 OFFCURVE",
"31 26 QCURVE SMOOTH",
"24 26 OFFCURVE",
"24 6 QCURVE SMOOTH",
"24 -2 OFFCURVE",
"25 -3 QCURVE",
"135 0 LINE",
"262 0 LINE SMOOTH",
"389 0 OFFCURVE",
"538 133 OFFCURVE",
"538 215 QCURVE SMOOTH",
"538 272 OFFCURVE"
);
},
{
closed = 1;
nodes = (
"443 407 OFFCURVE",
"387 381 OFFCURVE",
"341 373 OFFCURVE",
"309 373 QCURVE SMOOTH",
"296 373 OFFCURVE",
"276 374 OFFCURVE",
"258 377 OFFCURVE",
"249 382 OFFCURVE",
"250 386 QCURVE SMOOTH",
"295 603 LINE SMOOTH",
"297 616 OFFCURVE",
"370 616 QCURVE SMOOTH",
"473 616 OFFCURVE",
"473 516 QCURVE SMOOTH",
"473 469 OFFCURVE"
);
}
);
};
layerId = "02396921-8257-42A3-8ED5-3052446F9CE3";
paths = (
{
closed = 1;
nodes = (
"135 0 LINE",
"262 0 LINE SMOOTH",
"437 0 OFFCURVE",
"538 106 OFFCURVE",
"538 215 CURVE SMOOTH",
"538 291 OFFCURVE",
"472 354 OFFCURVE",
"432 361 CURVE",
"438 364 LINE SMOOTH",
"506 398 OFFCURVE",
"558 452 OFFCURVE",
"558 528 CURVE SMOOTH",
"558 620 OFFCURVE",
"472 657 OFFCURVE",
"392 657 CURVE SMOOTH",
"325 657 OFFCURVE",
"227 655 OFFCURVE",
"154 658 CURVE",
"149 653 OFFCURVE",
"147 646 OFFCURVE",
"147 635 CURVE SMOOTH",
"147 632 OFFCURVE",
"148 631 OFFCURVE",
"149 631 CURVE SMOOTH",
"164 631 OFFCURVE",
"205 616 OFFCURVE",
"205 607 CURVE SMOOTH",
"205 583 OFFCURVE",
"201 552 OFFCURVE",
"194 514 CURVE SMOOTH",
"122 142 LINE SMOOTH",
"114 99 OFFCURVE",
"105 68 OFFCURVE",
"96 49 CURVE SMOOTH",
"91 37 OFFCURVE",
"47 26 OFFCURVE",
"31 26 CURVE SMOOTH",
"26 26 OFFCURVE",
"24 19 OFFCURVE",
"24 6 CURVE SMOOTH",
"24 1 OFFCURVE",
"24 -2 OFFCURVE",
"25 -3 CURVE"
);
},
{
closed = 1;
nodes = (
"218 41 OFFCURVE",
"192 44 OFFCURVE",
"192 68 CURVE SMOOTH",
"192 80 OFFCURVE",
"193 96 OFFCURVE",
"197 116 CURVE SMOOTH",
"235 316 LINE SMOOTH",
"237 326 OFFCURVE",
"262 331 OFFCURVE",
"309 331 CURVE SMOOTH",
"406 331 OFFCURVE",
"448 282 OFFCURVE",
"448 211 CURVE SMOOTH",
"448 126 OFFCURVE",
"394 41 OFFCURVE",
"266 41 CURVE SMOOTH"
);
},
{
closed = 1;
nodes = (
"268 373 OFFCURVE",
"248 377 OFFCURVE",
"250 386 CURVE SMOOTH",
"295 603 LINE SMOOTH",
"297 612 OFFCURVE",
"321 616 OFFCURVE",
"370 616 CURVE SMOOTH",
"439 616 OFFCURVE",
"473 583 OFFCURVE",
"473 516 CURVE SMOOTH",
"473 453 OFFCURVE",
"452 411 OFFCURVE",
"415 394 CURVE SMOOTH",
"378 377 OFFCURVE",
"352 373 OFFCURVE",
"309 373 CURVE SMOOTH"
);
}
);
width = 551;
},
{
anchors = (
{
name = bottom;
position = "{238, 0}";
},
{
name = center;
position = "{302, 329}";
},
{
name = top;
position = "{366, 658}";
}
);
background = {
paths = (
{
closed = 1;
nodes = (
"407 157 OFFCURVE",
"353 75 OFFCURVE",
"318 59 QCURVE SMOOTH",
"295 48 OFFCURVE",
"246 48 QCURVE SMOOTH",
"207 48 OFFCURVE",
"180 56 OFFCURVE",
"180 70 QCURVE SMOOTH",
"180 81 OFFCURVE",
"183 96 QCURVE SMOOTH",
"224 308 LINE SMOOTH",
"227 323 OFFCURVE",
"291 323 QCURVE SMOOTH",
"407 323 OFFCURVE",
"407 217 QCURVE SMOOTH"
);
},
{
closed = 1;
nodes = (
"522 275 OFFCURVE",
"459 349 OFFCURVE",
"431 354 QCURVE",
"435 356 LINE SMOOTH",
"439 358 OFFCURVE",
"453 366 OFFCURVE",
"470 378 OFFCURVE",
"490 394 OFFCURVE",
"510 414 OFFCURVE",
"528 440 OFFCURVE",
"542 469 OFFCURVE",
"550 504 OFFCURVE",
"550 523 QCURVE SMOOTH",
"550 592 OFFCURVE",
"444 659 OFFCURVE",
"378 659 QCURVE SMOOTH",
"364 659 OFFCURVE",
"294 657 OFFCURVE",
"240 657 QCURVE SMOOTH",
"178 657 OFFCURVE",
"122 662 QCURVE",
"114 654 OFFCURVE",
"114 638 QCURVE SMOOTH",
"114 633 OFFCURVE",
"118 631 OFFCURVE",
"148 620 OFFCURVE",
"170 608 OFFCURVE",
"170 603 QCURVE SMOOTH",
"170 572 OFFCURVE",
"160 518 QCURVE SMOOTH",
"87 142 LINE SMOOTH",
"75 79 OFFCURVE",
"61 52 QCURVE SMOOTH",
"56 43 OFFCURVE",
"9 27 OFFCURVE",
"-2 27 QCURVE SMOOTH",
"-8 27 OFFCURVE",
"-8 6 QCURVE SMOOTH",
"-8 -1 OFFCURVE",
"-6 -3 QCURVE",
"86 1 OFFCURVE",
"108 1 QCURVE SMOOTH",
"109 1 OFFCURVE",
"178 0 QCURVE SMOOTH",
"248 0 LINE SMOOTH",
"369 0 OFFCURVE",
"522 130 OFFCURVE",
"522 221 QCURVE SMOOTH"
);
},
{
closed = 1;
nodes = (
"437 372 OFFCURVE",
"292 372 QCURVE SMOOTH",
"237 372 OFFCURVE",
"240 386 QCURVE SMOOTH",
"282 596 LINE",
"286 611 OFFCURVE",
"349 611 QCURVE SMOOTH",
"437 611 OFFCURVE",
"437 523 QCURVE SMOOTH"
);
}
);
};
layerId = "B85C165C-5F8F-4735-B7B6-8DF6357F77F6";
paths = (
{
closed = 1;
nodes = (
"55 0 OFFCURVE",
"93 1 OFFCURVE",
"108 1 CURVE SMOOTH",
"109 1 OFFCURVE",
"132 0 OFFCURVE",
"178 0 CURVE SMOOTH",
"248 0 LINE SMOOTH",
"409 0 OFFCURVE",
"522 100 OFFCURVE",
"522 221 CURVE SMOOTH",
"522 293 OFFCURVE",
"468 347 OFFCURVE",
"431 354 CURVE",
"435 356 LINE SMOOTH",
"491 384 OFFCURVE",
"550 442 OFFCURVE",
"550 523 CURVE SMOOTH",
"550 615 OFFCURVE",
"466 659 OFFCURVE",
"378 659 CURVE SMOOTH",
"369 659 OFFCURVE",
"276 657 OFFCURVE",
"240 657 CURVE SMOOTH",
"199 657 OFFCURVE",
"159 659 OFFCURVE",
"122 662 CURVE",
"117 657 OFFCURVE",
"114 647 OFFCURVE",
"114 635 CURVE SMOOTH",
"114 629 OFFCURVE",
"170 617 OFFCURVE",
"170 603 CURVE SMOOTH",
"170 582 OFFCURVE",
"167 554 OFFCURVE",
"160 518 CURVE SMOOTH",
"87 142 LINE SMOOTH",
"79 100 OFFCURVE",
"70 70 OFFCURVE",
"61 52 CURVE SMOOTH",
"54 40 OFFCURVE",
"13 27 OFFCURVE",
"-2 27 CURVE SMOOTH",
"-6 27 OFFCURVE",
"-8 20 OFFCURVE",
"-8 6 CURVE SMOOTH",
"-8 1 OFFCURVE",
"-7 -2 OFFCURVE",
"-6 -3 CURVE"
);
},
{
closed = 1;
nodes = (
"221 48 OFFCURVE",
"180 45 OFFCURVE",
"180 70 CURVE SMOOTH",
"180 77 OFFCURVE",
"181 86 OFFCURVE",
"183 96 CURVE SMOOTH",
"224 308 LINE SMOOTH",
"226 318 OFFCURVE",
"248 323 OFFCURVE",
"291 323 CURVE SMOOTH",
"368 323 OFFCURVE",
"407 288 OFFCURVE",
"407 217 CURVE SMOOTH",
"407 119 OFFCURVE",
"346 48 OFFCURVE",
"258 48 CURVE SMOOTH"
);
},
{
closed = 1;
nodes = (
"255 372 OFFCURVE",
"238 377 OFFCURVE",
"240 386 CURVE SMOOTH",
"282 596 LINE SMOOTH",
"284 606 OFFCURVE",
"307 611 OFFCURVE",
"349 611 CURVE SMOOTH",
"408 611 OFFCURVE",
"437 582 OFFCURVE",
"437 523 CURVE SMOOTH",
"437 422 OFFCURVE",
"389 372 OFFCURVE",
"292 372 CURVE SMOOTH"
);
}
);
width = 560;
},
{
anchors = (
{
name = bottom;
position = "{241, 0}";
},
{
name = center;
position = "{281, 329}";
},
{
name = top;
position = "{361, 658}";
}
);
background = {
paths = (
{
closed = 1;
nodes = (
"392 134.667 OFFCURVE",
"352.667 80 OFFCURVE",
"314 64 CURVE SMOOTH",
"300 58 OFFCURVE",
"284.667 55 OFFCURVE",
"268 55 CURVE SMOOTH",
"230.963 55 OFFCURVE",
"196 55.082 OFFCURVE",
"196 72 CURVE SMOOTH",
"196 74.667 OFFCURVE",
"196 76 OFFCURVE",
"196 76 CURVE",
"240 301 LINE",
"241.333 310.333 OFFCURVE",
"261.333 315 OFFCURVE",
"300 315 CURVE SMOOTH",
"361.333 315 OFFCURVE",
"392 284.667 OFFCURVE",
"392 224 CURVE SMOOTH"
);
},
{
closed = 1;
nodes = (
"533 294 OFFCURVE",
"491.667 341.333 OFFCURVE",
"457 348 CURVE",
"0 0 OFFCURVE",
"463.996 351.998 OFFCURVE",
"470.5 356 CURVE SMOOTH",
"479.167 361.333 OFFCURVE",
"491 369.167 OFFCURVE",
"503 380.5 CURVE SMOOTH",
"546.541 421.622 OFFCURVE",
"557.029 443.947 OFFCURVE",
"568 518 CURVE",
"568 614.292 OFFCURVE",
"479.236 661 OFFCURVE",
"391 661 CURVE SMOOTH",
"387 661 OFFCURVE",
"371.833 660.667 OFFCURVE",
"345.5 660 CURVE SMOOTH",
"319.167 659.333 OFFCURVE",
"286.333 659 OFFCURVE",
"247 659 CURVE SMOOTH",
"205.667 659 OFFCURVE",
"162 660 OFFCURVE",
"116 662 CURVE",
"111.333 657.333 OFFCURVE",
"109 648.333 OFFCURVE",
"109 635 CURVE SMOOTH",
"109 630.333 OFFCURVE",
"109.667 628 OFFCURVE",
"111 628 CURVE SMOOTH",
"123 628 OFFCURVE",
"160.667 609.667 OFFCURVE",
"162 599 CURVE",
"162.667 589.667 OFFCURVE",
"159.333 563.667 OFFCURVE",
"152 521 CURVE SMOOTH",
"79 143 LINE SMOOTH",
"70.333 98.333 OFFCURVE",
"62 69 OFFCURVE",
"54 55 CURVE SMOOTH",
"47.333 43 OFFCURVE",
"8.333 30 OFFCURVE",
"-5 30 CURVE SMOOTH",
"-9.047 30 OFFCURVE",
"-13 12.128 OFFCURVE",
"-13 5 CURVE SMOOTH",
"-13 0.333 OFFCURVE",
"-12.333 -2.667 OFFCURVE",
"-11 -4 CURVE",
"-3.667 -4 OFFCURVE",
"12.333 -3 OFFCURVE",
"37 -1 CURVE SMOOTH",
"61.667 1 OFFCURVE",
"85.333 2 OFFCURVE",
"108 2 CURVE SMOOTH",
"109.333 2 OFFCURVE",
"135.167 1.667 OFFCURVE",
"185.5 1 CURVE SMOOTH",
"235.833 0.333 OFFCURVE",
"261.333 0 OFFCURVE",
"262 0 CURVE SMOOTH",
"415.333 0 OFFCURVE",
"533 92.667 OFFCURVE",
"533 226 CURVE SMOOTH"
);
},
{
closed = 1;
nodes = (
"428 422.333 OFFCURVE",
"379.333 371 OFFCURVE",
"302 371 CURVE SMOOTH",
"269.333 371 OFFCURVE",
"254 375.667 OFFCURVE",
"256 385 CURVE SMOOTH",
"296 590 LINE",
"298 596.667 OFFCURVE",
"303.5 601 OFFCURVE",
"312.5 603 CURVE SMOOTH",
"321.5 605 OFFCURVE",
"335.667 606 OFFCURVE",
"355 606 CURVE SMOOTH",
"404.333 606 OFFCURVE",
"428 585 OFFCURVE",
"428 529 CURVE SMOOTH"
);
}
);
};
layerId = "C43979EA-9F64-4F78-971C-933464F87A97";
paths = (
{
closed = 1;
nodes = (
"12 -4 OFFCURVE",
"71 2 OFFCURVE",
"104 2 CURVE SMOOTH",
"140 2 OFFCURVE",
"239 0 OFFCURVE",
"262 0 CURVE SMOOTH",
"415 0 OFFCURVE",
"533 93 OFFCURVE",
"533 226 CURVE SMOOTH",
"533 294 OFFCURVE",
"494 338 OFFCURVE",
"459 347 CURVE",
"474 357 LINE SMOOTH",
"533 396 OFFCURVE",
"568 456 OFFCURVE",
"568 521 CURVE SMOOTH",
"568 596 OFFCURVE",
"499 661 OFFCURVE",
"391 661 CURVE SMOOTH",
"364 661 OFFCURVE",
"286 659 OFFCURVE",
"247 659 CURVE SMOOTH",
"206 659 OFFCURVE",
"162 660 OFFCURVE",
"116 662 CURVE",
"111 657 OFFCURVE",
"109 648 OFFCURVE",
"109 635 CURVE SMOOTH",
"109 630 OFFCURVE",
"110 628 OFFCURVE",
"111 628 CURVE SMOOTH",
"123 628 OFFCURVE",
"161 610 OFFCURVE",
"162 599 CURVE SMOOTH",
"163 590 OFFCURVE",
"160 564 OFFCURVE",
"152 521 CURVE SMOOTH",
"79 143 LINE SMOOTH",
"70 98 OFFCURVE",
"62 69 OFFCURVE",
"54 55 CURVE SMOOTH",
"47 43 OFFCURVE",
"8 30 OFFCURVE",
"-5 30 CURVE SMOOTH",
"-9 30 OFFCURVE",
"-13 12 OFFCURVE",
"-13 5 CURVE SMOOTH",
"-13 0 OFFCURVE",
"-12 -3 OFFCURVE",
"-11 -4 CURVE"
);
},
{
closed = 1;
nodes = (
"231 55 OFFCURVE",
"196 55 OFFCURVE",
"196 72 CURVE SMOOTH",
"196 76 LINE",
"240 301 LINE SMOOTH",
"242 310 OFFCURVE",
"261 315 OFFCURVE",
"300 315 CURVE SMOOTH",
"361 315 OFFCURVE",
"392 285 OFFCURVE",
"392 224 CURVE SMOOTH",
"392 129 OFFCURVE",
"349 55 OFFCURVE",
"268 55 CURVE SMOOTH"
);
},
{
closed = 1;
nodes = (
"269 371 OFFCURVE",
"254 376 OFFCURVE",
"256 385 CURVE SMOOTH",
"296 590 LINE",
"301 608 OFFCURVE",
"337 606 OFFCURVE",
"355 606 CURVE SMOOTH",
"404 606 OFFCURVE",
"428 585 OFFCURVE",
"428 529 CURVE SMOOTH",
"428 422 OFFCURVE",
"379 371 OFFCURVE",
"302 371 CURVE SMOOTH"
);
}
);
width = 561;
}
);
leftKerningGroup = H;
note = B;
rightKerningGroup = B;
unicode = 0042;
},
{
color = 10;
glyphname = Bdotaccent;
lastChange = "2022-03-10 16:51:15 +0000";
layers = (
{
background = {
anchors = (
{
name = bottom;
position = "{296, 0}";
},
{
name = center;
position = "{296, 328}";
},
{
name = top;
position = "{296, 656}";
}
);
paths = (
{
closed = 1;
nodes = (
"265 712 OFFCURVE",
"320 733 OFFCURVE",
"320 778 CURVE SMOOTH",
"320 806 OFFCURVE",
"298 828 OFFCURVE",
"270 828 CURVE SMOOTH",
"225 828 OFFCURVE",
"204 773 OFFCURVE",
"235 743 CURVE SMOOTH"
);
},
{
closed = 1;
nodes = (
"161 0 LINE",
"298 0 LINE SMOOTH",
"451 0 OFFCURVE",
"552 72 OFFCURVE",
"552 187 CURVE SMOOTH",
"552 276 OFFCURVE",
"457 351 OFFCURVE",
"405 360 CURVE",
"403 362 OFFCURVE",
"405 364 OFFCURVE",
"410 366 CURVE SMOOTH",
"429 373 OFFCURVE",
"455 385 OFFCURVE",
"486 426 CURVE SMOOTH",
"501 447 OFFCURVE",
"509 469 OFFCURVE",
"509 493 CURVE SMOOTH",
"509 589 OFFCURVE",
"433 639 OFFCURVE",
"353 653 CURVE SMOOTH",
"335 656 OFFCURVE",
"317 657 OFFCURVE",
"300 657 CURVE SMOOTH",
"283 657 OFFCURVE",
"264 657 OFFCURVE",
"242.5 656.5 CURVE SMOOTH",
"159 656 LINE SMOOTH",
"114 656 OFFCURVE",
"75 657 OFFCURVE",
"40 658 CURVE",
"37 655 OFFCURVE",
"36 650 OFFCURVE",
"36 641 CURVE SMOOTH",
"36 633 OFFCURVE",
"37 629 OFFCURVE",
"40 629 CURVE SMOOTH",
"57 629 OFFCURVE",
"105 618 OFFCURVE",
"109 607 CURVE SMOOTH",
"114 589 OFFCURVE",
"116 560 OFFCURVE",
"116 521 CURVE SMOOTH",
"116 143 LINE SMOOTH",
"116 88 OFFCURVE",
"114 57 OFFCURVE",
"109 49 CURVE SMOOTH",
"102 37 OFFCURVE",
"57 26 OFFCURVE",
"40 26 CURVE SMOOTH",
"38 26 OFFCURVE",
"37 22 OFFCURVE",
"37 13 CURVE SMOOTH",
"37 4 OFFCURVE",
"38 -1 OFFCURVE",
"40 -3 CURVE"
);
},
{
closed = 1;
nodes = (
"247 45 OFFCURVE",
"229 50 OFFCURVE",
"219 59 CURVE SMOOTH",
"208 68 OFFCURVE",
"203 97 OFFCURVE",
"203 148 CURVE SMOOTH",
"203 294 LINE SMOOTH",
"203 308 OFFCURVE",
"204 319 OFFCURVE",
"207 327 CURVE",
"240 330 OFFCURVE",
"264 331 OFFCURVE",
"279 331 CURVE SMOOTH",
"402 331 OFFCURVE",
"457 261 OFFCURVE",
"457 176 CURVE SMOOTH",
"457 119 OFFCURVE",
"426 80 OFFCURVE",
"381 65 CURVE SMOOTH",
"336 49 OFFCURVE",
"306 45 OFFCURVE",
"273 45 CURVE SMOOTH"
);
},
{
closed = 1;
nodes = (
"225 373 OFFCURVE",
"203 375 OFFCURVE",
"203 380 CURVE SMOOTH",
"203 499 LINE",
"207 600 LINE SMOOTH",
"207 605 OFFCURVE",
"209 608 OFFCURVE",
"213 609 CURVE SMOOTH",
"230 614 OFFCURVE",
"253 616 OFFCURVE",
"284 616 CURVE SMOOTH",
"375 616 OFFCURVE",
"421 562 OFFCURVE",
"421 470 CURVE SMOOTH",
"421 415 OFFCURVE",
"380 381 OFFCURVE",
"325 376 CURVE SMOOTH",
"309 374 OFFCURVE",
"290 373 OFFCURVE",
"269 373 CURVE SMOOTH"
);
}
);
};
components = (
{
name = B;
},
{
name = dotaccentcomb;
transform = "{1, 0, 0, 1, 272, 228}";
}
);
layerId = "02396921-8257-42A3-8ED5-3052446F9CE3";
width = 551;
},
{
associatedMasterId = "02396921-8257-42A3-8ED5-3052446F9CE3";
components = (
{
name = dotaccentcomb.case;
transform = "{1, 0, 0, 1, 126, 17}";
},
{
name = B;
}
);
layerId = "03EAA870-A099-4A14-91A2-4D39E2DB5F95";
name = "5 Jan 22 at 13:46";
width = 592;
},
{
associatedMasterId = "02396921-8257-42A3-8ED5-3052446F9CE3";
components = (
{
name = dotaccentcomb.case;
transform = "{1, 0, 0, 1, 126, 17}";
},
{
name = B;
}
);
layerId = "E343979A-A1A7-4F78-84ED-CDAD49F911C1";
name = "5 Jan 22 at 13:46";
width = 592;
},
{
components = (
{
name = B;
},
{
name = dotaccentcomb;
transform = "{1, 0, 0, 1, 259, 228}";
}
);
layerId = "B85C165C-5F8F-4735-B7B6-8DF6357F77F6";
width = 560;
},
{
background = {
paths = (
{
closed = 1;
nodes = (
"333 728 OFFCURVE",
"376 771 OFFCURVE",
"376 833 OFFCURVE",
"333 876 OFFCURVE",
"271 876 OFFCURVE",
"228 833 OFFCURVE",
"228 771 OFFCURVE",
"271 728 OFFCURVE"
);
},
{
closed = 1;
nodes = (
"428 55 OFFCURVE",
"325 55 QCURVE SMOOTH",
"260 55 OFFCURVE",
"250 62 QCURVE SMOOTH",
"243 67 OFFCURVE",
"243 76 QCURVE SMOOTH",
"243 301 LINE SMOOTH",
"243 306 OFFCURVE",
"254 310 QCURVE",
"272 315 OFFCURVE",
"305 315 QCURVE SMOOTH",
"428 315 OFFCURVE",
"428 176 QCURVE SMOOTH"
);
},
{
closed = 1;
nodes = (
"103 78 OFFCURVE",
"97 55 QCURVE",
"94 47 OFFCURVE",
"43 33 OFFCURVE",
"31 33 QCURVE SMOOTH",
"27 33 OFFCURVE",
"27 13 QCURVE SMOOTH",
"27 0 OFFCURVE",
"31 -4 QCURVE",
"52 -2 LINE",
"74 -1 OFFCURVE",
"147 2 OFFCURVE",
"177 2 QCURVE SMOOTH",
"324 0 LINE SMOOTH",
"438 -2 OFFCURVE",
"578 101 OFFCURVE",
"578 187 QCURVE SMOOTH",
"578 255 OFFCURVE",
"502 342 OFFCURVE",
"467 348 QCURVE",
"464 351 OFFCURVE",
"472 354 QCURVE SMOOTH",
"495 363 OFFCURVE",
"555 431 OFFCURVE",
"555 483 QCURVE SMOOTH",
"555 530 OFFCURVE",
"511 602 OFFCURVE",
"440 642 OFFCURVE",
"364 661 OFFCURVE",
"327 661 QCURVE SMOOTH",
"209 659 OFFCURVE",
"176 659 QCURVE SMOOTH",
"109 659 OFFCURVE",
"29 664 QCURVE",
"26 661 OFFCURVE",
"26 645 QCURVE SMOOTH",
"26 627 OFFCURVE",
"30 627 QCURVE SMOOTH",
"41 627 OFFCURVE",
"94 607 OFFCURVE",
"97 599 QCURVE",
"103 576 OFFCURVE",
"103 521 QCURVE SMOOTH",
"103 143 LINE SMOOTH"
);
},
{
closed = 1;
nodes = (
"334 371 OFFCURVE",
"295 371 QCURVE SMOOTH",
"243 371 OFFCURVE",
"243 385 QCURVE SMOOTH",
"243 499 LINE",
"243 590 LINE SMOOTH",
"243 600 OFFCURVE",
"252 602 QCURVE",
"266 606 OFFCURVE",
"310 606 QCURVE SMOOTH",
"402 606 OFFCURVE",
"402 482 QCURVE SMOOTH",
"402 447 OFFCURVE",
"383 402 OFFCURVE",
"367 388 OFFCURVE",
"352 380 QCURVE SMOOTH"
);
}
);
};
components = (
{
name = B;
},
{
name = dotaccentcomb;
transform = "{1, 0, 0, 1, 240, 228}";
}
);
layerId = "C43979EA-9F64-4F78-971C-933464F87A97";
width = 561;
}
);
leftKerningGroup = H;
note = uni1E02;
rightKerningGroup = B;
unicode = 1E02;
},
{
color = 10;
glyphname = Bdotbelow;
lastChange = "2022-03-10 16:51:15 +0000";
layers = (
{
background = {
anchors = (
{
name = bottom;
position = "{296, 0}";
},
{
name = center;
position = "{296, 328}";
},
{
name = top;
position = "{296, 656}";
}
);
paths = (
{
closed = 1;
nodes = (
"277 -180 OFFCURVE",
"332 -159 OFFCURVE",
"332 -114 CURVE SMOOTH",
"332 -86 OFFCURVE",
"310 -64 OFFCURVE",
"282 -64 CURVE SMOOTH",
"237 -64 OFFCURVE",
"216 -119 OFFCURVE",
"247 -150 CURVE SMOOTH"
);
},
{
closed = 1;
nodes = (
"161 0 LINE",
"298 0 LINE SMOOTH",
"451 0 OFFCURVE",
"552 72 OFFCURVE",
"552 187 CURVE SMOOTH",
"552 276 OFFCURVE",
"457 351 OFFCURVE",
"405 360 CURVE",
"403 362 OFFCURVE",
"405 364 OFFCURVE",
"410 366 CURVE SMOOTH",
"429 373 OFFCURVE",
"455 385 OFFCURVE",
"486 426 CURVE SMOOTH",
"501 447 OFFCURVE",
"509 469 OFFCURVE",
"509 493 CURVE SMOOTH",
"509 589 OFFCURVE",
"433 639 OFFCURVE",
"353 653 CURVE SMOOTH",
"335 656 OFFCURVE",
"317 657 OFFCURVE",
"300 657 CURVE SMOOTH",
"283 657 OFFCURVE",
"264 657 OFFCURVE",
"242.5 656.5 CURVE SMOOTH",
"159 656 LINE SMOOTH",
"114 656 OFFCURVE",
"75 657 OFFCURVE",
"40 658 CURVE",
"37 655 OFFCURVE",
"36 650 OFFCURVE",
"36 641 CURVE SMOOTH",
"36 633 OFFCURVE",
"37 629 OFFCURVE",
"40 629 CURVE SMOOTH",
"57 629 OFFCURVE",
"105 618 OFFCURVE",
"109 607 CURVE SMOOTH",
"114 589 OFFCURVE",
"116 560 OFFCURVE",
"116 521 CURVE SMOOTH",
"116 143 LINE SMOOTH",
"116 88 OFFCURVE",
"114 57 OFFCURVE",
"109 49 CURVE SMOOTH",
"102 37 OFFCURVE",
"57 26 OFFCURVE",
"40 26 CURVE SMOOTH",
"38 26 OFFCURVE",
"37 22 OFFCURVE",
"37 13 CURVE SMOOTH",
"37 4 OFFCURVE",
"38 -1 OFFCURVE",
"40 -3 CURVE"
);
},
{
closed = 1;
nodes = (
"247 45 OFFCURVE",
"229 50 OFFCURVE",
"219 59 CURVE SMOOTH",
"208 68 OFFCURVE",
"203 97 OFFCURVE",
"203 148 CURVE SMOOTH",
"203 294 LINE SMOOTH",
"203 308 OFFCURVE",
"204 319 OFFCURVE",
"207 327 CURVE",
"240 330 OFFCURVE",
"264 331 OFFCURVE",
"279 331 CURVE SMOOTH",
"402 331 OFFCURVE",
"457 261 OFFCURVE",
"457 176 CURVE SMOOTH",
"457 119 OFFCURVE",
"426 80 OFFCURVE",
"381 65 CURVE SMOOTH",
"336 49 OFFCURVE",
"306 45 OFFCURVE",
"273 45 CURVE SMOOTH"
);
},
{
closed = 1;
nodes = (
"225 373 OFFCURVE",
"203 375 OFFCURVE",
"203 380 CURVE SMOOTH",
"203 499 LINE",
"207 600 LINE SMOOTH",
"207 605 OFFCURVE",
"209 608 OFFCURVE",
"213 609 CURVE SMOOTH",
"230 614 OFFCURVE",
"253 616 OFFCURVE",
"284 616 CURVE SMOOTH",
"375 616 OFFCURVE",
"421 562 OFFCURVE",
"421 470 CURVE SMOOTH",
"421 415 OFFCURVE",
"380 381 OFFCURVE",
"325 376 CURVE SMOOTH",
"309 374 OFFCURVE",
"290 373 OFFCURVE",
"269 373 CURVE SMOOTH"
);
}
);
};
components = (
{
name = B;
},
{
name = dotbelowcomb;
transform = "{1, 0, 0, 1, 130, 0}";
}
);
layerId = "02396921-8257-42A3-8ED5-3052446F9CE3";
width = 551;
},
{
associatedMasterId = "02396921-8257-42A3-8ED5-3052446F9CE3";
components = (
{
name = dotbelowcomb.case;
transform = "{1, 0, 0, 1, 138, -28}";
},
{
name = B;
}
);
layerId = "7BA8DB3E-8918-4ED1-B331-709F7EE37C63";
name = "5 Jan 22 at 13:46";
width = 592;
},
{
associatedMasterId = "02396921-8257-42A3-8ED5-3052446F9CE3";
components = (
{
name = dotbelowcomb.case;
transform = "{1, 0, 0, 1, 138, -28}";
},
{
name = B;
}
);
layerId = "CD0C2EE5-6B78-406E-AFB0-92465375EC39";
name = "5 Jan 22 at 13:46";
width = 592;
},
{
components = (
{
name = B;
},
{
name = dotbelowcomb;
transform = "{1, 0, 0, 1, 97, 0}";
}
);
layerId = "B85C165C-5F8F-4735-B7B6-8DF6357F77F6";
width = 560;
},
{
background = {
paths = (
{
closed = 1;
nodes = (
"62 -213 OFFCURVE",
"105 -170 OFFCURVE",
"105 -108 OFFCURVE",
"62 -65 OFFCURVE",
"0 -65 OFFCURVE",
"-43 -108 OFFCURVE",
"-43 -170 OFFCURVE",
"0 -213 OFFCURVE"
);
},
{
closed = 1;
nodes = (
"428 55 OFFCURVE",
"325 55 QCURVE SMOOTH",
"260 55 OFFCURVE",
"250 62 QCURVE SMOOTH",
"243 67 OFFCURVE",
"243 76 QCURVE SMOOTH",
"243 301 LINE SMOOTH",
"243 306 OFFCURVE",
"254 310 QCURVE",
"272 315 OFFCURVE",
"305 315 QCURVE SMOOTH",
"428 315 OFFCURVE",
"428 176 QCURVE SMOOTH"
);
},
{
closed = 1;
nodes = (
"103 78 OFFCURVE",
"97 55 QCURVE",
"94 47 OFFCURVE",
"43 33 OFFCURVE",
"31 33 QCURVE SMOOTH",
"27 33 OFFCURVE",
"27 13 QCURVE SMOOTH",
"27 0 OFFCURVE",
"31 -4 QCURVE",
"52 -2 LINE",
"74 -1 OFFCURVE",
"147 2 OFFCURVE",
"177 2 QCURVE SMOOTH",
"324 0 LINE SMOOTH",
"438 -2 OFFCURVE",
"578 101 OFFCURVE",
"578 187 QCURVE SMOOTH",
"578 255 OFFCURVE",
"502 342 OFFCURVE",
"467 348 QCURVE",
"464 351 OFFCURVE",
"472 354 QCURVE SMOOTH",
"495 363 OFFCURVE",
"555 431 OFFCURVE",
"555 483 QCURVE SMOOTH",
"555 530 OFFCURVE",
"511 602 OFFCURVE",
"440 642 OFFCURVE",
"364 661 OFFCURVE",
"327 661 QCURVE SMOOTH",
"209 659 OFFCURVE",
"176 659 QCURVE SMOOTH",
"109 659 OFFCURVE",
"29 664 QCURVE",
"26 661 OFFCURVE",
"26 645 QCURVE SMOOTH",
"26 627 OFFCURVE",
"30 627 QCURVE SMOOTH",
"41 627 OFFCURVE",
"94 607 OFFCURVE",
"97 599 QCURVE",
"103 576 OFFCURVE",
"103 521 QCURVE SMOOTH",
"103 143 LINE SMOOTH"
);
},
{
closed = 1;
nodes = (
"334 371 OFFCURVE",
"295 371 QCURVE SMOOTH",
"243 371 OFFCURVE",
"243 385 QCURVE SMOOTH",
"243 499 LINE",
"243 590 LINE SMOOTH",
"243 600 OFFCURVE",
"252 602 QCURVE",
"266 606 OFFCURVE",
"310 606 QCURVE SMOOTH",
"402 606 OFFCURVE",
"402 482 QCURVE SMOOTH",
"402 447 OFFCURVE",
"383 402 OFFCURVE",
"367 388 OFFCURVE",
"352 380 QCURVE SMOOTH"
);
}
);
};
components = (
{
name = B;
},
{
name = dotbelowcomb;
transform = "{1, 0, 0, 1, 124, 0}";
}
);
layerId = "C43979EA-9F64-4F78-971C-933464F87A97";
width = 561;
}
);
leftKerningGroup = H;
note = uni1E04;
rightKerningGroup = B;
unicode = 1E04;
},
{
color = 10;
glyphname = Bmacronbelow;
lastChange = "2022-03-11 08:50:48 +0000";
layers = (
{
background = {
anchors = (
{
name = bottom;
position = "{296, 0}";
},
{
name = center;
position = "{296, 328}";
},
{
name = top;
position = "{296, 656}";
}
);
paths = (
{
closed = 1;
nodes = (
"390 -110 LINE",
"393 -107 LINE SMOOTH",
"394 -106 OFFCURVE",
"394 -105 OFFCURVE",
"395 -103 CURVE",
"399 -88 OFFCURVE",
"401 -78 OFFCURVE",
"401 -71 CURVE SMOOTH",
"401 -66 OFFCURVE",
"399 -64 OFFCURVE",
"396 -64 CURVE SMOOTH",
"188 -64 LINE SMOOTH",
"180 -64 OFFCURVE",
"176 -76 OFFCURVE",
"176 -101 CURVE SMOOTH",
"176 -104 OFFCURVE",
"177 -106 OFFCURVE",
"178 -108 CURVE",
"182 -110 LINE"
);
},
{
closed = 1;
nodes = (
"161 0 LINE",
"298 0 LINE SMOOTH",
"451 0 OFFCURVE",
"552 72 OFFCURVE",
"552 187 CURVE SMOOTH",
"552 276 OFFCURVE",
"457 351 OFFCURVE",
"405 360 CURVE",
"403 362 OFFCURVE",
"405 364 OFFCURVE",
"410 366 CURVE SMOOTH",
"429 373 OFFCURVE",
"455 385 OFFCURVE",
"486 426 CURVE SMOOTH",
"501 447 OFFCURVE",
"509 469 OFFCURVE",
"509 493 CURVE SMOOTH",
"509 589 OFFCURVE",
"433 639 OFFCURVE",
"353 653 CURVE SMOOTH",
"335 656 OFFCURVE",
"317 657 OFFCURVE",
"300 657 CURVE SMOOTH",
"283 657 OFFCURVE",
"264 657 OFFCURVE",
"242.5 656.5 CURVE SMOOTH",
"159 656 LINE SMOOTH",
"114 656 OFFCURVE",
"75 657 OFFCURVE",
"40 658 CURVE",
"37 655 OFFCURVE",
"36 650 OFFCURVE",
"36 641 CURVE SMOOTH",
"36 633 OFFCURVE",
"37 629 OFFCURVE",
"40 629 CURVE SMOOTH",
"57 629 OFFCURVE",
"105 618 OFFCURVE",
"109 607 CURVE SMOOTH",
"114 589 OFFCURVE",
"116 560 OFFCURVE",
"116 521 CURVE SMOOTH",
"116 143 LINE SMOOTH",
"116 88 OFFCURVE",
"114 57 OFFCURVE",
"109 49 CURVE SMOOTH",
"102 37 OFFCURVE",
"57 26 OFFCURVE",
"40 26 CURVE SMOOTH",
"38 26 OFFCURVE",
"37 22 OFFCURVE",
"37 13 CURVE SMOOTH",
"37 4 OFFCURVE",
"38 -1 OFFCURVE",
"40 -3 CURVE"
);
},
{
closed = 1;
nodes = (
"247 45 OFFCURVE",
"229 50 OFFCURVE",
"219 59 CURVE SMOOTH",
"208 68 OFFCURVE",
"203 97 OFFCURVE",
"203 148 CURVE SMOOTH",
"203 294 LINE SMOOTH",
"203 308 OFFCURVE",
"204 319 OFFCURVE",
"207 327 CURVE",
"240 330 OFFCURVE",
"264 331 OFFCURVE",
"279 331 CURVE SMOOTH",
"402 331 OFFCURVE",
"457 261 OFFCURVE",
"457 176 CURVE SMOOTH",
"457 119 OFFCURVE",
"426 80 OFFCURVE",
"381 65 CURVE SMOOTH",
"336 49 OFFCURVE",
"306 45 OFFCURVE",
"273 45 CURVE SMOOTH"
);
},
{
closed = 1;
nodes = (
"225 373 OFFCURVE",
"203 375 OFFCURVE",
"203 380 CURVE SMOOTH",
"203 499 LINE",
"207 600 LINE SMOOTH",
"207 605 OFFCURVE",
"209 608 OFFCURVE",
"213 609 CURVE SMOOTH",
"230 614 OFFCURVE",
"253 616 OFFCURVE",
"284 616 CURVE SMOOTH",
"375 616 OFFCURVE",
"421 562 OFFCURVE",
"421 470 CURVE SMOOTH",
"421 415 OFFCURVE",
"380 381 OFFCURVE",
"325 376 CURVE SMOOTH",
"309 374 OFFCURVE",
"290 373 OFFCURVE",
"269 373 CURVE SMOOTH"
);
}
);
};
components = (
{
alignment = -1;
name = B;
},
{
alignment = -1;
name = macroncomb.case;
transform = "{1, 0, 0, 1, 87, -612}";
}
);
layerId = "02396921-8257-42A3-8ED5-3052446F9CE3";
width = 551;
},
{
associatedMasterId = "02396921-8257-42A3-8ED5-3052446F9CE3";
components = (
{
alignment = -1;
name = macron;
transform = "{1, 0, 0, 1, -364, -660}";
},
{
alignment = -1;
name = B;
}
);
layerId = "3E864AF6-1F62-47C7-BCE6-8E120DDC7BAB";
name = "5 Jan 22 at 13:46";
width = 592;
},
{
associatedMasterId = "02396921-8257-42A3-8ED5-3052446F9CE3";
components = (
{
alignment = -1;
name = macron;
transform = "{1, 0, 0, 1, -364, -660}";
},
{
alignment = -1;
name = B;
}
);
layerId = "43731FFA-B568-4DD5-A46A-B8E4BD328AFF";
name = "5 Jan 22 at 13:46";
width = 592;
},
{
components = (
{
alignment = -1;
name = B;
},
{
alignment = -1;
name = macroncomb.case;
transform = "{1, 0, 0, 1, 13, -634}";
}
);
layerId = "B85C165C-5F8F-4735-B7B6-8DF6357F77F6";
width = 560;
},
{
background = {
paths = (
{
closed = 1;
nodes = (
"179 -129 OFFCURVE",
"180 -132 QCURVE",
"185 -134 OFFCURVE",
"185 -134 QCURVE",
"434 -134 LINE",
"437 -130 LINE SMOOTH",
"440 -126 OFFCURVE",
"447 -97 OFFCURVE",
"448 -75 QCURVE",
"448 -65 OFFCURVE",
"442 -65 QCURVE SMOOTH",
"441 -65 LINE",
"195 -65 LINE",
"194 -65 LINE SMOOTH",
"192 -65 OFFCURVE",
"186 -73 OFFCURVE",
"180 -101 OFFCURVE",
"179 -123 QCURVE"
);
},
{
closed = 1;
nodes = (
"428 55 OFFCURVE",
"325 55 QCURVE SMOOTH",
"260 55 OFFCURVE",
"250 62 QCURVE SMOOTH",
"243 67 OFFCURVE",
"243 76 QCURVE SMOOTH",
"243 301 LINE SMOOTH",
"243 306 OFFCURVE",
"254 310 QCURVE",
"272 315 OFFCURVE",
"305 315 QCURVE SMOOTH",
"428 315 OFFCURVE",
"428 176 QCURVE SMOOTH"
);
},
{
closed = 1;
nodes = (
"103 78 OFFCURVE",
"97 55 QCURVE",
"94 47 OFFCURVE",
"43 33 OFFCURVE",
"31 33 QCURVE SMOOTH",
"27 33 OFFCURVE",
"27 13 QCURVE SMOOTH",
"27 0 OFFCURVE",
"31 -4 QCURVE",
"52 -2 LINE",
"74 -1 OFFCURVE",
"147 2 OFFCURVE",
"177 2 QCURVE SMOOTH",
"324 0 LINE SMOOTH",
"438 -2 OFFCURVE",
"578 101 OFFCURVE",
"578 187 QCURVE SMOOTH",
"578 255 OFFCURVE",
"502 342 OFFCURVE",
"467 348 QCURVE",
"464 351 OFFCURVE",
"472 354 QCURVE SMOOTH",
"495 363 OFFCURVE",
"555 431 OFFCURVE",
"555 483 QCURVE SMOOTH",
"555 530 OFFCURVE",
"511 602 OFFCURVE",
"440 642 OFFCURVE",
"364 661 OFFCURVE",
"327 661 QCURVE SMOOTH",
"209 659 OFFCURVE",
"176 659 QCURVE SMOOTH",
"109 659 OFFCURVE",
"29 664 QCURVE",
"26 661 OFFCURVE",
"26 645 QCURVE SMOOTH",
"26 627 OFFCURVE",
"30 627 QCURVE SMOOTH",
"41 627 OFFCURVE",
"94 607 OFFCURVE",
"97 599 QCURVE",
"103 576 OFFCURVE",
"103 521 QCURVE SMOOTH",
"103 143 LINE SMOOTH"
);
},
{
closed = 1;
nodes = (
"334 371 OFFCURVE",
"295 371 QCURVE SMOOTH",
"243 371 OFFCURVE",
"243 385 QCURVE SMOOTH",
"243 499 LINE",
"243 590 LINE SMOOTH",
"243 600 OFFCURVE",
"252 602 QCURVE",
"266 606 OFFCURVE",
"310 606 QCURVE SMOOTH",
"402 606 OFFCURVE",
"402 482 QCURVE SMOOTH",
"402 447 OFFCURVE",
"383 402 OFFCURVE",
"367 388 OFFCURVE",
"352 380 QCURVE SMOOTH"
);
}
);
};
components = (
{
alignment = -1;
name = B;
},
{
alignment = -1;
name = macroncomb.case;
transform = "{1, 0, 0, 1, 8, -648}";
}
);
layerId = "C43979EA-9F64-4F78-971C-933464F87A97";
width = 561;
}
);
leftKerningGroup = H;
leftMetricsKey = B;
note = uni1E06;
rightKerningGroup = B;
rightMetricsKey = B;
unicode = 1E06;
},
{
color = 6;
glyphname = C;
lastChange = "2022-03-11 09:00:25 +0000";
layers = (
{
anchors = (
{
name = bottom;
position = "{268, 0}";
},
{
name = top;
position = "{444, 658}";
}
);
background = {
paths = (
{
closed = 1;
nodes = (
"217 592 OFFCURVE",
"119 475 OFFCURVE",
"60 333 OFFCURVE",
"60 267 QCURVE SMOOTH",
"60 157 OFFCURVE",
"202 -6 OFFCURVE",
"321 -6 QCURVE SMOOTH",
"385 -6 OFFCURVE",
"511 20 OFFCURVE",
"526 37 QCURVE SMOOTH",
"531 42 OFFCURVE",
"576 128 QCURVE",
"577 132 OFFCURVE",
"559 153 OFFCURVE",
"556 153 QCURVE SMOOTH",
"555 153 OFFCURVE",
"538 127 OFFCURVE",
"501 85 OFFCURVE",
"476 70 QCURVE SMOOTH",
"424 37 OFFCURVE",
"350 37 QCURVE SMOOTH",
"255 37 OFFCURVE",
"151 163 OFFCURVE",
"151 259 QCURVE SMOOTH",
"151 405 OFFCURVE",
"329 625 OFFCURVE",
"432 625 QCURVE SMOOTH",
"478 625 OFFCURVE",
"544 601 OFFCURVE",
"575 571 OFFCURVE",
"593 525 OFFCURVE",
"595 501 OFFCURVE",
"595 486 QCURVE",
"598 483 OFFCURVE",
"606 483 QCURVE SMOOTH",
"627 483 OFFCURVE",
"630 498 QCURVE SMOOTH",
"632 508 OFFCURVE",
"650 622 QCURVE",
"505 667 OFFCURVE",
"437 667 QCURVE SMOOTH",
"360 667 OFFCURVE"
);
}
);
};
layerId = "02396921-8257-42A3-8ED5-3052446F9CE3";
paths = (
{
closed = 1;
nodes = (
"406 -6 OFFCURVE",
"506 14 OFFCURVE",
"526 37 CURVE SMOOTH",
"529 40 OFFCURVE",
"546 71 OFFCURVE",
"576 128 CURVE",
"577 133 OFFCURVE",
"560 153 OFFCURVE",
"556 153 CURVE SMOOTH",
"549 153 OFFCURVE",
"524 99 OFFCURVE",
"476 70 CURVE SMOOTH",
"441 48 OFFCURVE",
"399 37 OFFCURVE",
"350 37 CURVE SMOOTH",
"223 37 OFFCURVE",
"151 131 OFFCURVE",
"151 259 CURVE SMOOTH",
"151 454 OFFCURVE",
"295 625 OFFCURVE",
"432 625 CURVE SMOOTH",
"515 625 OFFCURVE",
"565 597 OFFCURVE",
"584 548 CURVE SMOOTH",
"596 517 OFFCURVE",
"595 506 OFFCURVE",
"595 486 CURVE",
"597 484 OFFCURVE",
"601 483 OFFCURVE",
"606 483 CURVE SMOOTH",
"620 483 OFFCURVE",
"628 488 OFFCURVE",
"630 498 CURVE SMOOTH",
"650 622 LINE",
"553 652 OFFCURVE",
"482 667 OFFCURVE",
"437 667 CURVE SMOOTH",
"334 667 OFFCURVE",
"233 612 OFFCURVE",
"168 534 CURVE SMOOTH",
"103 456 OFFCURVE",
"60 355 OFFCURVE",
"60 267 CURVE SMOOTH",
"60 120 OFFCURVE",
"162 -6 OFFCURVE",
"321 -6 CURVE SMOOTH"
);
}
);
width = 580;
},
{
anchors = (
{
name = bottom;
position = "{275, 0}";
},
{
name = top;
position = "{437, 658}";
}
);
background = {
paths = (
{
closed = 1;
nodes = (
"309 667 OFFCURVE",
"132 550 OFFCURVE",
"25 362 OFFCURVE",
"25 263 QCURVE SMOOTH",
"25 151 OFFCURVE",
"174 -6 OFFCURVE",
"299 -6 QCURVE SMOOTH",
"365 -6 OFFCURVE",
"483 19 OFFCURVE",
"505 40 QCURVE SMOOTH",
"511 46 OFFCURVE",
"529 89 OFFCURVE",
"548 140 OFFCURVE",
"549 142 QCURVE",
"548 148 OFFCURVE",
"529 160 OFFCURVE",
"525 160 QCURVE SMOOTH",
"524 160 OFFCURVE",
"508 132 OFFCURVE",
"474 90 OFFCURVE",
"453 76 QCURVE SMOOTH",
"400 42 OFFCURVE",
"317 42 QCURVE SMOOTH",
"232 42 OFFCURVE",
"143 160 OFFCURVE",
"143 253 QCURVE SMOOTH",
"143 400 OFFCURVE",
"298 618 OFFCURVE",
"398 618 QCURVE SMOOTH",
"449 618 OFFCURVE",
"519 587 OFFCURVE",
"549 537 OFFCURVE",
"559 500 OFFCURVE",
"560 482 QCURVE",
"564 479 OFFCURVE",
"573 479 QCURVE SMOOTH",
"595 479 OFFCURVE",
"598 494 QCURVE",
"600 502 OFFCURVE",
"614 624 OFFCURVE",
"614 630 QCURVE",
"489 667 OFFCURVE",
"404 667 QCURVE SMOOTH"
);
}
);
};
layerId = "B85C165C-5F8F-4735-B7B6-8DF6357F77F6";
paths = (
{
closed = 1;
nodes = (
"387 -6 OFFCURVE",
"476 12 OFFCURVE",
"505 40 CURVE SMOOTH",
"517 52 OFFCURVE",
"528 100 OFFCURVE",
"549 142 CURVE",
"548 150 OFFCURVE",
"530 160 OFFCURVE",
"525 160 CURVE SMOOTH",
"510 160 OFFCURVE",
"492 102 OFFCURVE",
"453 76 CURVE SMOOTH",
"418 53 OFFCURVE",
"372 42 OFFCURVE",
"317 42 CURVE SMOOTH",
"204 42 OFFCURVE",
"143 129 OFFCURVE",
"143 253 CURVE SMOOTH",
"143 449 OFFCURVE",
"265 618 OFFCURVE",
"398 618 CURVE SMOOTH",
"466 618 OFFCURVE",
"514 595 OFFCURVE",
"534 562 CURVE SMOOTH",
"554 529 OFFCURVE",
"559 506 OFFCURVE",
"560 482 CURVE",
"563 480 OFFCURVE",
"567 479 OFFCURVE",
"573 479 CURVE SMOOTH",
"588 479 OFFCURVE",
"596 484 OFFCURVE",
"598 494 CURVE SMOOTH",
"601 505 OFFCURVE",
"614 622 OFFCURVE",
"614 630 CURVE",
"531 655 OFFCURVE",
"461 667 OFFCURVE",
"404 667 CURVE SMOOTH",
"277 667 OFFCURVE",
"150 581 OFFCURVE",
"79 456 CURVE SMOOTH",
"43 393 OFFCURVE",
"25 329 OFFCURVE",
"25 263 CURVE SMOOTH",
"25 114 OFFCURVE",
"132 -6 OFFCURVE",
"299 -6 CURVE SMOOTH"
);
}
);
width = 610;
},
{
anchors = (
{
name = bottom;
position = "{294, 0}";
},
{
name = top;
position = "{394, 658}";
}
);
background = {
paths = (
{
closed = 1;
nodes = (
"303 667 OFFCURVE",
"207.167 619.833 OFFCURVE",
"134.5 548.5 CURVE SMOOTH",
"61.833 477.167 OFFCURVE",
"11 368.333 OFFCURVE",
"11 259 CURVE SMOOTH",
"11 105.667 OFFCURVE",
"123.333 -7 OFFCURVE",
"298 -7 CURVE SMOOTH",
"397.333 -7 OFFCURVE",
"466 10 OFFCURVE",
"504 44 CURVE SMOOTH",
"514.667 53.333 OFFCURVE",
"540 136.333 OFFCURVE",
"544 155 CURVE",
"542 163.667 OFFCURVE",
"532.333 168 OFFCURVE",
"515 168 CURVE SMOOTH",
"513.411 168 OFFCURVE",
"466.133 92.976 OFFCURVE",
"452 83 CURVE SMOOTH",
"421.333 61.667 OFFCURVE",
"361 47 OFFCURVE",
"305 47 CURVE SMOOTH",
"206.333 47 OFFCURVE",
"156 127 OFFCURVE",
"156 247 CURVE SMOOTH",
"156 376.333 OFFCURVE",
"197.333 494.333 OFFCURVE",
"268 561 CURVE SMOOTH",
"303.333 594.333 OFFCURVE",
"342.333 611 OFFCURVE",
"385 611 CURVE SMOOTH",
"434.333 611 OFFCURVE",
"475.333 594.833 OFFCURVE",
"498 575.5 CURVE SMOOTH",
"520.667 556.167 OFFCURVE",
"534 536.667 OFFCURVE",
"546 478 CURVE",
"554 476 OFFCURVE",
"558.667 475 OFFCURVE",
"560 475 CURVE SMOOTH",
"572 475 OFFCURVE",
"585.333 480.667 OFFCURVE",
"588 490 CURVE",
"589.333 499.333 OFFCURVE",
"598 622 OFFCURVE",
"598 638 CURVE",
"528 657.333 OFFCURVE",
"459 667 OFFCURVE",
"391 667 CURVE SMOOTH"
);
}
);
};
layerId = "C43979EA-9F64-4F78-971C-933464F87A97";
paths = (
{
closed = 1;
nodes = (
"397 -7 OFFCURVE",
"466 10 OFFCURVE",
"504 44 CURVE SMOOTH",
"515 53 OFFCURVE",
"540 136 OFFCURVE",
"544 155 CURVE",
"542 164 OFFCURVE",
"532 168 OFFCURVE",
"515 168 CURVE SMOOTH",
"513 168 OFFCURVE",
"466 93 OFFCURVE",
"452 83 CURVE SMOOTH",
"421 62 OFFCURVE",
"361 47 OFFCURVE",
"305 47 CURVE SMOOTH",
"206 47 OFFCURVE",
"156 127 OFFCURVE",
"156 247 CURVE SMOOTH",
"156 408 OFFCURVE",
"234 611 OFFCURVE",
"385 611 CURVE SMOOTH",
"479 611 OFFCURVE",
"534 565 OFFCURVE",
"546 478 CURVE",
"560 475 LINE",
"572 475 OFFCURVE",
"585 481 OFFCURVE",
"588 490 CURVE",
"589 499 OFFCURVE",
"598 622 OFFCURVE",
"598 638 CURVE",
"528 657 OFFCURVE",
"459 667 OFFCURVE",
"391 667 CURVE SMOOTH",
"203 667 OFFCURVE",
"11 475 OFFCURVE",
"11 259 CURVE SMOOTH",
"11 106 OFFCURVE",
"123 -7 OFFCURVE",
"298 -7 CURVE SMOOTH"
);
}
);
width = 587;
}
);
leftKerningGroup = O;
note = C;
rightKerningGroup = C;
unicode = 0043;
},
{
color = 10;
glyphname = Cacute;
lastChange = "2022-03-11 08:50:32 +0000";
layers = (
{
background = {
paths = (
{
closed = 1;
nodes = (
"608 768 OFFCURVE",
"608 785 QCURVE SMOOTH",
"608 794 OFFCURVE",
"577 809 OFFCURVE",
"550 809 QCURVE SMOOTH",
"539 809 OFFCURVE",
"533 807 QCURVE",
"510 792 OFFCURVE",
"434 727 OFFCURVE",
"434 721 QCURVE SMOOTH",
"434 711 OFFCURVE",
"447 711 QCURVE SMOOTH",
"466 711 OFFCURVE"
);
},
{
closed = 1;
nodes = (
"217 592 OFFCURVE",
"119 475 OFFCURVE",
"60 333 OFFCURVE",
"60 267 QCURVE SMOOTH",
"60 157 OFFCURVE",
"202 -6 OFFCURVE",
"321 -6 QCURVE SMOOTH",
"385 -6 OFFCURVE",
"511 20 OFFCURVE",
"526 37 QCURVE SMOOTH",
"531 42 OFFCURVE",
"576 128 QCURVE",
"577 132 OFFCURVE",
"559 153 OFFCURVE",
"556 153 QCURVE SMOOTH",
"555 153 OFFCURVE",
"538 127 OFFCURVE",
"501 85 OFFCURVE",
"476 70 QCURVE SMOOTH",
"424 37 OFFCURVE",
"350 37 QCURVE SMOOTH",
"255 37 OFFCURVE",
"151 163 OFFCURVE",
"151 259 QCURVE SMOOTH",
"151 405 OFFCURVE",
"329 625 OFFCURVE",
"432 625 QCURVE SMOOTH",
"478 625 OFFCURVE",
"544 601 OFFCURVE",
"575 571 OFFCURVE",
"593 525 OFFCURVE",
"595 501 OFFCURVE",
"595 486 QCURVE",
"598 483 OFFCURVE",
"606 483 QCURVE SMOOTH",
"627 483 OFFCURVE",
"630 498 QCURVE SMOOTH",
"632 508 OFFCURVE",
"650 622 QCURVE",
"505 667 OFFCURVE",
"437 667 QCURVE SMOOTH",
"360 667 OFFCURVE"
);
}
);
};
components = (
{
name = C;
},
{
name = acutecomb.case;
transform = "{1, 0, 0, 1, 357, 228}";
}
);
layerId = "02396921-8257-42A3-8ED5-3052446F9CE3";
width = 580;
},
{
background = {
paths = (
{
closed = 1;
nodes = (
"387 715 OFFCURVE",
"548 774 OFFCURVE",
"548 792 QCURVE SMOOTH",
"548 807 OFFCURVE",
"509 823 OFFCURVE",
"483 823 QCURVE SMOOTH",
"469 823 OFFCURVE",
"459 818 QCURVE",
"432 802 OFFCURVE",
"354 736 OFFCURVE",
"354 730 QCURVE SMOOTH",
"354 725 OFFCURVE",
"363 715 OFFCURVE",
"367 715 QCURVE SMOOTH"
);
},
{
closed = 1;
nodes = (
"309 667 OFFCURVE",
"132 550 OFFCURVE",
"25 362 OFFCURVE",
"25 263 QCURVE SMOOTH",
"25 151 OFFCURVE",
"174 -6 OFFCURVE",
"299 -6 QCURVE SMOOTH",
"365 -6 OFFCURVE",
"483 19 OFFCURVE",
"505 40 QCURVE SMOOTH",
"511 46 OFFCURVE",
"529 89 OFFCURVE",
"548 140 OFFCURVE",
"549 142 QCURVE",
"548 148 OFFCURVE",
"529 160 OFFCURVE",
"525 160 QCURVE SMOOTH",
"524 160 OFFCURVE",
"508 132 OFFCURVE",
"474 90 OFFCURVE",
"453 76 QCURVE SMOOTH",
"400 42 OFFCURVE",
"317 42 QCURVE SMOOTH",
"232 42 OFFCURVE",
"143 160 OFFCURVE",
"143 253 QCURVE SMOOTH",
"143 400 OFFCURVE",
"298 618 OFFCURVE",
"398 618 QCURVE SMOOTH",
"449 618 OFFCURVE",
"519 587 OFFCURVE",
"549 537 OFFCURVE",
"559 500 OFFCURVE",
"560 482 QCURVE",
"564 479 OFFCURVE",
"573 479 QCURVE SMOOTH",
"595 479 OFFCURVE",
"598 494 QCURVE",
"600 502 OFFCURVE",
"614 624 OFFCURVE",
"614 630 QCURVE",
"489 667 OFFCURVE",
"404 667 QCURVE SMOOTH"
);
}
);
};
components = (
{
name = C;
},
{
name = acutecomb.case;
transform = "{1, 0, 0, 1, 289, 228}";
}
);
layerId = "B85C165C-5F8F-4735-B7B6-8DF6357F77F6";
width = 610;
},
{
background = {
paths = (
{
closed = 1;
nodes = (
"412 715 OFFCURVE",
"584 771 OFFCURVE",
"584 795 CURVE SMOOTH",
"584 822 OFFCURVE",
"546 833 OFFCURVE",
"514 833 CURVE SMOOTH",
"502 833 OFFCURVE",
"491 830 OFFCURVE",
"482 825 CURVE SMOOTH",
"460 813 OFFCURVE",
"371 745 OFFCURVE",
"371 734 CURVE SMOOTH",
"371 727 OFFCURVE",
"378 715 OFFCURVE",
"385 715 CURVE SMOOTH"
);
},
{
closed = 1;
nodes = (
"303 667 OFFCURVE",
"207.167 619.833 OFFCURVE",
"134.5 548.5 CURVE SMOOTH",
"61.833 477.167 OFFCURVE",
"11 368.333 OFFCURVE",
"11 259 CURVE SMOOTH",
"11 105.667 OFFCURVE",
"123.333 -7 OFFCURVE",
"298 -7 CURVE SMOOTH",
"397.333 -7 OFFCURVE",
"466 10 OFFCURVE",
"504 44 CURVE SMOOTH",
"514.667 53.333 OFFCURVE",
"540 136.333 OFFCURVE",
"544 155 CURVE",
"542 163.667 OFFCURVE",
"532.333 168 OFFCURVE",
"515 168 CURVE SMOOTH",
"513.411 168 OFFCURVE",
"466.133 92.976 OFFCURVE",
"452 83 CURVE SMOOTH",
"421.333 61.667 OFFCURVE",
"361 47 OFFCURVE",
"305 47 CURVE SMOOTH",
"206.333 47 OFFCURVE",
"156 127 OFFCURVE",
"156 247 CURVE SMOOTH",
"156 376.333 OFFCURVE",
"197.333 494.333 OFFCURVE",
"268 561 CURVE SMOOTH",
"303.333 594.333 OFFCURVE",
"342.333 611 OFFCURVE",
"385 611 CURVE SMOOTH",
"434.333 611 OFFCURVE",
"475.333 594.833 OFFCURVE",
"498 575.5 CURVE SMOOTH",
"520.667 556.167 OFFCURVE",
"534 536.667 OFFCURVE",
"546 478 CURVE",
"554 476 OFFCURVE",
"558.667 475 OFFCURVE",
"560 475 CURVE SMOOTH",
"572 475 OFFCURVE",
"585.333 480.667 OFFCURVE",
"588 490 CURVE",
"589.333 499.333 OFFCURVE",
"598 622 OFFCURVE",
"598 638 CURVE",
"528 657.333 OFFCURVE",
"459 667 OFFCURVE",
"391 667 CURVE SMOOTH"
);
}
);
};
components = (
{
name = C;
},
{
name = acutecomb.case;
transform = "{1, 0, 0, 1, 283, 228}";
}
);
layerId = "C43979EA-9F64-4F78-971C-933464F87A97";
width = 587;
}
);
leftKerningGroup = O;
note = Cacute;
rightKerningGroup = C;
unicode = 0106;
},
{
color = 10;
glyphname = Ccaron;
lastChange = "2022-03-11 08:50:32 +0000";
layers = (
{
background = {
paths = (
{
closed = 1;
nodes = (
"386 858 OFFCURVE",
"370 858 OFFCURVE",
"365 838 QCURVE",
"368 834 OFFCURVE",
"400 796 OFFCURVE",
"411 782 QCURVE SMOOTH",
"432 755 OFFCURVE",
"441 736 QCURVE SMOOTH",
"445 728 OFFCURVE",
"449 728 QCURVE SMOOTH",
"454 728 OFFCURVE",
"460 736 QCURVE SMOOTH",
"482 761 OFFCURVE",
"508 784 QCURVE SMOOTH",
"523 796 OFFCURVE",
"556 823 OFFCURVE",
"575 837 OFFCURVE",
"576 838 QCURVE",
"581 858 OFFCURVE",
"572 858 QCURVE SMOOTH",
"554 858 OFFCURVE",
"463 800 QCURVE",
"444 818 OFFCURVE"
);
},
{
closed = 1;
nodes = (
"217 592 OFFCURVE",
"119 475 OFFCURVE",
"60 333 OFFCURVE",
"60 267 QCURVE SMOOTH",
"60 157 OFFCURVE",
"202 -6 OFFCURVE",
"321 -6 QCURVE SMOOTH",
"385 -6 OFFCURVE",
"511 20 OFFCURVE",
"526 37 QCURVE SMOOTH",
"531 42 OFFCURVE",
"576 128 QCURVE",
"577 132 OFFCURVE",
"559 153 OFFCURVE",
"556 153 QCURVE SMOOTH",
"555 153 OFFCURVE",
"538 127 OFFCURVE",
"501 85 OFFCURVE",
"476 70 QCURVE SMOOTH",
"424 37 OFFCURVE",
"350 37 QCURVE SMOOTH",
"255 37 OFFCURVE",
"151 163 OFFCURVE",
"151 259 QCURVE SMOOTH",
"151 405 OFFCURVE",
"329 625 OFFCURVE",
"432 625 QCURVE SMOOTH",
"478 625 OFFCURVE",
"544 601 OFFCURVE",
"575 571 OFFCURVE",
"593 525 OFFCURVE",
"595 501 OFFCURVE",
"595 486 QCURVE",
"598 483 OFFCURVE",
"606 483 QCURVE SMOOTH",
"627 483 OFFCURVE",
"630 498 QCURVE SMOOTH",
"632 508 OFFCURVE",
"650 622 QCURVE",
"505 667 OFFCURVE",
"437 667 QCURVE SMOOTH",
"360 667 OFFCURVE"
);
}
);
};
components = (
{
name = C;
},
{
name = caroncomb.case;
transform = "{1, 0, 0, 1, 285, 228}";
}
);
layerId = "02396921-8257-42A3-8ED5-3052446F9CE3";
width = 580;
},
{
background = {
paths = (
{
closed = 1;
nodes = (
"390 820 OFFCURVE",
"325 864 OFFCURVE",
"317 864 QCURVE SMOOTH",
"311 864 OFFCURVE",
"304 844 QCURVE",
"304 843 OFFCURVE",
"339 805 OFFCURVE",
"355 783 QCURVE SMOOTH",
"377 753 OFFCURVE",
"385 737 QCURVE",
"390 728 OFFCURVE",
"398 728 OFFCURVE",
"407 737 QCURVE SMOOTH",
"425 755 OFFCURVE",
"455 782 QCURVE SMOOTH",
"505 828 OFFCURVE",
"530 844 QCURVE",
"535 864 OFFCURVE",
"525 864 QCURVE SMOOTH",
"510 864 OFFCURVE",
"409 803 QCURVE"
);
},
{
closed = 1;
nodes = (
"309 667 OFFCURVE",
"132 550 OFFCURVE",
"25 362 OFFCURVE",
"25 263 QCURVE SMOOTH",
"25 151 OFFCURVE",
"174 -6 OFFCURVE",
"299 -6 QCURVE SMOOTH",
"365 -6 OFFCURVE",
"483 19 OFFCURVE",
"505 40 QCURVE SMOOTH",
"511 46 OFFCURVE",
"529 89 OFFCURVE",
"548 140 OFFCURVE",
"549 142 QCURVE",
"548 148 OFFCURVE",
"529 160 OFFCURVE",
"525 160 QCURVE SMOOTH",
"524 160 OFFCURVE",
"508 132 OFFCURVE",
"474 90 OFFCURVE",
"453 76 QCURVE SMOOTH",
"400 42 OFFCURVE",
"317 42 QCURVE SMOOTH",
"232 42 OFFCURVE",
"143 160 OFFCURVE",
"143 253 QCURVE SMOOTH",
"143 400 OFFCURVE",
"298 618 OFFCURVE",
"398 618 QCURVE SMOOTH",
"449 618 OFFCURVE",
"519 587 OFFCURVE",
"549 537 OFFCURVE",
"559 500 OFFCURVE",
"560 482 QCURVE",
"564 479 OFFCURVE",
"573 479 QCURVE SMOOTH",
"595 479 OFFCURVE",
"598 494 QCURVE",
"600 502 OFFCURVE",
"614 624 OFFCURVE",
"614 630 QCURVE",
"489 667 OFFCURVE",
"404 667 QCURVE SMOOTH"
);
}
);
};
components = (
{
name = C;
},
{
name = caroncomb.case;
transform = "{1, 0, 0, 1, 274, 228}";
}
);
layerId = "B85C165C-5F8F-4735-B7B6-8DF6357F77F6";
width = 610;
},
{
background = {
paths = (
{
closed = 1;
nodes = (
"376 842 OFFCURVE",
"318 896 OFFCURVE",
"306 850 CURVE",
"320 836 OFFCURVE",
"338 814 OFFCURVE",
"361 784 CURVE SMOOTH",
"374 767 OFFCURVE",
"385 751 OFFCURVE",
"392 737 CURVE",
"395 731 OFFCURVE",
"398 728 OFFCURVE",
"402 728 CURVE SMOOTH",
"405 728 OFFCURVE",
"411 731 OFFCURVE",
"418 737 CURVE",
"464 780 LINE SMOOTH",
"504 816 OFFCURVE",
"532 839 OFFCURVE",
"548 850 CURVE",
"551 863 OFFCURVE",
"549 869 OFFCURVE",
"542 869 CURVE SMOOTH",
"531 869 OFFCURVE",
"456 830 OFFCURVE",
"419 807 CURVE"
);
},
{
closed = 1;
nodes = (
"303 667 OFFCURVE",
"207.167 619.833 OFFCURVE",
"134.5 548.5 CURVE SMOOTH",
"61.833 477.167 OFFCURVE",
"11 368.333 OFFCURVE",
"11 259 CURVE SMOOTH",
"11 105.667 OFFCURVE",
"123.333 -7 OFFCURVE",
"298 -7 CURVE SMOOTH",
"397.333 -7 OFFCURVE",
"466 10 OFFCURVE",
"504 44 CURVE SMOOTH",
"514.667 53.333 OFFCURVE",
"540 136.333 OFFCURVE",
"544 155 CURVE",
"542 163.667 OFFCURVE",
"532.333 168 OFFCURVE",
"515 168 CURVE SMOOTH",
"513.411 168 OFFCURVE",
"466.133 92.976 OFFCURVE",
"452 83 CURVE SMOOTH",
"421.333 61.667 OFFCURVE",
"361 47 OFFCURVE",
"305 47 CURVE SMOOTH",
"206.333 47 OFFCURVE",
"156 127 OFFCURVE",
"156 247 CURVE SMOOTH",
"156 376.333 OFFCURVE",
"197.333 494.333 OFFCURVE",
"268 561 CURVE SMOOTH",
"303.333 594.333 OFFCURVE",
"342.333 611 OFFCURVE",
"385 611 CURVE SMOOTH",
"434.333 611 OFFCURVE",
"475.333 594.833 OFFCURVE",
"498 575.5 CURVE SMOOTH",
"520.667 556.167 OFFCURVE",
"534 536.667 OFFCURVE",
"546 478 CURVE",
"554 476 OFFCURVE",
"558.667 475 OFFCURVE",
"560 475 CURVE SMOOTH",
"572 475 OFFCURVE",
"585.333 480.667 OFFCURVE",
"588 490 CURVE",
"589.333 499.333 OFFCURVE",
"598 622 OFFCURVE",
"598 638 CURVE",
"528 657.333 OFFCURVE",
"459 667 OFFCURVE",
"391 667 CURVE SMOOTH"
);
}
);
};
components = (
{
name = C;
},
{
name = caroncomb.case;
transform = "{1, 0, 0, 1, 222, 228}";
}
);
layerId = "C43979EA-9F64-4F78-971C-933464F87A97";
width = 587;
}
);
leftKerningGroup = O;
note = Ccaron;
rightKerningGroup = C;
unicode = 010C;
},
{
color = 10;
glyphname = Ccedilla;
lastChange = "2022-03-11 08:50:32 +0000";
layers = (
{
background = {
paths = (
{
closed = 1;
nodes = (
"278 0 LINE",
"271 -10 OFFCURVE",
"233 -58 OFFCURVE",
"231 -60 QCURVE SMOOTH",
"229 -63 OFFCURVE",
"237 -75 OFFCURVE",
"239 -75 QCURVE",
"258 -67 OFFCURVE",
"282 -67 OFFCURVE",
"299 -88 OFFCURVE",
"296 -107 QCURVE SMOOTH",
"293 -123 OFFCURVE",
"263 -146 OFFCURVE",
"241 -146 QCURVE SMOOTH",
"231 -146 OFFCURVE",
"209 -131 OFFCURVE",
"203 -131 QCURVE SMOOTH",
"198 -131 OFFCURVE",
"187 -141 OFFCURVE",
"185 -147 QCURVE",
"185 -164 LINE",
"197 -174 OFFCURVE",
"220 -174 QCURVE SMOOTH",
"264 -174 OFFCURVE",
"333 -125 OFFCURVE",
"341 -85 QCURVE SMOOTH",
"346 -61 OFFCURVE",
"325 -27 OFFCURVE",
"304 -27 QCURVE SMOOTH",
"276 -27 LINE",
"301 0 LINE"
);
},
{
closed = 1;
nodes = (
"217 592 OFFCURVE",
"119 475 OFFCURVE",
"60 333 OFFCURVE",
"60 267 QCURVE SMOOTH",
"60 157 OFFCURVE",
"202 -6 OFFCURVE",
"321 -6 QCURVE SMOOTH",
"385 -6 OFFCURVE",
"511 20 OFFCURVE",
"526 37 QCURVE SMOOTH",
"531 42 OFFCURVE",
"576 128 QCURVE",
"577 132 OFFCURVE",
"559 153 OFFCURVE",
"556 153 QCURVE SMOOTH",
"555 153 OFFCURVE",
"538 127 OFFCURVE",
"501 85 OFFCURVE",
"476 70 QCURVE SMOOTH",
"424 37 OFFCURVE",
"350 37 QCURVE SMOOTH",
"255 37 OFFCURVE",
"151 163 OFFCURVE",
"151 259 QCURVE SMOOTH",
"151 405 OFFCURVE",
"329 625 OFFCURVE",
"432 625 QCURVE SMOOTH",
"478 625 OFFCURVE",
"544 601 OFFCURVE",
"575 571 OFFCURVE",
"593 525 OFFCURVE",
"595 501 OFFCURVE",
"595 486 QCURVE",
"598 483 OFFCURVE",
"606 483 QCURVE SMOOTH",
"627 483 OFFCURVE",
"630 498 QCURVE SMOOTH",
"632 508 OFFCURVE",
"650 622 QCURVE",
"505 667 OFFCURVE",
"437 667 QCURVE SMOOTH",
"360 667 OFFCURVE"
);
}
);
};
components = (
{
name = C;
},
{
name = cedillacomb;
transform = "{1, 0, 0, 1, 256, 0}";
}
);
layerId = "02396921-8257-42A3-8ED5-3052446F9CE3";
width = 580;
},
{
background = {
paths = (
{
closed = 1;
nodes = (
"297 -1 LINE",
"268 -1 LINE",
"267 -3 OFFCURVE",
"232 -53 OFFCURVE",
"224 -64 QCURVE",
"222 -67 OFFCURVE",
"231 -80 OFFCURVE",
"233 -80 QCURVE",
"250 -73 OFFCURVE",
"266 -73 QCURVE SMOOTH",
"278 -73 OFFCURVE",
"291 -94 OFFCURVE",
"288 -110 QCURVE SMOOTH",
"285 -125 OFFCURVE",
"258 -146 OFFCURVE",
"236 -146 QCURVE SMOOTH",
"224 -146 OFFCURVE",
"196 -130 OFFCURVE",
"192 -130 QCURVE SMOOTH",
"182 -130 OFFCURVE",
"178 -146 QCURVE",
"176 -158 OFFCURVE",
"176 -164 QCURVE",
"191 -179 OFFCURVE",
"218 -179 QCURVE SMOOTH",
"265 -179 OFFCURVE",
"332 -129 OFFCURVE",
"340 -88 QCURVE SMOOTH",
"345 -64 OFFCURVE",
"320 -30 OFFCURVE",
"298 -30 QCURVE SMOOTH",
"274 -30 OFFCURVE",
"274 -30 QCURVE"
);
},
{
closed = 1;
nodes = (
"309 667 OFFCURVE",
"132 550 OFFCURVE",
"25 362 OFFCURVE",
"25 263 QCURVE SMOOTH",
"25 151 OFFCURVE",
"174 -6 OFFCURVE",
"299 -6 QCURVE SMOOTH",
"365 -6 OFFCURVE",
"483 19 OFFCURVE",
"505 40 QCURVE SMOOTH",
"511 46 OFFCURVE",
"529 89 OFFCURVE",
"548 140 OFFCURVE",
"549 142 QCURVE",
"548 148 OFFCURVE",
"529 160 OFFCURVE",
"525 160 QCURVE SMOOTH",
"524 160 OFFCURVE",
"508 132 OFFCURVE",
"474 90 OFFCURVE",
"453 76 QCURVE SMOOTH",
"400 42 OFFCURVE",
"317 42 QCURVE SMOOTH",
"232 42 OFFCURVE",
"143 160 OFFCURVE",
"143 253 QCURVE SMOOTH",
"143 400 OFFCURVE",
"298 618 OFFCURVE",
"398 618 QCURVE SMOOTH",
"449 618 OFFCURVE",
"519 587 OFFCURVE",
"549 537 OFFCURVE",
"559 500 OFFCURVE",
"560 482 QCURVE",
"564 479 OFFCURVE",
"573 479 QCURVE SMOOTH",
"595 479 OFFCURVE",
"598 494 QCURVE",
"600 502 OFFCURVE",
"614 624 OFFCURVE",
"614 630 QCURVE",
"489 667 OFFCURVE",
"404 667 QCURVE SMOOTH"
);
}
);
};
components = (
{
name = C;
},
{
name = cedillacomb;
transform = "{1, 0, 0, 1, 234, 0}";
}
);
layerId = "B85C165C-5F8F-4735-B7B6-8DF6357F77F6";
width = 610;
},
{
background = {
paths = (
{
closed = 1;
nodes = (
"235 -1 LINE",
"201 -1 LINE",
"198 -5 OFFCURVE",
"192 -15 OFFCURVE",
"182 -32 CURVE SMOOTH",
"171 -48 OFFCURVE",
"163 -59 OFFCURVE",
"158 -66 CURVE",
"155 -70 OFFCURVE",
"166 -85 OFFCURVE",
"169 -85 CURVE",
"180 -80 OFFCURVE",
"192 -78 OFFCURVE",
"203 -78 CURVE SMOOTH",
"220 -78 OFFCURVE",
"227 -89 OFFCURVE",
"223 -111 CURVE SMOOTH",
"219 -134 OFFCURVE",
"203 -145 OFFCURVE",
"174 -145 CURVE SMOOTH",
"165 -145 OFFCURVE",
"154 -142 OFFCURVE",
"142 -137 CURVE SMOOTH",
"129 -131 OFFCURVE",
"123 -128 OFFCURVE",
"122 -128 CURVE SMOOTH",
"118 -128 OFFCURVE",
"115 -133 OFFCURVE",
"112 -144 CURVE",
"111 -151 OFFCURVE",
"110 -157 OFFCURVE",
"110 -164 CURVE",
"119 -177 OFFCURVE",
"136 -183 OFFCURVE",
"159 -183 CURVE SMOOTH",
"226 -183 OFFCURVE",
"272 -147 OFFCURVE",
"283 -91 CURVE SMOOTH",
"290 -60 OFFCURVE",
"267 -31 OFFCURVE",
"235 -31 CURVE SMOOTH",
"230 -31 OFFCURVE",
"224 -31 OFFCURVE",
"215 -32 CURVE"
);
},
{
closed = 1;
nodes = (
"303 667 OFFCURVE",
"207.167 619.833 OFFCURVE",
"134.5 548.5 CURVE SMOOTH",
"61.833 477.167 OFFCURVE",
"11 368.333 OFFCURVE",
"11 259 CURVE SMOOTH",
"11 105.667 OFFCURVE",
"123.333 -7 OFFCURVE",
"298 -7 CURVE SMOOTH",
"397.333 -7 OFFCURVE",
"466 10 OFFCURVE",
"504 44 CURVE SMOOTH",
"514.667 53.333 OFFCURVE",
"540 136.333 OFFCURVE",
"544 155 CURVE",
"542 163.667 OFFCURVE",
"532.333 168 OFFCURVE",
"515 168 CURVE SMOOTH",
"513.411 168 OFFCURVE",
"466.133 92.976 OFFCURVE",
"452 83 CURVE SMOOTH",
"421.333 61.667 OFFCURVE",
"361 47 OFFCURVE",
"305 47 CURVE SMOOTH",
"206.333 47 OFFCURVE",
"156 127 OFFCURVE",
"156 247 CURVE SMOOTH",
"156 376.333 OFFCURVE",
"197.333 494.333 OFFCURVE",
"268 561 CURVE SMOOTH",
"303.333 594.333 OFFCURVE",
"342.333 611 OFFCURVE",
"385 611 CURVE SMOOTH",
"434.333 611 OFFCURVE",
"475.333 594.833 OFFCURVE",
"498 575.5 CURVE SMOOTH",
"520.667 556.167 OFFCURVE",
"534 536.667 OFFCURVE",
"546 478 CURVE",
"554 476 OFFCURVE",
"558.667 475 OFFCURVE",
"560 475 CURVE SMOOTH",
"572 475 OFFCURVE",
"585.333 480.667 OFFCURVE",
"588 490 CURVE",
"589.333 499.333 OFFCURVE",
"598 622 OFFCURVE",
"598 638 CURVE",
"528 657.333 OFFCURVE",
"459 667 OFFCURVE",
"391 667 CURVE SMOOTH"
);
}
);
};
components = (
{
name = C;
},
{
name = cedillacomb;
transform = "{1, 0, 0, 1, 231, 0}";
}
);
layerId = "C43979EA-9F64-4F78-971C-933464F87A97";
width = 587;
}
);
leftKerningGroup = O;
note = Ccedilla;
rightKerningGroup = C;
unicode = 00C7;
},
{
color = 10;
glyphname = Ccedillaacute;
lastChange = "2022-03-11 08:50:32 +0000";
layers = (
{
background = {
anchors = (
{
name = _top;
position = "{434, 675}";
},
{
name = bottom;
position = "{328, 0}";
},
{
name = top;
position = "{328, 656}";
}
);
paths = (
{
closed = 1;
nodes = (
"412 748 OFFCURVE",
"566 820 OFFCURVE",
"566 851 CURVE SMOOTH",
"566 866 OFFCURVE",
"549 881 OFFCURVE",
"514 881 CURVE SMOOTH",
"506 881 OFFCURVE",
"500 880 OFFCURVE",
"496 878 CURVE",
"460 851 OFFCURVE",
"377 770 OFFCURVE",
"377 761 CURVE SMOOTH",
"377 752 OFFCURVE",
"380 748 OFFCURVE",
"387 748 CURVE SMOOTH"
);
},
{
closed = 1;
nodes = (
"472 -6 OFFCURVE",
"551 9 OFFCURVE",
"600 38 CURVE SMOOTH",
"608 42 OFFCURVE",
"634 168 OFFCURVE",
"634 183 CURVE",
"629 186 LINE SMOOTH",
"622 189 OFFCURVE",
"609 192 OFFCURVE",
"601 192 CURVE SMOOTH",
"591 192 OFFCURVE",
"584 129 OFFCURVE",
"552 95 CURVE SMOOTH",
"516 56 OFFCURVE",
"465 37 OFFCURVE",
"399 37 CURVE SMOOTH",
"288 37 OFFCURVE",
"204 103 OFFCURVE",
"167 194 CURVE SMOOTH",
"148 239 OFFCURVE",
"139 289 OFFCURVE",
"139 343 CURVE SMOOTH",
"139 488 OFFCURVE",
"244 625 OFFCURVE",
"375 625 CURVE SMOOTH",
"462 625 OFFCURVE",
"521 597 OFFCURVE",
"553 550 CURVE SMOOTH",
"572 521 OFFCURVE",
"575 505 OFFCURVE",
"579 488 CURVE",
"581 485 OFFCURVE",
"585 483 OFFCURVE",
"592 483 CURVE SMOOTH",
"606 483 OFFCURVE",
"613 488 OFFCURVE",
"613 498 CURVE SMOOTH",
"615 642 LINE",
"532 659 OFFCURVE",
"451 667 OFFCURVE",
"372 667 CURVE SMOOTH",
"188 667 OFFCURVE",
"44 511 OFFCURVE",
"44 322 CURVE SMOOTH",
"44 143 OFFCURVE",
"185 -6 OFFCURVE",
"361 -6 CURVE SMOOTH"
);
},
{
closed = 1;
nodes = (
"405 -174 OFFCURVE",
"453 -138 OFFCURVE",
"453 -85 CURVE SMOOTH",
"453 -53 OFFCURVE",
"432 -27 OFFCURVE",
"401 -27 CURVE SMOOTH",
"371 -27 LINE",
"393 0 LINE",
"368 0 LINE",
"365 -7 OFFCURVE",
"358 -18 OFFCURVE",
"348 -33 CURVE SMOOTH",
"330 -60 LINE",
"329 -64 OFFCURVE",
"339 -75 OFFCURVE",
"342 -75 CURVE",
"355 -70 OFFCURVE",
"365 -67 OFFCURVE",
"373 -67 CURVE SMOOTH",
"390 -67 OFFCURVE",
"409 -82 OFFCURVE",
"409 -107 CURVE SMOOTH",
"409 -128 OFFCURVE",
"390 -146 OFFCURVE",
"358 -146 CURVE SMOOTH",
"334 -146 OFFCURVE",
"298 -111 OFFCURVE",
"298 -147 CURVE SMOOTH",
"298 -150 OFFCURVE",
"299 -153 OFFCURVE",
"300 -157 CURVE SMOOTH",
"301 -160 OFFCURVE",
"302 -163 OFFCURVE",
"302 -164 CURVE",
"311 -171 OFFCURVE",
"325 -174 OFFCURVE",
"342 -174 CURVE SMOOTH"
);
}
);
};
components = (
{
name = C;
},
{
name = acutecomb.case;
transform = "{1, 0, 0, 1, 357, 228}";
},
{
name = cedillacomb;
transform = "{1, 0, 0, 1, 256, 0}";
}
);
layerId = "02396921-8257-42A3-8ED5-3052446F9CE3";
width = 580;
},
{
associatedMasterId = "02396921-8257-42A3-8ED5-3052446F9CE3";
color = 1;
components = (
{
name = acutecomb.case;
transform = "{1, 0, 0, 1, 343, 19}";
},
{
name = Ccedilla;
}
);
layerId = "DAB0483E-4CD1-4933-B011-1A0C961E5AFE";
name = "5 Jan 22 at 13:46";
width = 656;
},
{
associatedMasterId = "02396921-8257-42A3-8ED5-3052446F9CE3";
color = 1;
components = (
{
name = acutecomb.case;
transform = "{1, 0, 0, 1, 343, 19}";
},
{
name = Ccedilla;
}
);
layerId = "2F46D84F-828A-464A-BF03-24D1B3368CCE";
name = "5 Jan 22 at 13:46";
width = 656;
},
{
components = (
{
name = C;
},
{
name = acutecomb.case;
transform = "{1, 0, 0, 1, 289, 228}";
},
{
name = cedillacomb;
transform = "{1, 0, 0, 1, 234, 0}";
}
);
layerId = "B85C165C-5F8F-4735-B7B6-8DF6357F77F6";
width = 610;
},
{
background = {
paths = (
{
closed = 1;
nodes = (
"341 743 OFFCURVE",
"350 728 OFFCURVE",
"355 728 QCURVE SMOOTH",
"373 728 OFFCURVE",
"535 807 OFFCURVE",
"535 831 QCURVE SMOOTH",
"535 850 OFFCURVE",
"497 869 OFFCURVE",
"479 869 QCURVE SMOOTH",
"469 869 OFFCURVE",
"461 865 QCURVE",
"428 840 OFFCURVE",
"341 754 OFFCURVE",
"341 748 QCURVE SMOOTH"
);
},
{
closed = 1;
nodes = (
"364 -1 LINE",
"327 -1 LINE",
"325 -5 OFFCURVE",
"300 -56 OFFCURVE",
"294 -66 QCURVE",
"293 -69 OFFCURVE",
"308 -85 OFFCURVE",
"310 -85 QCURVE",
"327 -78 OFFCURVE",
"345 -78 QCURVE SMOOTH",
"374 -78 OFFCURVE",
"374 -111 QCURVE SMOOTH",
"374 -125 OFFCURVE",
"351 -145 OFFCURVE",
"328 -145 QCURVE SMOOTH",
"312 -145 OFFCURVE",
"270 -128 OFFCURVE",
"269 -128 QCURVE SMOOTH",
"261 -128 OFFCURVE",
"261 -144 QCURVE SMOOTH",
"261 -156 OFFCURVE",
"263 -164 QCURVE",
"282 -183 OFFCURVE",
"320 -183 QCURVE SMOOTH",
"373 -183 OFFCURVE",
"434 -133 OFFCURVE",
"434 -91 QCURVE SMOOTH",
"434 -68 OFFCURVE",
"395 -31 OFFCURVE",
"370 -31 QCURVE SMOOTH",
"362 -31 OFFCURVE",
"348 -32 QCURVE"
);
},
{
closed = 1;
nodes = (
"607 190 OFFCURVE",
"566 190 QCURVE SMOOTH",
"565 190 OFFCURVE",
"554 159 OFFCURVE",
"533 114 OFFCURVE",
"520 101 QCURVE SMOOTH",
"466 47 OFFCURVE",
"392 47 QCURVE SMOOTH",
"291 47 OFFCURVE",
"181 218 OFFCURVE",
"181 343 QCURVE SMOOTH",
"181 611 OFFCURVE",
"360 611 QCURVE SMOOTH",
"409 611 OFFCURVE",
"488 582 OFFCURVE",
"533 536 OFFCURVE",
"556 496 OFFCURVE",
"561 478 QCURVE",
"576 475 OFFCURVE",
"577 475 QCURVE SMOOTH",
"604 475 OFFCURVE",
"604 505 OFFCURVE",
"589 637 OFFCURVE",
"584 638 QCURVE",
"464 667 OFFCURVE",
"355 667 QCURVE SMOOTH",
"214 667 OFFCURVE",
"25 464 OFFCURVE",
"25 322 QCURVE SMOOTH",
"25 188 OFFCURVE",
"213 -7 OFFCURVE",
"345 -7 QCURVE SMOOTH",
"458 -7 OFFCURVE",
"570 34 QCURVE SMOOTH",
"580 38 OFFCURVE",
"611 166 OFFCURVE",
"611 180 QCURVE"
);
}
);
};
components = (
{
name = C;
},
{
name = acutecomb.case;
transform = "{1, 0, 0, 1, 283, 228}";
},
{
name = cedillacomb;
transform = "{1, 0, 0, 1, 231, 0}";
}
);
layerId = "C43979EA-9F64-4F78-971C-933464F87A97";
width = 587;
}
);
leftKerningGroup = O;
note = uni1E08;
rightKerningGroup = C;
unicode = 1E08;
},
